SplineFontDB: 3.2
FontName: EvergrowSans-ExtraBold
FullName: Evergrow Sans ExtraBold
FamilyName: Evergrow Sans 
Weight: ExtraBold
Copyright: Copyright 2020 The Plus Jakarta Sans Project Authors (https://github.com/tokotype/PlusJakartaSans)\n\nModification Stijn de Vries (https://github.com/stijndevries/Eudoxus-Sans?tab=OFL-1.1-1-ov-file)\n\nModification TenWeb Inc. 2024\n\nThis Font Software is licensed under the SIL Open Font License, Version 1.1. (https://openfontlicense.org/open-font-license-official-text/)
Version: 1.000
ItalicAngle: 0
UnderlinePosition: -175
UnderlineWidth: 40
Ascent: 800
Descent: 200
InvalidEm: 0
sfntRevision: 0x00020147
LayerCount: 2
Layer: 0 1 "Back" 1
Layer: 1 1 "Fore" 0
XUID: [1021 212 447365028 9241201]
StyleMap: 0x0040
FSType: 0
OS2Version: 4
OS2_WeightWidthSlopeOnly: 0
OS2_UseTypoMetrics: 1
CreationTime: 1610050419
ModificationTime: 1723621337
PfmFamily: 81
TTFWeight: 800
TTFWidth: 5
LineGap: 0
VLineGap: 0
Panose: 0 0 0 0 0 0 0 0 0 0
OS2TypoAscent: 1038
OS2TypoAOffset: 0
OS2TypoDescent: -222
OS2TypoDOffset: 0
OS2TypoLinegap: 0
OS2WinAscent: 1214
OS2WinAOffset: 0
OS2WinDescent: 395
OS2WinDOffset: 0
HheadAscent: 1038
HheadAOffset: 0
HheadDescent: -222
HheadDOffset: 0
OS2SubXSize: 650
OS2SubYSize: 600
OS2SubXOff: 0
OS2SubYOff: 75
OS2SupXSize: 650
OS2SupYSize: 600
OS2SupXOff: 0
OS2SupYOff: 350
OS2StrikeYSize: 50
OS2StrikeYPos: 275
OS2CapHeight: 745
OS2XHeight: 546
OS2Vendor: 'UKWN'
OS2CodePages: 20000193.00000000
OS2UnicodeRanges: a10000ff.4000607b.00000000.00000000
Lookup: 1 0 0 "'aalt' Access All Alternates in Latin lookup 0" { "'aalt' Access All Alternates in Latin lookup 0 subtable"  } ['aalt' ('DFLT' <'dflt' > 'latn' <'AZE ' 'CAT ' 'CRT ' 'KAZ ' 'MOL ' 'ROM ' 'TAT ' 'TRK ' 'dflt' > ) ]
Lookup: 3 0 0 "'aalt' Access All Alternates in Latin lookup 1" { "'aalt' Access All Alternates in Latin lookup 1 subtable"  } ['aalt' ('DFLT' <'dflt' > 'latn' <'AZE ' 'CAT ' 'CRT ' 'KAZ ' 'MOL ' 'ROM ' 'TAT ' 'TRK ' 'dflt' > ) ]

StartChar: .notdef
Encoding: 65536 -1 0
Width: 600
GlyphClass: 1
Flags: W
LayerCount: 2
Fore
SplineSet
492 -240 m 1,0,-1
 112 -240 l 1,1,-1
 112 960 l 1,2,-1
 492 960 l 1,3,-1
 492 -240 l 1,0,-1
400 -157 m 1,4,-1
 400 -118 l 1,5,-1
 277 -118 l 1,6,-1
 361 -61 l 1,7,-1
 400 -61 l 1,8,-1
 400 -22 l 1,9,-1
 200 -22 l 1,10,-1
 200 -61 l 1,11,-1
 284 -61 l 1,12,-1
 200 -118 l 1,13,-1
 200 -157 l 1,14,-1
 400 -157 l 1,4,-1
400 6 m 1,15,-1
 400 142 l 1,16,-1
 200 142 l 1,17,-1
 200 6 l 1,18,-1
 400 6 l 1,15,-1
400 214 m 1,19,-1
 400 349 l 1,20,-1
 280 349 l 1,21,-1
 280 282 l 1,22,-1
 320 282 l 1,23,-1
 320 310 l 1,24,-1
 360 310 l 1,25,-1
 360 253 l 1,26,-1
 240 253 l 1,27,-1
 240 349 l 1,28,-1
 200 349 l 1,29,-1
 200 214 l 1,30,-1
 400 214 l 1,19,-1
400 376 m 1,31,-1
 400 496 l 1,32,-1
 360 496 l 1,33,-1
 360 416 l 1,34,-1
 200 416 l 1,35,-1
 200 376 l 1,36,-1
 400 376 l 1,31,-1
320 444 m 1,37,-1
 320 528 l 1,38,-1
 400 528 l 1,39,-1
 400 568 l 1,40,-1
 200 568 l 1,41,-1
 200 528 l 1,42,-1
 280 528 l 1,43,-1
 280 484 l 1,44,-1
 200 484 l 1,45,-1
 200 444 l 1,46,-1
 320 444 l 1,37,-1
400 600 m 1,47,-1
 400 641 l 1,48,-1
 320 641 l 1,49,-1
 320 725 l 1,50,-1
 200 725 l 1,51,-1
 200 600 l 1,52,-1
 400 600 l 1,47,-1
400 756 m 1,53,-1
 400 796 l 1,54,-1
 320 796 l 1,55,-1
 320 840 l 1,56,-1
 400 840 l 1,57,-1
 400 880 l 1,58,-1
 202 880 l 1,59,-1
 202 840 l 1,60,-1
 280 840 l 1,61,-1
 280 796 l 1,62,-1
 200 796 l 1,63,-1
 200 756 l 1,64,-1
 400 756 l 1,53,-1
240 102 m 1,65,-1
 360 102 l 1,66,-1
 360 46 l 1,67,-1
 240 46 l 1,68,-1
 240 102 l 1,65,-1
240 684 m 1,69,-1
 280 684 l 1,70,-1
 280 641 l 1,71,-1
 240 641 l 1,72,-1
 240 684 l 1,69,-1
EndSplineSet
Validated: 1
EndChar

StartChar: A
Encoding: 65 65 3
Width: 732
GlyphClass: 2
Flags: W
AnchorPoint: "Anchor-6" 366 745 basechar 0
AnchorPoint: "Anchor-5" 637 50 basechar 0
AnchorPoint: "Anchor-4" 366 0 basechar 0
LayerCount: 2
Fore
SplineSet
263 745 m 1,0,-1
 469 745 l 1,1,-1
 721 0 l 1,2,-1
 552 0 l 1,3,-1
 502 152 l 1,4,-1
 229 152 l 1,5,-1
 179 0 l 1,6,-1
 11 0 l 1,7,-1
 263 745 l 1,0,-1
459 287 m 1,8,-1
 366 574 l 1,9,-1
 272 287 l 1,10,-1
 459 287 l 1,8,-1
EndSplineSet
Validated: 1
Substitution2: "Single Substitution lookup 28 subtable" ordfeminine
Substitution2: "'aalt' Access All Alternates in Latin lookup 0 subtable" ordfeminine
Position2: "'cpsp' Capital Spacing in Latin lookup 0 subtable" dx=5 dy=0 dh=10 dv=0
EndChar

StartChar: Aogonek
Encoding: 260 260 24
Width: 732
GlyphClass: 2
Flags: W
AnchorPoint: "Anchor-6" 366 745 basechar 0
AnchorPoint: "Anchor-5" 637 50 basechar 0
AnchorPoint: "Anchor-4" 366 0 basechar 0
LayerCount: 2
Fore
SplineSet
263 745 m 1,0,-1
 469 745 l 1,1,-1
 721 0 l 1,2,-1
 622 0 l 1,3,4
 558 -23 558 -23 558 -62 c 0,5,6
 558 -82 558 -82 574.5 -95 c 128,-1,7
 591 -108 591 -108 621 -108 c 0,8,9
 665 -108 665 -108 714 -79 c 1,10,-1
 759 -158 l 1,11,12
 689 -213 689 -213 605 -213 c 0,13,14
 535 -213 535 -213 489 -181 c 128,-1,15
 443 -149 443 -149 443 -93 c 0,16,17
 443 -51 443 -51 470 -18 c 128,-1,18
 497 15 497 15 541 33 c 1,19,-1
 502 152 l 1,20,-1
 229 152 l 1,21,-1
 179 0 l 1,22,-1
 11 0 l 1,23,-1
 263 745 l 1,0,-1
459 287 m 1,24,-1
 366 574 l 1,25,-1
 272 287 l 1,26,-1
 459 287 l 1,24,-1
EndSplineSet
Validated: 1
Position2: "'cpsp' Capital Spacing in Latin lookup 0 subtable" dx=5 dy=0 dh=10 dv=0
EndChar

StartChar: AE
Encoding: 198 198 28
Width: 993
GlyphClass: 2
Flags: W
AnchorPoint: "Anchor-6" 497 745 basechar 0
AnchorPoint: "Anchor-4" 497 0 basechar 0
LayerCount: 2
Fore
SplineSet
263 745 m 1,0,-1
 971 745 l 1,1,-1
 971 610 l 1,2,-1
 625 610 l 1,3,-1
 625 441 l 1,4,-1
 951 441 l 1,5,-1
 951 306 l 1,6,-1
 625 306 l 1,7,-1
 625 135 l 1,8,-1
 971 135 l 1,9,-1
 970 0 l 1,10,-1
 470 0 l 1,11,-1
 470 152 l 1,12,-1
 229 152 l 1,13,-1
 179 0 l 1,14,-1
 11 0 l 1,15,-1
 263 745 l 1,0,-1
470 287 m 1,16,-1
 470 610 l 1,17,-1
 378 610 l 1,18,-1
 272 287 l 1,19,-1
 470 287 l 1,16,-1
EndSplineSet
Validated: 1
Position2: "'cpsp' Capital Spacing in Latin lookup 0 subtable" dx=5 dy=0 dh=10 dv=0
EndChar

StartChar: B
Encoding: 66 66 30
Width: 690
GlyphClass: 2
Flags: W
AnchorPoint: "Anchor-6" 345 745 basechar 0
AnchorPoint: "Anchor-4" 345 0 basechar 0
LayerCount: 2
Fore
SplineSet
66 745 m 1,0,-1
 381 745 l 2,1,2
 496 745 496 745 561 687.5 c 128,-1,3
 626 630 626 630 626 527 c 0,4,5
 626 454 626 454 573 402 c 1,6,7
 619 370 619 370 638 328 c 128,-1,8
 657 286 657 286 657 232 c 0,9,10
 657 122 657 122 584 61 c 128,-1,11
 511 0 511 0 381 0 c 2,12,-1
 66 0 l 1,13,-1
 66 745 l 1,0,-1
399 135 m 2,14,15
 445 135 445 135 473.5 161.5 c 128,-1,16
 502 188 502 188 502 232 c 256,17,18
 502 276 502 276 474 303 c 128,-1,19
 446 330 446 330 399 330 c 2,20,-1
 221 330 l 1,21,-1
 221 135 l 1,22,-1
 399 135 l 2,14,15
392 465 m 2,23,24
 428 465 428 465 449.5 485.5 c 128,-1,25
 471 506 471 506 471 540 c 256,26,27
 471 574 471 574 449.5 594.5 c 128,-1,28
 428 615 428 615 392 615 c 2,29,-1
 221 615 l 1,30,-1
 221 465 l 1,31,-1
 392 465 l 2,23,24
EndSplineSet
Validated: 1
Position2: "'cpsp' Capital Spacing in Latin lookup 0 subtable" dx=5 dy=0 dh=10 dv=0
EndChar

StartChar: C
Encoding: 67 67 31
Width: 772
GlyphClass: 2
Flags: W
AnchorPoint: "Anchor-6" 386 745 basechar 0
AnchorPoint: "Anchor-4" 386 0 basechar 0
LayerCount: 2
Fore
SplineSet
228 38 m 128,-1,1
 142 88 142 88 93 176 c 128,-1,2
 44 264 44 264 44 373 c 256,3,4
 44 482 44 482 93 570 c 128,-1,5
 142 658 142 658 227.5 707.5 c 128,-1,6
 313 757 313 757 420 757 c 0,7,8
 498 757 498 757 563.5 730.5 c 128,-1,9
 629 704 629 704 674 659 c 128,-1,10
 719 614 719 614 739 558 c 1,11,-1
 602 492 l 1,12,13
 582 548 582 548 534 582.5 c 128,-1,14
 486 617 486 617 420 617 c 0,15,16
 355 617 355 617 304.5 586.5 c 128,-1,17
 254 556 254 556 226.5 500.5 c 128,-1,18
 199 445 199 445 199 373 c 256,19,20
 199 301 199 301 226.5 245.5 c 128,-1,21
 254 190 254 190 304.5 159 c 128,-1,22
 355 128 355 128 420 128 c 0,23,24
 486 128 486 128 534 162.5 c 128,-1,25
 582 197 582 197 602 253 c 1,26,-1
 739 187 l 1,27,28
 719 131 719 131 674 86 c 128,-1,29
 629 41 629 41 563.5 14.5 c 128,-1,30
 498 -12 498 -12 420 -12 c 0,31,0
 314 -12 314 -12 228 38 c 128,-1,1
EndSplineSet
Validated: 1
Position2: "'cpsp' Capital Spacing in Latin lookup 0 subtable" dx=5 dy=0 dh=10 dv=0
EndChar

StartChar: Ccedilla
Encoding: 199 199 34
Width: 772
GlyphClass: 2
Flags: W
AnchorPoint: "Anchor-4" 386 0 basechar 0
LayerCount: 2
Fore
SplineSet
287 -251 m 1,1,-1
 300 -175 l 1,2,3
 324 -183 324 -183 362 -183 c 0,4,5
 387 -183 387 -183 400.5 -175 c 128,-1,6
 414 -167 414 -167 414 -152 c 0,7,8
 414 -125 414 -125 382 -125 c 0,9,10
 360 -125 360 -125 344 -129 c 1,11,-1
 320 -117 l 1,12,-1
 336 -3 l 1,13,14
 251 15 251 15 184.5 68 c 128,-1,15
 118 121 118 121 81 200 c 128,-1,16
 44 279 44 279 44 373 c 0,17,18
 44 482 44 482 93 570 c 128,-1,19
 142 658 142 658 227.5 707.5 c 128,-1,20
 313 757 313 757 420 757 c 0,21,22
 498 757 498 757 563.5 730.5 c 128,-1,23
 629 704 629 704 674 659 c 128,-1,24
 719 614 719 614 739 558 c 1,25,-1
 602 492 l 1,26,27
 582 548 582 548 534 582.5 c 128,-1,28
 486 617 486 617 420 617 c 0,29,30
 355 617 355 617 304.5 586.5 c 128,-1,31
 254 556 254 556 226.5 500.5 c 128,-1,32
 199 445 199 445 199 373 c 256,33,34
 199 301 199 301 226.5 245.5 c 128,-1,35
 254 190 254 190 304.5 159 c 128,-1,36
 355 128 355 128 420 128 c 0,37,38
 486 128 486 128 534 162.5 c 128,-1,39
 582 197 582 197 602 253 c 1,40,-1
 739 187 l 1,41,42
 709 104 709 104 627.5 48 c 128,-1,43
 546 -8 546 -8 434 -12 c 1,44,-1
 430 -62 l 1,45,-1
 443 -61 l 2,46,47
 484 -61 484 -61 509.5 -85 c 128,-1,48
 535 -109 535 -109 535 -149 c 0,49,50
 535 -198 535 -198 494 -229.5 c 128,-1,51
 453 -261 453 -261 375 -261 c 0,52,0
 323 -261 323 -261 287 -251 c 1,1,-1
EndSplineSet
Validated: 1
Position2: "'cpsp' Capital Spacing in Latin lookup 0 subtable" dx=5 dy=0 dh=10 dv=0
EndChar

StartChar: uni1E08
Encoding: 7688 7688 35
Width: 772
GlyphClass: 2
Flags: W
AnchorPoint: "Anchor-4" 386 0 basechar 0
LayerCount: 2
Fore
SplineSet
287 -251 m 1,1,-1
 300 -175 l 1,2,3
 324 -183 324 -183 362 -183 c 0,4,5
 387 -183 387 -183 400.5 -175 c 128,-1,6
 414 -167 414 -167 414 -152 c 0,7,8
 414 -125 414 -125 382 -125 c 0,9,10
 360 -125 360 -125 344 -129 c 1,11,-1
 320 -117 l 1,12,-1
 336 -3 l 1,13,14
 251 15 251 15 184.5 68 c 128,-1,15
 118 121 118 121 81 200 c 128,-1,16
 44 279 44 279 44 373 c 0,17,18
 44 482 44 482 93 570 c 128,-1,19
 142 658 142 658 227.5 707.5 c 128,-1,20
 313 757 313 757 420 757 c 0,21,22
 498 757 498 757 563.5 730.5 c 128,-1,23
 629 704 629 704 674 659 c 128,-1,24
 719 614 719 614 739 558 c 1,25,-1
 602 492 l 1,26,27
 582 548 582 548 534 582.5 c 128,-1,28
 486 617 486 617 420 617 c 0,29,30
 355 617 355 617 304.5 586.5 c 128,-1,31
 254 556 254 556 226.5 500.5 c 128,-1,32
 199 445 199 445 199 373 c 256,33,34
 199 301 199 301 226.5 245.5 c 128,-1,35
 254 190 254 190 304.5 159 c 128,-1,36
 355 128 355 128 420 128 c 0,37,38
 486 128 486 128 534 162.5 c 128,-1,39
 582 197 582 197 602 253 c 1,40,-1
 739 187 l 1,41,42
 709 104 709 104 627.5 48 c 128,-1,43
 546 -8 546 -8 434 -12 c 1,44,-1
 430 -62 l 1,45,-1
 443 -61 l 2,46,47
 484 -61 484 -61 509.5 -85 c 128,-1,48
 535 -109 535 -109 535 -149 c 0,49,50
 535 -198 535 -198 494 -229.5 c 128,-1,51
 453 -261 453 -261 375 -261 c 0,52,0
 323 -261 323 -261 287 -251 c 1,1,-1
378 983 m 1,53,-1
 549 983 l 1,54,-1
 452 839 l 1,55,-1
 320 839 l 1,56,-1
 378 983 l 1,53,-1
EndSplineSet
Validated: 1
Position2: "'cpsp' Capital Spacing in Latin lookup 0 subtable" dx=5 dy=0 dh=10 dv=0
EndChar

StartChar: D
Encoding: 68 68 38
Width: 739
GlyphClass: 2
Flags: W
AnchorPoint: "Anchor-6" 375 745 basechar 0
AnchorPoint: "Anchor-4" 375 0 basechar 0
LayerCount: 2
Fore
SplineSet
66 745 m 1,0,-1
 309 745 l 2,1,2
 428 745 428 745 518 697.5 c 128,-1,3
 608 650 608 650 657 565.5 c 128,-1,4
 706 481 706 481 706 373 c 256,5,6
 706 265 706 265 657 180.5 c 128,-1,7
 608 96 608 96 517.5 48 c 128,-1,8
 427 0 427 0 309 0 c 2,9,-1
 66 0 l 1,10,-1
 66 745 l 1,0,-1
313 135 m 2,11,12
 385 135 385 135 439 164 c 128,-1,13
 493 193 493 193 522 247 c 128,-1,14
 551 301 551 301 551 373 c 256,15,16
 551 445 551 445 522 498.5 c 128,-1,17
 493 552 493 552 439 581 c 128,-1,18
 385 610 385 610 313 610 c 2,19,-1
 221 610 l 1,20,-1
 221 135 l 1,21,-1
 313 135 l 2,11,12
EndSplineSet
Validated: 1
Position2: "'cpsp' Capital Spacing in Latin lookup 0 subtable" dx=5 dy=0 dh=10 dv=0
EndChar

StartChar: uni01C4
Encoding: 452 452 39
Width: 1306
GlyphClass: 1
Flags: W
LayerCount: 2
Fore
SplineSet
66 745 m 1,0,-1
 309 745 l 2,1,2
 428 745 428 745 518 697.5 c 128,-1,3
 608 650 608 650 657 565.5 c 128,-1,4
 706 481 706 481 706 373 c 256,5,6
 706 265 706 265 657 180.5 c 128,-1,7
 608 96 608 96 517.5 48 c 128,-1,8
 427 0 427 0 309 0 c 2,9,-1
 66 0 l 1,10,-1
 66 745 l 1,0,-1
313 135 m 2,11,12
 385 135 385 135 439 164 c 128,-1,13
 493 193 493 193 522 247 c 128,-1,14
 551 301 551 301 551 373 c 256,15,16
 551 445 551 445 522 498.5 c 128,-1,17
 493 552 493 552 439 581 c 128,-1,18
 385 610 385 610 313 610 c 2,19,-1
 221 610 l 1,20,-1
 221 135 l 1,21,-1
 313 135 l 2,11,12
750 125 m 1,22,-1
 1089 610 l 1,23,-1
 770 610 l 1,24,-1
 770 745 l 1,25,-1
 1285 745 l 1,26,-1
 1285 620 l 1,27,-1
 947 135 l 1,28,-1
 1295 135 l 1,29,-1
 1295 0 l 1,30,-1
 750 0 l 1,31,-1
 750 125 l 1,22,-1
962 983 m 1,32,-1
 1024 912 l 1,33,-1
 1086 983 l 1,34,-1
 1223 983 l 1,35,-1
 1101 839 l 1,36,-1
 944 839 l 1,37,-1
 822 983 l 1,38,-1
 962 983 l 1,32,-1
EndSplineSet
Validated: 1
Position2: "'cpsp' Capital Spacing in Latin lookup 0 subtable" dx=5 dy=0 dh=10 dv=0
EndChar

StartChar: Eth
Encoding: 208 208 40
Width: 739
GlyphClass: 2
Flags: W
AnchorPoint: "Anchor-6" 375 745 basechar 0
AnchorPoint: "Anchor-4" 375 0 basechar 0
LayerCount: 2
Fore
SplineSet
66 328 m 1,0,-1
 -31 328 l 1,1,-1
 -31 418 l 1,2,-1
 66 418 l 1,3,-1
 66 745 l 1,4,-1
 309 745 l 2,5,6
 428 745 428 745 518 697.5 c 128,-1,7
 608 650 608 650 657 565.5 c 128,-1,8
 706 481 706 481 706 373 c 256,9,10
 706 265 706 265 657 180.5 c 128,-1,11
 608 96 608 96 517.5 48 c 128,-1,12
 427 0 427 0 309 0 c 2,13,-1
 66 0 l 1,14,-1
 66 328 l 1,0,-1
313 135 m 2,15,16
 385 135 385 135 439 164 c 128,-1,17
 493 193 493 193 522 247 c 128,-1,18
 551 301 551 301 551 373 c 256,19,20
 551 445 551 445 522 498.5 c 128,-1,21
 493 552 493 552 439 581 c 128,-1,22
 385 610 385 610 313 610 c 2,23,-1
 221 610 l 1,24,-1
 221 418 l 1,25,-1
 419 418 l 1,26,-1
 419 328 l 1,27,-1
 221 328 l 1,28,-1
 221 135 l 1,29,-1
 313 135 l 2,15,16
EndSplineSet
Validated: 1
Position2: "'cpsp' Capital Spacing in Latin lookup 0 subtable" dx=5 dy=0 dh=10 dv=0
EndChar

StartChar: uni01C5
Encoding: 453 453 45
Width: 1231
GlyphClass: 1
Flags: W
LayerCount: 2
Fore
SplineSet
66 745 m 1,0,-1
 309 745 l 2,1,2
 428 745 428 745 518 697.5 c 128,-1,3
 608 650 608 650 657 565.5 c 128,-1,4
 706 481 706 481 706 373 c 256,5,6
 706 265 706 265 657 180.5 c 128,-1,7
 608 96 608 96 517.5 48 c 128,-1,8
 427 0 427 0 309 0 c 2,9,-1
 66 0 l 1,10,-1
 66 745 l 1,0,-1
313 135 m 2,11,12
 385 135 385 135 439 164 c 128,-1,13
 493 193 493 193 522 247 c 128,-1,14
 551 301 551 301 551 373 c 256,15,16
 551 445 551 445 522 498.5 c 128,-1,17
 493 552 493 552 439 581 c 128,-1,18
 385 610 385 610 313 610 c 2,19,-1
 221 610 l 1,20,-1
 221 135 l 1,21,-1
 313 135 l 2,11,12
750 120 m 1,22,-1
 1019 416 l 1,23,-1
 763 416 l 1,24,-1
 763 546 l 1,25,-1
 1219 546 l 1,26,-1
 1219 426 l 1,27,-1
 958 130 l 1,28,-1
 1220 130 l 1,29,-1
 1220 0 l 1,30,-1
 750 0 l 1,31,-1
 750 120 l 1,22,-1
930 784 m 1,32,-1
 992 713 l 1,33,-1
 1054 784 l 1,34,-1
 1191 784 l 1,35,-1
 1069 640 l 1,36,-1
 912 640 l 1,37,-1
 790 784 l 1,38,-1
 930 784 l 1,32,-1
EndSplineSet
Validated: 1
Position2: "'cpsp' Capital Spacing in Latin lookup 0 subtable" dx=5 dy=0 dh=10 dv=0
EndChar

StartChar: E
Encoding: 69 69 46
Width: 589
GlyphClass: 2
Flags: W
AnchorPoint: "Anchor-6" 317 745 basechar 0
AnchorPoint: "Anchor-5" 447 50 basechar 0
AnchorPoint: "Anchor-4" 317 0 basechar 0
LayerCount: 2
Fore
SplineSet
66 745 m 1,0,-1
 567 745 l 1,1,-1
 567 610 l 1,2,-1
 221 610 l 1,3,-1
 221 441 l 1,4,-1
 547 441 l 1,5,-1
 547 306 l 1,6,-1
 221 306 l 1,7,-1
 221 135 l 1,8,-1
 567 135 l 1,9,-1
 567 0 l 1,10,-1
 66 0 l 1,11,-1
 66 745 l 1,0,-1
EndSplineSet
Validated: 1
Position2: "'cpsp' Capital Spacing in Latin lookup 0 subtable" dx=5 dy=0 dh=10 dv=0
EndChar

StartChar: Eogonek
Encoding: 280 280 67
Width: 589
GlyphClass: 2
Flags: W
AnchorPoint: "Anchor-6" 317 745 basechar 0
AnchorPoint: "Anchor-5" 447 50 basechar 0
AnchorPoint: "Anchor-4" 317 0 basechar 0
LayerCount: 2
Fore
SplineSet
66 745 m 1,0,-1
 567 745 l 1,1,-1
 567 610 l 1,2,-1
 221 610 l 1,3,-1
 221 441 l 1,4,-1
 547 441 l 1,5,-1
 547 306 l 1,6,-1
 221 306 l 1,7,-1
 221 135 l 1,8,-1
 567 135 l 1,9,-1
 567 0 l 1,10,-1
 432 0 l 1,11,12
 368 -23 368 -23 368 -62 c 0,13,14
 368 -82 368 -82 384.5 -95 c 128,-1,15
 401 -108 401 -108 431 -108 c 0,16,17
 475 -108 475 -108 524 -79 c 1,18,-1
 569 -158 l 1,19,20
 499 -213 499 -213 415 -213 c 0,21,22
 345 -213 345 -213 299 -181 c 128,-1,23
 253 -149 253 -149 253 -93 c 0,24,25
 253 -38 253 -38 296 0 c 1,26,-1
 66 0 l 1,27,-1
 66 745 l 1,0,-1
EndSplineSet
Validated: 1
Position2: "'cpsp' Capital Spacing in Latin lookup 0 subtable" dx=5 dy=0 dh=10 dv=0
EndChar

StartChar: F
Encoding: 70 70 69
Width: 587
GlyphClass: 2
Flags: W
AnchorPoint: "Anchor-6" 294 745 basechar 0
AnchorPoint: "Anchor-4" 294 0 basechar 0
LayerCount: 2
Fore
SplineSet
66 745 m 1,0,-1
 576 745 l 1,1,-1
 576 610 l 1,2,-1
 221 610 l 1,3,-1
 221 421 l 1,4,-1
 526 421 l 1,5,-1
 526 286 l 1,6,-1
 221 286 l 1,7,-1
 221 0 l 1,8,-1
 66 0 l 1,9,-1
 66 745 l 1,0,-1
EndSplineSet
Validated: 1
Position2: "'cpsp' Capital Spacing in Latin lookup 0 subtable" dx=5 dy=0 dh=10 dv=0
EndChar

StartChar: G
Encoding: 71 71 70
Width: 804
GlyphClass: 2
Flags: W
AnchorPoint: "Anchor-6" 402 745 basechar 0
AnchorPoint: "Anchor-4" 402 0 basechar 0
LayerCount: 2
Fore
SplineSet
231 38 m 128,-1,1
 144 88 144 88 94 176 c 128,-1,2
 44 264 44 264 44 373 c 256,3,4
 44 482 44 482 93 570 c 128,-1,5
 142 658 142 658 227.5 707.5 c 128,-1,6
 313 757 313 757 420 757 c 0,7,8
 498 757 498 757 563.5 730.5 c 128,-1,9
 629 704 629 704 674 659 c 128,-1,10
 719 614 719 614 739 558 c 1,11,-1
 602 492 l 1,12,13
 582 548 582 548 534 582.5 c 128,-1,14
 486 617 486 617 420 617 c 0,15,16
 355 617 355 617 304.5 586.5 c 128,-1,17
 254 556 254 556 226.5 500.5 c 128,-1,18
 199 445 199 445 199 373 c 256,19,20
 199 301 199 301 227.5 245.5 c 128,-1,21
 256 190 256 190 307.5 159 c 128,-1,22
 359 128 359 128 424 128 c 0,23,24
 476 128 476 128 520.5 148 c 128,-1,25
 565 168 565 168 592 205.5 c 128,-1,26
 619 243 619 243 619 293 c 2,27,-1
 619 295 l 1,28,-1
 420 295 l 1,29,-1
 420 425 l 1,30,-1
 774 425 l 1,31,-1
 774 346 l 2,32,33
 774 230 774 230 724 149 c 128,-1,34
 674 68 674 68 594 28 c 128,-1,35
 514 -12 514 -12 424 -12 c 0,36,0
 318 -12 318 -12 231 38 c 128,-1,1
EndSplineSet
Validated: 1
Substitution2: "'ss03' Style Set 3 in Latin lookup 22 subtable" G.ss03
Substitution2: "'ss01' Style Set 1 in Latin lookup 20 subtable" G.ss01
Substitution2: "'salt' Stylistic Alternatives in Latin lookup 19 subtable" G.ss01
AlternateSubs2: "'aalt' Access All Alternates in Latin lookup 1 subtable" G.ss01 G.ss03
Position2: "'cpsp' Capital Spacing in Latin lookup 0 subtable" dx=5 dy=0 dh=10 dv=0
EndChar

StartChar: G.ss01
Encoding: 65537 -1 71
Width: 786
GlyphClass: 2
Flags: W
AnchorPoint: "Anchor-6" 411 745 basechar 0
AnchorPoint: "Anchor-4" 393 0 basechar 0
LayerCount: 2
Fore
SplineSet
222 38 m 128,-1,1
 135 88 135 88 85 176 c 128,-1,2
 35 264 35 264 35 373 c 256,3,4
 35 482 35 482 84 570 c 128,-1,5
 133 658 133 658 218.5 707.5 c 128,-1,6
 304 757 304 757 411 757 c 0,7,8
 489 757 489 757 554.5 730.5 c 128,-1,9
 620 704 620 704 665 659 c 128,-1,10
 710 614 710 614 730 558 c 1,11,-1
 593 492 l 1,12,13
 573 548 573 548 525 582.5 c 128,-1,14
 477 617 477 617 411 617 c 0,15,16
 346 617 346 617 295.5 586.5 c 128,-1,17
 245 556 245 556 217.5 500.5 c 128,-1,18
 190 445 190 445 190 373 c 256,19,20
 190 301 190 301 218.5 245.5 c 128,-1,21
 247 190 247 190 298.5 159 c 128,-1,22
 350 128 350 128 415 128 c 0,23,24
 467 128 467 128 511.5 147.5 c 128,-1,25
 556 167 556 167 583 204 c 128,-1,26
 610 241 610 241 610 291 c 2,27,-1
 610 295 l 1,28,-1
 411 295 l 1,29,-1
 411 425 l 1,30,-1
 755 425 l 1,31,-1
 755 0 l 1,32,-1
 615 0 l 1,33,-1
 615 62 l 1,34,35
 575 24 575 24 523 6 c 128,-1,36
 471 -12 471 -12 415 -12 c 0,37,0
 309 -12 309 -12 222 38 c 128,-1,1
EndSplineSet
Validated: 1
Position2: "'cpsp' Capital Spacing in Latin lookup 0 subtable" dx=5 dy=0 dh=10 dv=0
EndChar

StartChar: G.ss03
Encoding: 65538 -1 72
Width: 792
GlyphClass: 2
Flags: W
AnchorPoint: "Anchor-6" 418 745 basechar 0
AnchorPoint: "Anchor-4" 396 0 basechar 0
LayerCount: 2
Fore
SplineSet
233 37.5 m 128,-1,1
 145 87 145 87 94.5 175.5 c 128,-1,2
 44 264 44 264 44 375 c 0,3,4
 44 482 44 482 92.5 569.5 c 128,-1,5
 141 657 141 657 226.5 707 c 128,-1,6
 312 757 312 757 420 757 c 0,7,8
 498 757 498 757 563.5 730.5 c 128,-1,9
 629 704 629 704 674 659 c 128,-1,10
 719 614 719 614 739 558 c 1,11,-1
 602 492 l 1,12,13
 582 548 582 548 533.5 582.5 c 128,-1,14
 485 617 485 617 418 617 c 0,15,16
 355 617 355 617 305.5 587 c 128,-1,17
 256 557 256 557 227.5 501.5 c 128,-1,18
 199 446 199 446 199 374 c 0,19,20
 199 298 199 298 230 242.5 c 128,-1,21
 261 187 261 187 313.5 157.5 c 128,-1,22
 366 128 366 128 430 128 c 0,23,24
 489 128 489 128 541 153 c 128,-1,25
 593 178 593 178 619 223 c 1,26,-1
 619 295 l 1,27,-1
 420 295 l 1,28,-1
 420 425 l 1,29,-1
 764 425 l 1,30,-1
 764 177 l 1,31,32
 716 83 716 83 624 35.5 c 128,-1,33
 532 -12 532 -12 428 -12 c 0,34,0
 321 -12 321 -12 233 37.5 c 128,-1,1
EndSplineSet
Validated: 1
Position2: "'cpsp' Capital Spacing in Latin lookup 0 subtable" dx=5 dy=0 dh=10 dv=0
EndChar

StartChar: H
Encoding: 72 72 91
Width: 732
GlyphClass: 2
Flags: W
AnchorPoint: "Anchor-6" 366 745 basechar 0
AnchorPoint: "Anchor-4" 366 0 basechar 0
LayerCount: 2
Fore
SplineSet
66 745 m 1,0,-1
 221 745 l 1,1,-1
 221 423 l 1,2,-1
 511 423 l 1,3,-1
 511 745 l 1,4,-1
 666 745 l 1,5,-1
 666 0 l 1,6,-1
 511 0 l 1,7,-1
 511 288 l 1,8,-1
 221 288 l 1,9,-1
 221 0 l 1,10,-1
 66 0 l 1,11,-1
 66 745 l 1,0,-1
EndSplineSet
Validated: 1
Position2: "'cpsp' Capital Spacing in Latin lookup 0 subtable" dx=5 dy=0 dh=10 dv=0
EndChar

StartChar: Hbar
Encoding: 294 294 92
Width: 732
GlyphClass: 2
Flags: W
AnchorPoint: "Anchor-6" 366 745 basechar 0
AnchorPoint: "Anchor-4" 366 0 basechar 0
LayerCount: 2
Fore
SplineSet
66 550 m 1,0,-1
 -24 550 l 1,1,-1
 -24 640 l 1,2,-1
 66 640 l 1,3,-1
 66 745 l 1,4,-1
 221 745 l 1,5,-1
 221 640 l 1,6,-1
 511 640 l 1,7,-1
 511 745 l 1,8,-1
 666 745 l 1,9,-1
 666 640 l 1,10,-1
 756 640 l 1,11,-1
 756 550 l 1,12,-1
 666 550 l 1,13,-1
 666 0 l 1,14,-1
 511 0 l 1,15,-1
 511 288 l 1,16,-1
 221 288 l 1,17,-1
 221 0 l 1,18,-1
 66 0 l 1,19,-1
 66 550 l 1,0,-1
511 423 m 1,20,-1
 511 550 l 1,21,-1
 221 550 l 1,22,-1
 221 423 l 1,23,-1
 511 423 l 1,20,-1
EndSplineSet
Validated: 1
Position2: "'cpsp' Capital Spacing in Latin lookup 0 subtable" dx=5 dy=0 dh=10 dv=0
EndChar

StartChar: I
Encoding: 73 73 96
Width: 287
GlyphClass: 2
Flags: W
AnchorPoint: "Anchor-6" 144 745 basechar 0
AnchorPoint: "Anchor-5" 144 50 basechar 0
AnchorPoint: "Anchor-4" 144 0 basechar 0
LayerCount: 2
Fore
SplineSet
66 745 m 1,0,-1
 221 745 l 1,1,-1
 221 0 l 1,2,-1
 66 0 l 1,3,-1
 66 745 l 1,0,-1
EndSplineSet
Validated: 1
Substitution2: "'ss01' Style Set 1 in Latin lookup 20 subtable" I.ss01
Substitution2: "'salt' Stylistic Alternatives in Latin lookup 19 subtable" I.ss01
Substitution2: "'aalt' Access All Alternates in Latin lookup 0 subtable" I.ss01
Position2: "'cpsp' Capital Spacing in Latin lookup 0 subtable" dx=5 dy=0 dh=10 dv=0
EndChar

StartChar: I.ss01
Encoding: 65551 -1 97
Width: 520
GlyphClass: 2
Flags: W
AnchorPoint: "Anchor-6" 260 745 basechar 0
AnchorPoint: "Anchor-5" 261 50 basechar 0
AnchorPoint: "Anchor-4" 261 0 basechar 0
LayerCount: 2
Fore
SplineSet
63 135 m 1,0,-1
 183 135 l 1,1,-1
 183 610 l 1,2,-1
 63 610 l 1,3,-1
 63 745 l 1,4,-1
 458 745 l 1,5,-1
 458 610 l 1,6,-1
 338 610 l 1,7,-1
 338 135 l 1,8,-1
 458 135 l 1,9,-1
 458 0 l 1,10,-1
 63 0 l 1,11,-1
 63 135 l 1,0,-1
EndSplineSet
Validated: 1
Position2: "'cpsp' Capital Spacing in Latin lookup 0 subtable" dx=5 dy=0 dh=10 dv=0
EndChar

StartChar: Iogonek
Encoding: 302 302 122
Width: 287
GlyphClass: 2
Flags: W
AnchorPoint: "Anchor-6" 144 745 basechar 0
AnchorPoint: "Anchor-5" 144 50 basechar 0
AnchorPoint: "Anchor-4" 144 0 basechar 0
LayerCount: 2
Fore
SplineSet
-4 -181 m 128,-1,1
 -50 -149 -50 -149 -50 -93 c 0,2,3
 -50 -46 -50 -46 -18 -11 c 128,-1,4
 14 24 14 24 66 40 c 1,5,-1
 66 745 l 1,6,-1
 221 745 l 1,7,-1
 221 0 l 1,8,-1
 129 0 l 1,9,10
 65 -23 65 -23 65 -62 c 0,11,12
 65 -82 65 -82 81.5 -95 c 128,-1,13
 98 -108 98 -108 128 -108 c 0,14,15
 172 -108 172 -108 221 -79 c 1,16,-1
 266 -158 l 1,17,18
 196 -213 196 -213 112 -213 c 0,19,0
 42 -213 42 -213 -4 -181 c 128,-1,1
EndSplineSet
Validated: 1
Substitution2: "'ss01' Style Set 1 in Latin lookup 20 subtable" Iogonek.ss01
Substitution2: "'salt' Stylistic Alternatives in Latin lookup 19 subtable" Iogonek.ss01
Substitution2: "'aalt' Access All Alternates in Latin lookup 0 subtable" Iogonek.ss01
Position2: "'cpsp' Capital Spacing in Latin lookup 0 subtable" dx=5 dy=0 dh=10 dv=0
EndChar

StartChar: Iogonek.ss01
Encoding: 65564 -1 123
Width: 520
GlyphClass: 2
Flags: W
AnchorPoint: "Anchor-6" 260 745 basechar 0
AnchorPoint: "Anchor-5" 261 50 basechar 0
AnchorPoint: "Anchor-4" 261 0 basechar 0
LayerCount: 2
Fore
SplineSet
63 135 m 1,0,-1
 183 135 l 1,1,-1
 183 610 l 1,2,-1
 63 610 l 1,3,-1
 63 745 l 1,4,-1
 458 745 l 1,5,-1
 458 610 l 1,6,-1
 338 610 l 1,7,-1
 338 135 l 1,8,-1
 458 135 l 1,9,-1
 458 0 l 1,10,-1
 246 0 l 1,11,12
 182 -23 182 -23 182 -62 c 0,13,14
 182 -82 182 -82 198.5 -95 c 128,-1,15
 215 -108 215 -108 245 -108 c 0,16,17
 289 -108 289 -108 338 -79 c 1,18,-1
 383 -158 l 1,19,20
 313 -213 313 -213 229 -213 c 0,21,22
 159 -213 159 -213 113 -181 c 128,-1,23
 67 -149 67 -149 67 -93 c 0,24,25
 67 -38 67 -38 110 0 c 1,26,-1
 63 0 l 1,27,-1
 63 135 l 1,0,-1
EndSplineSet
Validated: 1
Position2: "'cpsp' Capital Spacing in Latin lookup 0 subtable" dx=5 dy=0 dh=10 dv=0
EndChar

StartChar: J
Encoding: 74 74 126
Width: 396
GlyphClass: 2
Flags: W
AnchorPoint: "Anchor-6" 256 745 basechar 0
AnchorPoint: "Anchor-4" 209 0 basechar 0
LayerCount: 2
Fore
SplineSet
33 140 m 1,0,-1
 78 140 l 2,1,2
 123 140 123 140 150.5 165.5 c 128,-1,3
 178 191 178 191 178 233 c 2,4,-1
 178 745 l 1,5,-1
 333 745 l 1,6,-1
 333 240 l 2,7,8
 333 168 333 168 301.5 114 c 128,-1,9
 270 60 270 60 212.5 30 c 128,-1,10
 155 0 155 0 78 0 c 2,11,-1
 33 0 l 1,12,-1
 33 140 l 1,0,-1
EndSplineSet
Validated: 1
Substitution2: "'ss03' Style Set 3 in Latin lookup 22 subtable" J.ss03
Substitution2: "'aalt' Access All Alternates in Latin lookup 0 subtable" J.ss03
Position2: "'cpsp' Capital Spacing in Latin lookup 0 subtable" dx=5 dy=0 dh=10 dv=0
EndChar

StartChar: J.ss03
Encoding: 65566 -1 127
Width: 625
GlyphClass: 2
Flags: W
AnchorPoint: "Anchor-6" 485 745 basechar 0
AnchorPoint: "Anchor-4" 331 0 basechar 0
LayerCount: 2
Fore
SplineSet
114.5 41.5 m 128,-1,1
 42 95 42 95 23 189 c 1,2,-1
 167 228 l 1,3,4
 180 180 180 180 213.5 154 c 128,-1,5
 247 128 247 128 295 128 c 0,6,7
 348 128 348 128 377.5 159 c 128,-1,8
 407 190 407 190 407 245 c 2,9,-1
 407 745 l 1,10,-1
 562 745 l 1,11,-1
 562 245 l 2,12,13
 562 171 562 171 530 112.5 c 128,-1,14
 498 54 498 54 437.5 21 c 128,-1,15
 377 -12 377 -12 294 -12 c 0,16,0
 187 -12 187 -12 114.5 41.5 c 128,-1,1
EndSplineSet
Validated: 1
Position2: "'cpsp' Capital Spacing in Latin lookup 0 subtable" dx=5 dy=0 dh=10 dv=0
EndChar

StartChar: K
Encoding: 75 75 130
Width: 687
GlyphClass: 2
Flags: W
AnchorPoint: "Anchor-6" 344 745 basechar 0
AnchorPoint: "Anchor-4" 344 0 basechar 0
LayerCount: 2
Fore
SplineSet
66 745 m 1,0,-1
 221 745 l 1,1,-1
 221 439 l 1,2,-1
 476 745 l 1,3,-1
 670 745 l 1,4,-1
 418 441 l 1,5,-1
 676 0 l 1,6,-1
 495 0 l 1,7,-1
 313 315 l 1,8,-1
 221 204 l 1,9,-1
 221 0 l 1,10,-1
 66 0 l 1,11,-1
 66 745 l 1,0,-1
EndSplineSet
Validated: 1
Substitution2: "'ss03' Style Set 3 in Latin lookup 22 subtable" K.ss03
Substitution2: "'ss01' Style Set 1 in Latin lookup 20 subtable" K.ss01
Substitution2: "'salt' Stylistic Alternatives in Latin lookup 19 subtable" K.ss01
AlternateSubs2: "'aalt' Access All Alternates in Latin lookup 1 subtable" K.ss01 K.ss03
Position2: "'cpsp' Capital Spacing in Latin lookup 0 subtable" dx=5 dy=0 dh=10 dv=0
EndChar

StartChar: K.ss01
Encoding: 65568 -1 131
Width: 671
GlyphClass: 2
Flags: W
AnchorPoint: "Anchor-6" 336 745 basechar 0
AnchorPoint: "Anchor-4" 336 0 basechar 0
LayerCount: 2
Fore
SplineSet
251 303 m 1,0,-1
 215 303 l 1,1,-1
 215 0 l 1,2,-1
 60 0 l 1,3,-1
 60 745 l 1,4,-1
 215 745 l 1,5,-1
 215 443 l 1,6,-1
 254 443 l 1,7,-1
 448 745 l 1,8,-1
 633 745 l 1,9,-1
 394 374 l 1,10,-1
 670 0 l 1,11,-1
 479 0 l 1,12,-1
 251 303 l 1,0,-1
EndSplineSet
Validated: 1
Position2: "'cpsp' Capital Spacing in Latin lookup 0 subtable" dx=5 dy=0 dh=10 dv=0
EndChar

StartChar: K.ss03
Encoding: 65569 -1 132
Width: 712
GlyphClass: 2
Flags: W
AnchorPoint: "Anchor-6" 356 745 basechar 0
AnchorPoint: "Anchor-4" 356 0 basechar 0
LayerCount: 2
Fore
SplineSet
555 6 m 128,-1,1
 514 18 514 18 478.5 53.5 c 128,-1,2
 443 89 443 89 402 160 c 2,3,-1
 313 315 l 1,4,-1
 221 204 l 1,5,-1
 221 0 l 1,6,-1
 66 0 l 1,7,-1
 66 745 l 1,8,-1
 221 745 l 1,9,-1
 221 439 l 1,10,-1
 476 745 l 1,11,-1
 670 745 l 1,12,-1
 418 441 l 1,13,-1
 549 215 l 2,14,15
 578 166 578 166 604 145 c 128,-1,16
 630 124 630 124 666 124 c 2,17,-1
 701 124 l 1,18,-1
 701 -6 l 1,19,-1
 659 -6 l 2,20,0
 596 -6 596 -6 555 6 c 128,-1,1
EndSplineSet
Validated: 1
Position2: "'cpsp' Capital Spacing in Latin lookup 0 subtable" dx=5 dy=0 dh=10 dv=0
EndChar

StartChar: L
Encoding: 76 76 136
Width: 547
GlyphClass: 2
Flags: W
AnchorPoint: "Anchor-7" 329 514 basechar 0
AnchorPoint: "Anchor-6" 144 745 basechar 0
AnchorPoint: "Anchor-4" 301 0 basechar 0
LayerCount: 2
Fore
SplineSet
66 745 m 1,0,-1
 221 745 l 1,1,-1
 221 135 l 1,2,-1
 536 135 l 1,3,-1
 536 0 l 1,4,-1
 66 0 l 1,5,-1
 66 745 l 1,0,-1
EndSplineSet
Validated: 1
Position2: "'cpsp' Capital Spacing in Latin lookup 0 subtable" dx=5 dy=0 dh=10 dv=0
EndChar

StartChar: Ldot
Encoding: 319 319 141
Width: 547
GlyphClass: 2
Flags: W
AnchorPoint: "Anchor-7" 329 514 basechar 0
AnchorPoint: "Anchor-6" 144 745 basechar 0
AnchorPoint: "Anchor-4" 301 0 basechar 0
LayerCount: 2
Fore
SplineSet
66 745 m 1,0,-1
 221 745 l 1,1,-1
 221 135 l 1,2,-1
 536 135 l 1,3,-1
 536 0 l 1,4,-1
 66 0 l 1,5,-1
 66 745 l 1,0,-1
324 426.5 m 128,-1,7
 347 449 347 449 379 449 c 256,8,9
 411 449 411 449 433.5 426.5 c 128,-1,10
 456 404 456 404 456 372 c 0,11,12
 456 339 456 339 433.5 316.5 c 128,-1,13
 411 294 411 294 379 294 c 256,14,15
 347 294 347 294 324 317 c 128,-1,16
 301 340 301 340 301 372 c 256,17,6
 301 404 301 404 324 426.5 c 128,-1,7
EndSplineSet
Validated: 1
Position2: "'cpsp' Capital Spacing in Latin lookup 0 subtable" dx=5 dy=0 dh=10 dv=0
EndChar

StartChar: Lslash
Encoding: 321 321 145
Width: 547
GlyphClass: 2
Flags: W
AnchorPoint: "Anchor-7" 329 514 basechar 0
AnchorPoint: "Anchor-6" 144 745 basechar 0
AnchorPoint: "Anchor-4" 301 0 basechar 0
LayerCount: 2
Fore
SplineSet
66 304 m 1,0,-1
 -31 276 l 1,1,-1
 -31 370 l 1,2,-1
 66 398 l 1,3,-1
 66 745 l 1,4,-1
 221 745 l 1,5,-1
 221 442 l 1,6,-1
 319 470 l 1,7,-1
 319 376 l 1,8,-1
 221 348 l 1,9,-1
 221 135 l 1,10,-1
 536 135 l 1,11,-1
 536 0 l 1,12,-1
 66 0 l 1,13,-1
 66 304 l 1,0,-1
EndSplineSet
Validated: 1
Position2: "'cpsp' Capital Spacing in Latin lookup 0 subtable" dx=5 dy=0 dh=10 dv=0
EndChar

StartChar: M
Encoding: 77 77 146
Width: 912
GlyphClass: 2
Flags: W
AnchorPoint: "Anchor-6" 456 745 basechar 0
AnchorPoint: "Anchor-4" 456 0 basechar 0
LayerCount: 2
Fore
SplineSet
66 745 m 1,0,-1
 216 745 l 1,1,-1
 459 422 l 1,2,-1
 696 745 l 1,3,-1
 846 745 l 1,4,-1
 846 0 l 1,5,-1
 691 0 l 1,6,-1
 691 480 l 1,7,-1
 466 190 l 1,8,-1
 446 190 l 1,9,-1
 221 491 l 1,10,-1
 221 0 l 1,11,-1
 66 0 l 1,12,-1
 66 745 l 1,0,-1
EndSplineSet
Validated: 1
Position2: "'cpsp' Capital Spacing in Latin lookup 0 subtable" dx=5 dy=0 dh=10 dv=0
EndChar

StartChar: N
Encoding: 78 78 148
Width: 742
GlyphClass: 2
Flags: W
AnchorPoint: "Anchor-6" 371 745 basechar 0
AnchorPoint: "Anchor-4" 371 0 basechar 0
LayerCount: 2
Fore
SplineSet
66 745 m 1,0,-1
 185 745 l 1,1,-1
 521 302 l 1,2,-1
 521 745 l 1,3,-1
 676 745 l 1,4,-1
 676 0 l 1,5,-1
 556 0 l 1,6,-1
 221 453 l 1,7,-1
 221 0 l 1,8,-1
 66 0 l 1,9,-1
 66 745 l 1,0,-1
EndSplineSet
Validated: 1
Position2: "'cpsp' Capital Spacing in Latin lookup 0 subtable" dx=5 dy=0 dh=10 dv=0
EndChar

StartChar: Eng
Encoding: 330 330 158
Width: 742
GlyphClass: 1
Flags: W
LayerCount: 2
Fore
SplineSet
406 -217 m 1,1,-1
 406 -89 l 1,2,3
 423 -92 423 -92 440 -92 c 0,4,5
 526 -92 526 -92 526 -20 c 2,6,-1
 526 41 l 1,7,-1
 221 453 l 1,8,-1
 221 0 l 1,9,-1
 66 0 l 1,10,-1
 66 745 l 1,11,-1
 185 745 l 1,12,-1
 521 302 l 1,13,-1
 521 745 l 1,14,-1
 676 745 l 1,15,-1
 676 -20 l 2,16,17
 676 -116 676 -116 619 -169 c 128,-1,18
 562 -222 562 -222 460 -222 c 0,19,0
 428 -222 428 -222 406 -217 c 1,1,-1
EndSplineSet
Validated: 1
Position2: "'cpsp' Capital Spacing in Latin lookup 0 subtable" dx=5 dy=0 dh=10 dv=0
EndChar

StartChar: O
Encoding: 79 79 159
Width: 878
GlyphClass: 2
Flags: W
AnchorPoint: "Anchor-7" 858 745 basechar 0
AnchorPoint: "Anchor-6" 439 745 basechar 0
AnchorPoint: "Anchor-5" 539 50 basechar 0
AnchorPoint: "Anchor-4" 439 0 basechar 0
LayerCount: 2
Fore
SplineSet
237.5 38.5 m 128,-1,1
 147 89 147 89 95.5 177 c 128,-1,2
 44 265 44 265 44 373 c 256,3,4
 44 481 44 481 95.5 569 c 128,-1,5
 147 657 147 657 237.5 707 c 128,-1,6
 328 757 328 757 439 757 c 256,7,8
 550 757 550 757 640.5 707 c 128,-1,9
 731 657 731 657 782.5 569 c 128,-1,10
 834 481 834 481 834 373 c 256,11,12
 834 265 834 265 782.5 177 c 128,-1,13
 731 89 731 89 640.5 38.5 c 128,-1,14
 550 -12 550 -12 439 -12 c 256,15,0
 328 -12 328 -12 237.5 38.5 c 128,-1,1
230.5 246.5 m 128,-1,17
 262 191 262 191 317 159.5 c 128,-1,18
 372 128 372 128 439 128 c 256,19,20
 506 128 506 128 561 159.5 c 128,-1,21
 616 191 616 191 647.5 246.5 c 128,-1,22
 679 302 679 302 679 373 c 256,23,24
 679 444 679 444 647.5 499.5 c 128,-1,25
 616 555 616 555 561.5 586 c 128,-1,26
 507 617 507 617 439 617 c 256,27,28
 371 617 371 617 316.5 586 c 128,-1,29
 262 555 262 555 230.5 499.5 c 128,-1,30
 199 444 199 444 199 373 c 256,31,16
 199 302 199 302 230.5 246.5 c 128,-1,17
EndSplineSet
Validated: 1
Substitution2: "Single Substitution lookup 28 subtable" ordmasculine
Substitution2: "'aalt' Access All Alternates in Latin lookup 0 subtable" ordmasculine
Position2: "'cpsp' Capital Spacing in Latin lookup 0 subtable" dx=5 dy=0 dh=10 dv=0
EndChar

StartChar: Ohorn
Encoding: 416 416 175
Width: 878
GlyphClass: 2
Flags: W
AnchorPoint: "Anchor-6" 439 745 basechar 0
AnchorPoint: "Anchor-4" 439 0 basechar 0
LayerCount: 2
Fore
SplineSet
237.5 38.5 m 128,-1,1
 147 89 147 89 95.5 177 c 128,-1,2
 44 265 44 265 44 373 c 256,3,4
 44 481 44 481 95.5 569 c 128,-1,5
 147 657 147 657 237.5 707 c 128,-1,6
 328 757 328 757 439 757 c 2,7,-1
 639 757 l 2,8,9
 658 757 658 757 672 765 c 128,-1,10
 686 773 686 773 686 806 c 0,11,12
 686 832 686 832 666 882 c 1,13,-1
 792 882 l 1,14,15
 804 857 804 857 809.5 837.5 c 128,-1,16
 815 818 815 818 815 793 c 0,17,18
 815 736 815 736 787 702.5 c 128,-1,19
 759 669 759 669 709 658 c 1,20,21
 768 605 768 605 801 532 c 128,-1,22
 834 459 834 459 834 373 c 0,23,24
 834 265 834 265 782.5 177 c 128,-1,25
 731 89 731 89 640.5 38.5 c 128,-1,26
 550 -12 550 -12 439 -12 c 256,27,0
 328 -12 328 -12 237.5 38.5 c 128,-1,1
230.5 246.5 m 128,-1,29
 262 191 262 191 317 159.5 c 128,-1,30
 372 128 372 128 439 128 c 256,31,32
 506 128 506 128 561 159.5 c 128,-1,33
 616 191 616 191 647.5 246.5 c 128,-1,34
 679 302 679 302 679 373 c 256,35,36
 679 444 679 444 647.5 499.5 c 128,-1,37
 616 555 616 555 561.5 586 c 128,-1,38
 507 617 507 617 439 617 c 256,39,40
 371 617 371 617 316.5 586 c 128,-1,41
 262 555 262 555 230.5 499.5 c 128,-1,42
 199 444 199 444 199 373 c 256,43,28
 199 302 199 302 230.5 246.5 c 128,-1,29
EndSplineSet
Validated: 1
Position2: "'cpsp' Capital Spacing in Latin lookup 0 subtable" dx=5 dy=0 dh=10 dv=0
EndChar

StartChar: uni01EA
Encoding: 490 490 186
Width: 878
GlyphClass: 2
Flags: W
AnchorPoint: "Anchor-7" 858 745 basechar 0
AnchorPoint: "Anchor-6" 439 745 basechar 0
AnchorPoint: "Anchor-5" 539 50 basechar 0
AnchorPoint: "Anchor-4" 439 0 basechar 0
LayerCount: 2
Fore
SplineSet
561 159.5 m 128,-1,1
 616 191 616 191 647.5 246.5 c 128,-1,2
 679 302 679 302 679 373 c 256,3,4
 679 444 679 444 647.5 499.5 c 128,-1,5
 616 555 616 555 561.5 586 c 128,-1,6
 507 617 507 617 439 617 c 256,7,8
 371 617 371 617 316.5 586 c 128,-1,9
 262 555 262 555 230.5 499.5 c 128,-1,10
 199 444 199 444 199 373 c 256,11,12
 199 302 199 302 230.5 246.5 c 128,-1,13
 262 191 262 191 317 159.5 c 128,-1,14
 372 128 372 128 439 128 c 256,15,0
 506 128 506 128 561 159.5 c 128,-1,1
95.5 569 m 128,-1,17
 147 657 147 657 237.5 707 c 128,-1,18
 328 757 328 757 439 757 c 256,19,20
 550 757 550 757 640.5 707 c 128,-1,21
 731 657 731 657 782.5 569 c 128,-1,22
 834 481 834 481 834 373 c 0,23,24
 834 276 834 276 792 195 c 128,-1,25
 750 114 750 114 676 61 c 128,-1,26
 602 8 602 8 507 -7 c 1,27,28
 460 -28 460 -28 460 -62 c 0,29,30
 460 -82 460 -82 476.5 -95 c 128,-1,31
 493 -108 493 -108 523 -108 c 0,32,33
 567 -108 567 -108 616 -79 c 1,34,-1
 661 -158 l 1,35,36
 591 -213 591 -213 507 -213 c 0,37,38
 437 -213 437 -213 391 -181 c 128,-1,39
 345 -149 345 -149 345 -93 c 0,40,41
 345 -45 345 -45 380 -8 c 1,42,43
 283 5 283 5 206.5 57.5 c 128,-1,44
 130 110 130 110 87 192.5 c 128,-1,45
 44 275 44 275 44 373 c 0,46,16
 44 481 44 481 95.5 569 c 128,-1,17
EndSplineSet
Validated: 1
Position2: "'cpsp' Capital Spacing in Latin lookup 0 subtable" dx=5 dy=0 dh=10 dv=0
EndChar

StartChar: Oslash
Encoding: 216 216 187
Width: 878
GlyphClass: 2
Flags: W
AnchorPoint: "Anchor-7" 858 745 basechar 0
AnchorPoint: "Anchor-6" 439 745 basechar 0
AnchorPoint: "Anchor-5" 539 50 basechar 0
AnchorPoint: "Anchor-4" 439 0 basechar 0
LayerCount: 2
Fore
SplineSet
243 36 m 1,1,-1
 214 0 l 1,2,-1
 52 0 l 1,3,-1
 144 112 l 1,4,5
 96 164 96 164 70 230.5 c 128,-1,6
 44 297 44 297 44 373 c 0,7,8
 44 481 44 481 95.5 569 c 128,-1,9
 147 657 147 657 237.5 707 c 128,-1,10
 328 757 328 757 439 757 c 0,11,12
 546 757 546 757 635 710 c 1,13,-1
 664 745 l 1,14,-1
 826 745 l 1,15,-1
 734 634 l 1,16,17
 782 582 782 582 808 515 c 128,-1,18
 834 448 834 448 834 373 c 0,19,20
 834 265 834 265 782.5 177 c 128,-1,21
 731 89 731 89 640.5 38.5 c 128,-1,22
 550 -12 550 -12 439 -12 c 0,23,0
 331 -12 331 -12 243 36 c 1,1,-1
241 230 m 1,25,-1
 542 596 l 1,26,27
 496 617 496 617 439 617 c 0,28,29
 371 617 371 617 316.5 586 c 128,-1,30
 262 555 262 555 230.5 499.5 c 128,-1,31
 199 444 199 444 199 373 c 0,32,24
 199 291 199 291 241 230 c 1,25,-1
439 128 m 0,34,35
 506 128 506 128 561 159.5 c 128,-1,36
 616 191 616 191 647.5 246.5 c 128,-1,37
 679 302 679 302 679 373 c 0,38,39
 679 455 679 455 638 516 c 1,40,-1
 337 149 l 1,41,33
 382 128 382 128 439 128 c 0,34,35
EndSplineSet
Validated: 1
Position2: "'cpsp' Capital Spacing in Latin lookup 0 subtable" dx=5 dy=0 dh=10 dv=0
EndChar

StartChar: OE
Encoding: 338 338 193
Width: 1207
GlyphClass: 1
Flags: W
LayerCount: 2
Fore
SplineSet
237.5 38.5 m 128,-1,1
 147 89 147 89 95.5 177 c 128,-1,2
 44 265 44 265 44 373 c 256,3,4
 44 481 44 481 95.5 569 c 128,-1,5
 147 657 147 657 237.5 707 c 128,-1,6
 328 757 328 757 439 757 c 0,7,8
 510 757 510 757 572.5 735.5 c 128,-1,9
 635 714 635 714 684 673 c 1,10,-1
 684 745 l 1,11,-1
 1185 745 l 1,12,-1
 1185 610 l 1,13,-1
 839 610 l 1,14,-1
 839 441 l 1,15,-1
 1165 441 l 1,16,-1
 1165 306 l 1,17,-1
 839 306 l 1,18,-1
 839 135 l 1,19,-1
 1185 135 l 1,20,-1
 1184 0 l 1,21,-1
 684 0 l 1,22,-1
 684 74 l 1,23,24
 635 32 635 32 572.5 10 c 128,-1,25
 510 -12 510 -12 439 -12 c 0,26,0
 328 -12 328 -12 237.5 38.5 c 128,-1,1
230.5 246.5 m 128,-1,28
 262 191 262 191 317 159.5 c 128,-1,29
 372 128 372 128 439 128 c 256,30,31
 506 128 506 128 561 159.5 c 128,-1,32
 616 191 616 191 647.5 246.5 c 128,-1,33
 679 302 679 302 679 373 c 256,34,35
 679 444 679 444 647.5 499.5 c 128,-1,36
 616 555 616 555 561.5 586 c 128,-1,37
 507 617 507 617 439 617 c 256,38,39
 371 617 371 617 316.5 586 c 128,-1,40
 262 555 262 555 230.5 499.5 c 128,-1,41
 199 444 199 444 199 373 c 256,42,27
 199 302 199 302 230.5 246.5 c 128,-1,28
EndSplineSet
Validated: 1
Position2: "'cpsp' Capital Spacing in Latin lookup 0 subtable" dx=5 dy=0 dh=10 dv=0
EndChar

StartChar: P
Encoding: 80 80 194
Width: 649
GlyphClass: 2
Flags: W
AnchorPoint: "Anchor-6" 325 745 basechar 0
AnchorPoint: "Anchor-4" 325 0 basechar 0
LayerCount: 2
Fore
SplineSet
66 745 m 1,0,-1
 352 745 l 2,1,2
 471 745 471 745 543.5 683 c 128,-1,3
 616 621 616 621 616 507 c 0,4,5
 616 432 616 432 582 378.5 c 128,-1,6
 548 325 548 325 488.5 297.5 c 128,-1,7
 429 270 429 270 352 270 c 2,8,-1
 221 270 l 1,9,-1
 221 0 l 1,10,-1
 66 0 l 1,11,-1
 66 745 l 1,0,-1
353 405 m 2,12,13
 402 405 402 405 431.5 433 c 128,-1,14
 461 461 461 461 461 507 c 256,15,16
 461 553 461 553 431.5 581.5 c 128,-1,17
 402 610 402 610 353 610 c 2,18,-1
 221 610 l 1,19,-1
 221 405 l 1,20,-1
 353 405 l 2,12,13
EndSplineSet
Validated: 1
Position2: "'cpsp' Capital Spacing in Latin lookup 0 subtable" dx=5 dy=0 dh=10 dv=0
EndChar

StartChar: Thorn
Encoding: 222 222 195
Width: 655
GlyphClass: 1
Flags: W
LayerCount: 2
Fore
SplineSet
60 745 m 1,0,-1
 215 745 l 1,1,-1
 215 610 l 1,2,-1
 346 610 l 2,3,4
 465 610 465 610 537.5 548 c 128,-1,5
 610 486 610 486 610 372 c 0,6,7
 610 297 610 297 576 243.5 c 128,-1,8
 542 190 542 190 482.5 162.5 c 128,-1,9
 423 135 423 135 346 135 c 2,10,-1
 215 135 l 1,11,-1
 215 0 l 1,12,-1
 60 0 l 1,13,-1
 60 745 l 1,0,-1
347 270 m 2,14,15
 396 270 396 270 425.5 298 c 128,-1,16
 455 326 455 326 455 372 c 256,17,18
 455 418 455 418 425.5 446.5 c 128,-1,19
 396 475 396 475 347 475 c 2,20,-1
 215 475 l 1,21,-1
 215 270 l 1,22,-1
 347 270 l 2,14,15
EndSplineSet
Validated: 1
Position2: "'cpsp' Capital Spacing in Latin lookup 0 subtable" dx=5 dy=0 dh=10 dv=0
EndChar

StartChar: Q
Encoding: 81 81 196
Width: 878
GlyphClass: 2
Flags: W
AnchorPoint: "Anchor-6" 439 745 basechar 0
AnchorPoint: "Anchor-4" 439 0 basechar 0
LayerCount: 2
Fore
SplineSet
250 36.5 m 128,-1,1
 154 86 154 86 99 174 c 128,-1,2
 44 262 44 262 44 373 c 0,3,4
 44 481 44 481 95.5 569 c 128,-1,5
 147 657 147 657 237.5 707 c 128,-1,6
 328 757 328 757 439 757 c 256,7,8
 550 757 550 757 640.5 707 c 128,-1,9
 731 657 731 657 782.5 569 c 128,-1,10
 834 481 834 481 834 373 c 0,11,12
 834 301 834 301 812 235.5 c 128,-1,13
 790 170 790 170 748 119 c 1,14,-1
 831 27 l 1,15,-1
 721 -67 l 1,16,-1
 636 27 l 1,17,18
 556 -13 556 -13 463 -13 c 0,19,0
 346 -13 346 -13 250 36.5 c 128,-1,1
230.5 246.5 m 128,-1,21
 262 191 262 191 317 159.5 c 128,-1,22
 372 128 372 128 439 128 c 0,23,24
 485 128 485 128 530 144 c 1,25,-1
 406 281 l 1,26,-1
 517 374 l 1,27,-1
 642 236 l 1,28,29
 679 297 679 297 679 373 c 0,30,31
 679 444 679 444 647.5 499.5 c 128,-1,32
 616 555 616 555 561.5 586 c 128,-1,33
 507 617 507 617 439 617 c 256,34,35
 371 617 371 617 316.5 586 c 128,-1,36
 262 555 262 555 230.5 499.5 c 128,-1,37
 199 444 199 444 199 373 c 256,38,20
 199 302 199 302 230.5 246.5 c 128,-1,21
EndSplineSet
Validated: 1
Substitution2: "'ss03' Style Set 3 in Latin lookup 22 subtable" Q.ss03
Substitution2: "'aalt' Access All Alternates in Latin lookup 0 subtable" Q.ss03
Position2: "'cpsp' Capital Spacing in Latin lookup 0 subtable" dx=5 dy=0 dh=10 dv=0
EndChar

StartChar: Q.ss03
Encoding: 65572 -1 197
Width: 878
GlyphClass: 1
Flags: W
LayerCount: 2
Fore
SplineSet
561 159.5 m 128,-1,1
 616 191 616 191 647.5 246.5 c 128,-1,2
 679 302 679 302 679 373 c 256,3,4
 679 444 679 444 647.5 499.5 c 128,-1,5
 616 555 616 555 561.5 586 c 128,-1,6
 507 617 507 617 439 617 c 256,7,8
 371 617 371 617 316.5 586 c 128,-1,9
 262 555 262 555 230.5 499.5 c 128,-1,10
 199 444 199 444 199 373 c 256,11,12
 199 302 199 302 230.5 246.5 c 128,-1,13
 262 191 262 191 317 159.5 c 128,-1,14
 372 128 372 128 439 128 c 256,15,0
 506 128 506 128 561 159.5 c 128,-1,1
95.5 569 m 128,-1,17
 147 657 147 657 237.5 707 c 128,-1,18
 328 757 328 757 439 757 c 256,19,20
 550 757 550 757 640.5 707 c 128,-1,21
 731 657 731 657 782.5 569 c 128,-1,22
 834 481 834 481 834 373 c 0,23,24
 834 277 834 277 793 197 c 128,-1,25
 752 117 752 117 679.5 64 c 128,-1,26
 607 11 607 11 515 -5 c 1,27,-1
 515 -10 l 2,28,29
 515 -32 515 -32 531 -41 c 128,-1,30
 547 -50 547 -50 581 -50 c 2,31,-1
 754 -50 l 1,32,-1
 754 -180 l 1,33,-1
 558 -180 l 2,34,35
 458 -180 458 -180 411.5 -141.5 c 128,-1,36
 365 -103 365 -103 365 -19 c 2,37,-1
 365 -6 l 1,38,39
 272 10 272 10 199 63 c 128,-1,40
 126 116 126 116 85 196.5 c 128,-1,41
 44 277 44 277 44 373 c 0,42,16
 44 481 44 481 95.5 569 c 128,-1,17
EndSplineSet
Validated: 1
Position2: "'cpsp' Capital Spacing in Latin lookup 0 subtable" dx=5 dy=0 dh=10 dv=0
EndChar

StartChar: R
Encoding: 82 82 198
Width: 667
GlyphClass: 2
Flags: W
AnchorPoint: "Anchor-6" 334 745 basechar 0
AnchorPoint: "Anchor-4" 334 0 basechar 0
LayerCount: 2
Fore
SplineSet
66 745 m 1,0,-1
 351 745 l 2,1,2
 470 745 470 745 542.5 683 c 128,-1,3
 615 621 615 621 615 507 c 0,4,5
 615 432 615 432 581 378.5 c 128,-1,6
 547 325 547 325 486 297 c 1,7,-1
 656 0 l 1,8,-1
 482 0 l 1,9,-1
 331 270 l 1,10,-1
 221 270 l 1,11,-1
 221 0 l 1,12,-1
 66 0 l 1,13,-1
 66 745 l 1,0,-1
352 405 m 2,14,15
 401 405 401 405 430.5 433 c 128,-1,16
 460 461 460 461 460 507 c 256,17,18
 460 553 460 553 430.5 581.5 c 128,-1,19
 401 610 401 610 352 610 c 2,20,-1
 221 610 l 1,21,-1
 221 405 l 1,22,-1
 352 405 l 2,14,15
EndSplineSet
Validated: 1
Substitution2: "'ss03' Style Set 3 in Latin lookup 22 subtable" R.ss03
Substitution2: "'aalt' Access All Alternates in Latin lookup 0 subtable" R.ss03
Position2: "'cpsp' Capital Spacing in Latin lookup 0 subtable" dx=5 dy=0 dh=10 dv=0
EndChar

StartChar: R.ss03
Encoding: 65573 -1 199
Width: 670
GlyphClass: 2
Flags: W
AnchorPoint: "Anchor-6" 324 745 basechar 0
AnchorPoint: "Anchor-4" 324 0 basechar 0
LayerCount: 2
Fore
SplineSet
66 745 m 1,0,-1
 352 745 l 2,1,2
 471 745 471 745 543.5 683 c 128,-1,3
 616 621 616 621 616 507 c 0,4,5
 616 411 616 411 559 348 c 1,6,7
 615 310 615 310 615 220 c 0,8,9
 615 80 615 80 626 0 c 1,10,-1
 471 0 l 1,11,12
 460 77 460 77 460 209 c 0,13,14
 460 239 460 239 443 254.5 c 128,-1,15
 426 270 426 270 394 270 c 2,16,-1
 221 270 l 1,17,-1
 221 0 l 1,18,-1
 66 0 l 1,19,-1
 66 745 l 1,0,-1
353 405 m 2,20,21
 402 405 402 405 431.5 433 c 128,-1,22
 461 461 461 461 461 507 c 256,23,24
 461 553 461 553 431.5 581.5 c 128,-1,25
 402 610 402 610 353 610 c 2,26,-1
 221 610 l 1,27,-1
 221 405 l 1,28,-1
 353 405 l 2,20,21
EndSplineSet
Validated: 1
Position2: "'cpsp' Capital Spacing in Latin lookup 0 subtable" dx=5 dy=0 dh=10 dv=0
EndChar

StartChar: S
Encoding: 83 83 214
Width: 647
GlyphClass: 2
Flags: W
AnchorPoint: "Anchor-6" 324 745 basechar 0
AnchorPoint: "Anchor-4" 324 0 basechar 0
LayerCount: 2
Fore
SplineSet
177 23 m 128,-1,1
 111 58 111 58 76 110.5 c 128,-1,2
 41 163 41 163 33 217 c 1,3,-1
 180 254 l 1,4,5
 206 133 206 133 340 133 c 0,6,7
 387 133 387 133 414.5 154 c 128,-1,8
 442 175 442 175 442 209 c 0,9,10
 442 238 442 238 421.5 258 c 128,-1,11
 401 278 401 278 365 285 c 2,12,-1
 261 304 l 2,13,14
 167 321 167 321 113.5 381 c 128,-1,15
 60 441 60 441 60 532 c 0,16,17
 60 593 60 593 96.5 645 c 128,-1,18
 133 697 133 697 192.5 727 c 128,-1,19
 252 757 252 757 318 757 c 0,20,21
 407 757 407 757 466.5 727.5 c 128,-1,22
 526 698 526 698 557 654.5 c 128,-1,23
 588 611 588 611 597 565 c 1,24,-1
 451 521 l 1,25,26
 430 573 430 573 401 592.5 c 128,-1,27
 372 612 372 612 318 612 c 0,28,29
 290 612 290 612 268.5 600.5 c 128,-1,30
 247 589 247 589 235 571.5 c 128,-1,31
 223 554 223 554 223 536 c 0,32,33
 223 507 223 507 241 488 c 128,-1,34
 259 469 259 469 294 462 c 2,35,-1
 397 441 l 2,36,37
 498 420 498 420 553 360 c 128,-1,38
 608 300 608 300 608 217 c 0,39,40
 608 160 608 160 575.5 107 c 128,-1,41
 543 54 543 54 481.5 21 c 128,-1,42
 420 -12 420 -12 337 -12 c 0,43,0
 243 -12 243 -12 177 23 c 128,-1,1
EndSplineSet
Validated: 1
Position2: "'cpsp' Capital Spacing in Latin lookup 0 subtable" dx=5 dy=0 dh=10 dv=0
EndChar

StartChar: Scedilla
Encoding: 350 350 219
Width: 647
GlyphClass: 2
Flags: W
AnchorPoint: "Anchor-4" 324 0 basechar 0
LayerCount: 2
Fore
SplineSet
225 -251 m 1,1,-1
 238 -175 l 1,2,3
 262 -183 262 -183 300 -183 c 0,4,5
 325 -183 325 -183 338.5 -175 c 128,-1,6
 352 -167 352 -167 352 -152 c 0,7,8
 352 -125 352 -125 320 -125 c 0,9,10
 298 -125 298 -125 282 -129 c 1,11,-1
 258 -117 l 1,12,-1
 273 -7 l 1,13,14
 199 4 199 4 147.5 40 c 128,-1,15
 96 76 96 76 68 122.5 c 128,-1,16
 40 169 40 169 33 217 c 1,17,-1
 180 254 l 1,18,19
 206 133 206 133 340 133 c 0,20,21
 387 133 387 133 414.5 154 c 128,-1,22
 442 175 442 175 442 209 c 0,23,24
 442 238 442 238 421.5 258 c 128,-1,25
 401 278 401 278 365 285 c 2,26,-1
 261 304 l 2,27,28
 167 321 167 321 113.5 381 c 128,-1,29
 60 441 60 441 60 532 c 0,30,31
 60 593 60 593 96.5 645 c 128,-1,32
 133 697 133 697 192.5 727 c 128,-1,33
 252 757 252 757 318 757 c 0,34,35
 407 757 407 757 466.5 727.5 c 128,-1,36
 526 698 526 698 557 654.5 c 128,-1,37
 588 611 588 611 597 565 c 1,38,-1
 451 521 l 1,39,40
 430 573 430 573 401 592.5 c 128,-1,41
 372 612 372 612 318 612 c 0,42,43
 290 612 290 612 268.5 600.5 c 128,-1,44
 247 589 247 589 235 571.5 c 128,-1,45
 223 554 223 554 223 536 c 0,46,47
 223 507 223 507 241 488 c 128,-1,48
 259 469 259 469 294 462 c 2,49,-1
 397 441 l 2,50,51
 498 420 498 420 553 360 c 128,-1,52
 608 300 608 300 608 217 c 0,53,54
 608 164 608 164 580 114.5 c 128,-1,55
 552 65 552 65 498.5 31 c 128,-1,56
 445 -3 445 -3 372 -10 c 1,57,-1
 368 -62 l 1,58,-1
 381 -61 l 2,59,60
 422 -61 422 -61 447.5 -85 c 128,-1,61
 473 -109 473 -109 473 -149 c 0,62,63
 473 -198 473 -198 432 -229.5 c 128,-1,64
 391 -261 391 -261 313 -261 c 0,65,0
 261 -261 261 -261 225 -251 c 1,1,-1
EndSplineSet
Validated: 1
Substitution2: "'locl' Localized Forms in Latin lookup 6 subtable" uni0218
Substitution2: "'aalt' Access All Alternates in Latin lookup 0 subtable" uni0218
Position2: "'cpsp' Capital Spacing in Latin lookup 0 subtable" dx=5 dy=0 dh=10 dv=0
EndChar

StartChar: uni018F
Encoding: 399 399 226
Width: 808
GlyphClass: 1
Flags: W
LayerCount: 2
Fore
SplineSet
213.5 33.5 m 128,-1,1
 134 79 134 79 89 160.5 c 128,-1,2
 44 242 44 242 44 347 c 0,3,4
 44 386 44 386 51 417 c 1,5,-1
 607 417 l 1,6,7
 597 507 597 507 536 562 c 128,-1,8
 475 617 475 617 383 617 c 0,9,10
 322 617 322 617 275 591.5 c 128,-1,11
 228 566 228 566 201 518 c 1,12,-1
 74 579 l 1,13,14
 109 660 109 660 193.5 708.5 c 128,-1,15
 278 757 278 757 385 757 c 0,16,17
 495 757 495 757 581.5 705.5 c 128,-1,18
 668 654 668 654 716 565.5 c 128,-1,19
 764 477 764 477 764 370 c 0,20,21
 764 262 764 262 716 175 c 128,-1,22
 668 88 668 88 583.5 38 c 128,-1,23
 499 -12 499 -12 394 -12 c 0,24,0
 293 -12 293 -12 213.5 33.5 c 128,-1,1
269 175.5 m 128,-1,26
 321 128 321 128 399 128 c 0,27,28
 476 128 476 128 531.5 173 c 128,-1,29
 587 218 587 218 603 297 c 1,30,-1
 212 297 l 1,31,25
 217 223 217 223 269 175.5 c 128,-1,26
EndSplineSet
Validated: 1
Position2: "'cpsp' Capital Spacing in Latin lookup 0 subtable" dx=5 dy=0 dh=10 dv=0
EndChar

StartChar: T
Encoding: 84 84 227
Width: 552
GlyphClass: 2
Flags: W
AnchorPoint: "Anchor-6" 276 745 basechar 0
AnchorPoint: "Anchor-4" 276 0 basechar 0
LayerCount: 2
Fore
SplineSet
200 610 m 1,0,-1
 11 610 l 1,1,-1
 11 745 l 1,2,-1
 541 745 l 1,3,-1
 541 610 l 1,4,-1
 355 610 l 1,5,-1
 355 0 l 1,6,-1
 200 0 l 1,7,-1
 200 610 l 1,0,-1
EndSplineSet
Validated: 1
Position2: "'cpsp' Capital Spacing in Latin lookup 0 subtable" dx=5 dy=0 dh=10 dv=0
EndChar

StartChar: Tbar
Encoding: 358 358 228
Width: 552
GlyphClass: 2
Flags: W
AnchorPoint: "Anchor-6" 276 745 basechar 0
AnchorPoint: "Anchor-4" 276 0 basechar 0
LayerCount: 2
Fore
SplineSet
200 328 m 1,0,-1
 51 328 l 1,1,-1
 51 418 l 1,2,-1
 200 418 l 1,3,-1
 200 610 l 1,4,-1
 11 610 l 1,5,-1
 11 745 l 1,6,-1
 541 745 l 1,7,-1
 541 610 l 1,8,-1
 355 610 l 1,9,-1
 355 418 l 1,10,-1
 501 418 l 1,11,-1
 501 328 l 1,12,-1
 355 328 l 1,13,-1
 355 0 l 1,14,-1
 200 0 l 1,15,-1
 200 328 l 1,0,-1
EndSplineSet
Validated: 1
Position2: "'cpsp' Capital Spacing in Latin lookup 0 subtable" dx=5 dy=0 dh=10 dv=0
EndChar

StartChar: U
Encoding: 85 85 234
Width: 724
GlyphClass: 2
Flags: W
AnchorPoint: "Anchor-6" 362 745 basechar 0
AnchorPoint: "Anchor-5" 412 50 basechar 0
AnchorPoint: "Anchor-4" 362 0 basechar 0
LayerCount: 2
Fore
SplineSet
205.5 25 m 128,-1,1
 136 62 136 62 96.5 127 c 128,-1,2
 57 192 57 192 57 273 c 2,3,-1
 57 745 l 1,4,-1
 212 745 l 1,5,-1
 212 283 l 2,6,7
 212 216 212 216 254.5 172 c 128,-1,8
 297 128 297 128 362 128 c 256,9,10
 427 128 427 128 469.5 172 c 128,-1,11
 512 216 512 216 512 283 c 2,12,-1
 512 745 l 1,13,-1
 667 745 l 1,14,-1
 667 273 l 2,15,16
 667 192 667 192 627.5 127 c 128,-1,17
 588 62 588 62 518.5 25 c 128,-1,18
 449 -12 449 -12 362 -12 c 256,19,0
 275 -12 275 -12 205.5 25 c 128,-1,1
EndSplineSet
Validated: 1
Substitution2: "'ss01' Style Set 1 in Latin lookup 20 subtable" U.ss01
Substitution2: "'salt' Stylistic Alternatives in Latin lookup 19 subtable" U.ss01
Substitution2: "'aalt' Access All Alternates in Latin lookup 0 subtable" U.ss01
Position2: "'cpsp' Capital Spacing in Latin lookup 0 subtable" dx=5 dy=0 dh=10 dv=0
EndChar

StartChar: U.ss01
Encoding: 65581 -1 235
Width: 742
GlyphClass: 2
Flags: W
AnchorPoint: "Anchor-6" 371 745 basechar 0
AnchorPoint: "Anchor-5" 451 50 basechar 0
AnchorPoint: "Anchor-4" 371 0 basechar 0
LayerCount: 2
Fore
SplineSet
66 745 m 1,0,-1
 221 745 l 1,1,-1
 221 135 l 1,2,-1
 521 135 l 1,3,-1
 521 745 l 1,4,-1
 676 745 l 1,5,-1
 676 0 l 1,6,-1
 66 0 l 1,7,-1
 66 745 l 1,0,-1
EndSplineSet
Validated: 1
Position2: "'cpsp' Capital Spacing in Latin lookup 0 subtable" dx=5 dy=0 dh=10 dv=0
EndChar

StartChar: Uhorn
Encoding: 431 431 252
Width: 724
GlyphClass: 2
Flags: W
AnchorPoint: "Anchor-6" 362 745 basechar 0
AnchorPoint: "Anchor-5" 652 10 basechar 0
AnchorPoint: "Anchor-4" 362 0 basechar 0
LayerCount: 2
Fore
SplineSet
205.5 25 m 128,-1,1
 136 62 136 62 96.5 127 c 128,-1,2
 57 192 57 192 57 273 c 2,3,-1
 57 745 l 1,4,-1
 212 745 l 1,5,-1
 212 283 l 2,6,7
 212 216 212 216 254.5 172 c 128,-1,8
 297 128 297 128 362 128 c 256,9,10
 427 128 427 128 469.5 172 c 128,-1,11
 512 216 512 216 512 283 c 2,12,-1
 512 745 l 1,13,-1
 648 745 l 2,14,15
 688 745 688 745 688 794 c 0,16,17
 688 820 688 820 668 870 c 1,18,-1
 794 870 l 1,19,20
 806 845 806 845 811.5 825.5 c 128,-1,21
 817 806 817 806 817 781 c 0,22,23
 817 712 817 712 776.5 677.5 c 128,-1,24
 736 643 736 643 667 642 c 1,25,-1
 667 273 l 2,26,27
 667 192 667 192 627.5 127 c 128,-1,28
 588 62 588 62 518.5 25 c 128,-1,29
 449 -12 449 -12 362 -12 c 256,30,0
 275 -12 275 -12 205.5 25 c 128,-1,1
EndSplineSet
Validated: 1
Substitution2: "'ss01' Style Set 1 in Latin lookup 20 subtable" Uhorn.ss01
Substitution2: "'salt' Stylistic Alternatives in Latin lookup 19 subtable" Uhorn.ss01
Substitution2: "'aalt' Access All Alternates in Latin lookup 0 subtable" Uhorn.ss01
Position2: "'cpsp' Capital Spacing in Latin lookup 0 subtable" dx=5 dy=0 dh=10 dv=0
EndChar

StartChar: Uhorn.ss01
Encoding: 65590 -1 253
Width: 733
GlyphClass: 2
Flags: W
AnchorPoint: "Anchor-6" 371 745 basechar 0
AnchorPoint: "Anchor-4" 371 0 basechar 0
LayerCount: 2
Fore
SplineSet
66 745 m 1,0,-1
 221 745 l 1,1,-1
 221 135 l 1,2,-1
 521 135 l 1,3,-1
 521 745 l 1,4,-1
 657 745 l 2,5,6
 697 745 697 745 697 794 c 0,7,8
 697 820 697 820 677 870 c 1,9,-1
 803 870 l 1,10,11
 815 845 815 845 820.5 825.5 c 128,-1,12
 826 806 826 806 826 781 c 0,13,14
 826 712 826 712 785.5 677.5 c 128,-1,15
 745 643 745 643 676 642 c 1,16,-1
 676 0 l 1,17,-1
 66 0 l 1,18,-1
 66 745 l 1,0,-1
EndSplineSet
Validated: 1
Position2: "'cpsp' Capital Spacing in Latin lookup 0 subtable" dx=5 dy=0 dh=10 dv=0
EndChar

StartChar: Uogonek
Encoding: 370 370 272
Width: 724
GlyphClass: 2
Flags: W
AnchorPoint: "Anchor-6" 362 745 basechar 0
AnchorPoint: "Anchor-5" 412 50 basechar 0
AnchorPoint: "Anchor-4" 362 0 basechar 0
LayerCount: 2
Fore
SplineSet
264 -181 m 128,-1,1
 218 -149 218 -149 218 -93 c 0,2,3
 218 -38 218 -38 263 2 c 1,4,5
 170 29 170 29 113.5 102.5 c 128,-1,6
 57 176 57 176 57 273 c 2,7,-1
 57 745 l 1,8,-1
 212 745 l 1,9,-1
 212 283 l 2,10,11
 212 216 212 216 254.5 172 c 128,-1,12
 297 128 297 128 362 128 c 256,13,14
 427 128 427 128 469.5 172 c 128,-1,15
 512 216 512 216 512 283 c 2,16,-1
 512 745 l 1,17,-1
 667 745 l 1,18,-1
 667 273 l 2,19,20
 667 194 667 194 628.5 129.5 c 128,-1,21
 590 65 590 65 522.5 27.5 c 128,-1,22
 455 -10 455 -10 370 -12 c 1,23,24
 333 -33 333 -33 333 -62 c 0,25,26
 333 -82 333 -82 349.5 -95 c 128,-1,27
 366 -108 366 -108 396 -108 c 0,28,29
 440 -108 440 -108 489 -79 c 1,30,-1
 534 -158 l 1,31,32
 464 -213 464 -213 380 -213 c 0,33,0
 310 -213 310 -213 264 -181 c 128,-1,1
EndSplineSet
Validated: 1
Substitution2: "'ss01' Style Set 1 in Latin lookup 20 subtable" Uogonek.ss01
Substitution2: "'salt' Stylistic Alternatives in Latin lookup 19 subtable" Uogonek.ss01
Substitution2: "'aalt' Access All Alternates in Latin lookup 0 subtable" Uogonek.ss01
Position2: "'cpsp' Capital Spacing in Latin lookup 0 subtable" dx=5 dy=0 dh=10 dv=0
EndChar

StartChar: Uogonek.ss01
Encoding: 65600 -1 273
Width: 742
GlyphClass: 2
Flags: W
AnchorPoint: "Anchor-6" 371 745 basechar 0
AnchorPoint: "Anchor-5" 451 50 basechar 0
AnchorPoint: "Anchor-4" 371 0 basechar 0
LayerCount: 2
Fore
SplineSet
66 745 m 1,0,-1
 221 745 l 1,1,-1
 221 135 l 1,2,-1
 521 135 l 1,3,-1
 521 745 l 1,4,-1
 676 745 l 1,5,-1
 676 0 l 1,6,-1
 436 0 l 1,7,8
 372 -23 372 -23 372 -62 c 0,9,10
 372 -82 372 -82 388.5 -95 c 128,-1,11
 405 -108 405 -108 435 -108 c 0,12,13
 479 -108 479 -108 528 -79 c 1,14,-1
 573 -158 l 1,15,16
 503 -213 503 -213 419 -213 c 0,17,18
 349 -213 349 -213 303 -181 c 128,-1,19
 257 -149 257 -149 257 -93 c 0,20,21
 257 -38 257 -38 300 0 c 1,22,-1
 66 0 l 1,23,-1
 66 745 l 1,0,-1
EndSplineSet
Validated: 1
Position2: "'cpsp' Capital Spacing in Latin lookup 0 subtable" dx=5 dy=0 dh=10 dv=0
EndChar

StartChar: V
Encoding: 86 86 280
Width: 712
GlyphClass: 2
Flags: W
AnchorPoint: "Anchor-6" 356 745 basechar 0
AnchorPoint: "Anchor-4" 356 0 basechar 0
LayerCount: 2
Fore
SplineSet
11 745 m 1,0,-1
 181 745 l 1,1,-1
 356 200 l 1,2,-1
 531 745 l 1,3,-1
 701 745 l 1,4,-1
 446 0 l 1,5,-1
 266 0 l 1,6,-1
 11 745 l 1,0,-1
EndSplineSet
Validated: 1
Position2: "'cpsp' Capital Spacing in Latin lookup 0 subtable" dx=5 dy=0 dh=10 dv=0
EndChar

StartChar: W
Encoding: 87 87 281
Width: 1032
GlyphClass: 2
Flags: W
AnchorPoint: "Anchor-6" 516 745 basechar 0
AnchorPoint: "Anchor-4" 516 0 basechar 0
LayerCount: 2
Fore
SplineSet
11 745 m 1,0,-1
 179 745 l 1,1,-1
 304 214 l 1,2,-1
 436 745 l 1,3,-1
 596 745 l 1,4,-1
 728 214 l 1,5,-1
 853 745 l 1,6,-1
 1021 745 l 1,7,-1
 826 0 l 1,8,-1
 646 0 l 1,9,-1
 516 500 l 1,10,-1
 386 0 l 1,11,-1
 206 0 l 1,12,-1
 11 745 l 1,0,-1
EndSplineSet
Validated: 1
Position2: "'cpsp' Capital Spacing in Latin lookup 0 subtable" dx=5 dy=0 dh=10 dv=0
EndChar

StartChar: X
Encoding: 88 88 286
Width: 682
GlyphClass: 2
Flags: W
AnchorPoint: "Anchor-6" 341 745 basechar 0
AnchorPoint: "Anchor-4" 341 0 basechar 0
LayerCount: 2
Fore
SplineSet
255 373 m 1,0,-1
 11 745 l 1,1,-1
 189 745 l 1,2,-1
 341 513 l 1,3,-1
 493 745 l 1,4,-1
 671 745 l 1,5,-1
 428 373 l 1,6,-1
 671 0 l 1,7,-1
 493 0 l 1,8,-1
 342 232 l 1,9,-1
 189 0 l 1,10,-1
 11 0 l 1,11,-1
 255 373 l 1,0,-1
EndSplineSet
Validated: 1
Position2: "'cpsp' Capital Spacing in Latin lookup 0 subtable" dx=5 dy=0 dh=10 dv=0
EndChar

StartChar: Y
Encoding: 89 89 287
Width: 672
GlyphClass: 2
Flags: W
AnchorPoint: "Anchor-6" 336 745 basechar 0
AnchorPoint: "Anchor-4" 336 0 basechar 0
LayerCount: 2
Fore
SplineSet
259 325 m 1,0,-1
 11 745 l 1,1,-1
 188 745 l 1,2,-1
 336 484 l 1,3,-1
 484 745 l 1,4,-1
 661 745 l 1,5,-1
 414 326 l 1,6,-1
 414 0 l 1,7,-1
 259 0 l 1,8,-1
 259 325 l 1,0,-1
EndSplineSet
Validated: 1
Position2: "'cpsp' Capital Spacing in Latin lookup 0 subtable" dx=5 dy=0 dh=10 dv=0
EndChar

StartChar: Z
Encoding: 90 90 297
Width: 567
GlyphClass: 2
Flags: W
AnchorPoint: "Anchor-6" 284 745 basechar 0
AnchorPoint: "Anchor-4" 284 0 basechar 0
LayerCount: 2
Fore
SplineSet
11 125 m 1,0,-1
 350 610 l 1,1,-1
 31 610 l 1,2,-1
 31 745 l 1,3,-1
 546 745 l 1,4,-1
 546 620 l 1,5,-1
 208 135 l 1,6,-1
 556 135 l 1,7,-1
 556 0 l 1,8,-1
 11 0 l 1,9,-1
 11 125 l 1,0,-1
EndSplineSet
Validated: 1
Position2: "'cpsp' Capital Spacing in Latin lookup 0 subtable" dx=5 dy=0 dh=10 dv=0
EndChar

StartChar: a
Encoding: 97 97 302
Width: 583
GlyphClass: 2
Flags: W
AnchorPoint: "Anchor-6" 292 546 basechar 0
AnchorPoint: "Anchor-5" 498 41 basechar 0
AnchorPoint: "Anchor-4" 292 0 basechar 0
LayerCount: 2
Fore
SplineSet
84 30 m 128,-1,1
 33 72 33 72 33 146 c 0,2,3
 33 216 33 216 81.5 260.5 c 128,-1,4
 130 305 130 305 227 321 c 2,5,-1
 378 345 l 1,6,-1
 378 360 l 2,7,8
 378 391 378 391 353 412 c 128,-1,9
 328 433 328 433 287 433 c 0,10,11
 247 433 247 433 216.5 411.5 c 128,-1,12
 186 390 186 390 172 353 c 1,13,-1
 52 410 l 1,14,15
 76 478 76 478 141.5 518 c 128,-1,16
 207 558 207 558 294 558 c 0,17,18
 362 558 362 558 415.5 533 c 128,-1,19
 469 508 469 508 498.5 463 c 128,-1,20
 528 418 528 418 528 360 c 2,21,-1
 528 0 l 1,22,-1
 388 0 l 1,23,-1
 388 51 l 1,24,25
 356 19 356 19 316 3.5 c 128,-1,26
 276 -12 276 -12 224 -12 c 0,27,0
 135 -12 135 -12 84 30 c 128,-1,1
206.5 112 m 128,-1,29
 225 98 225 98 254 98 c 0,30,31
 309 98 309 98 343.5 132.5 c 128,-1,32
 378 167 378 167 378 218 c 2,33,-1
 378 235 l 1,34,-1
 254 213 l 2,35,36
 221 207 221 207 204.5 192 c 128,-1,37
 188 177 188 177 188 151 c 0,38,28
 188 126 188 126 206.5 112 c 128,-1,29
EndSplineSet
Validated: 1
Substitution2: "Single Substitution lookup 28 subtable" ordfeminine
Substitution2: "'ss03' Style Set 3 in Latin lookup 22 subtable" a.ss03
Substitution2: "'ss02' Style Set 2 in Latin lookup 21 subtable" a.ss02
Substitution2: "'ss01' Style Set 1 in Latin lookup 20 subtable" a.ss01
Substitution2: "'salt' Stylistic Alternatives in Latin lookup 19 subtable" a.ss01
AlternateSubs2: "'aalt' Access All Alternates in Latin lookup 1 subtable" ordfeminine a.ss01 a.ss02 a.ss03
EndChar

StartChar: a.ss01
Encoding: 65604 -1 303
Width: 583
GlyphClass: 2
Flags: W
AnchorPoint: "Anchor-6" 292 546 basechar 0
AnchorPoint: "Anchor-5" 498 41 basechar 0
AnchorPoint: "Anchor-4" 292 0 basechar 0
LayerCount: 2
Fore
SplineSet
84 30 m 128,-1,1
 33 72 33 72 33 146 c 0,2,3
 33 216 33 216 81.5 260.5 c 128,-1,4
 130 305 130 305 227 321 c 2,5,-1
 378 345 l 1,6,-1
 378 416 l 1,7,-1
 93 416 l 1,8,-1
 93 546 l 1,9,-1
 528 546 l 1,10,-1
 528 0 l 1,11,-1
 388 0 l 1,12,-1
 388 51 l 1,13,14
 356 19 356 19 316 3.5 c 128,-1,15
 276 -12 276 -12 224 -12 c 0,16,0
 135 -12 135 -12 84 30 c 128,-1,1
206.5 112 m 128,-1,18
 225 98 225 98 254 98 c 0,19,20
 309 98 309 98 343.5 132.5 c 128,-1,21
 378 167 378 167 378 218 c 2,22,-1
 378 235 l 1,23,-1
 254 213 l 2,24,25
 221 207 221 207 204.5 192 c 128,-1,26
 188 177 188 177 188 151 c 0,27,17
 188 126 188 126 206.5 112 c 128,-1,18
EndSplineSet
Validated: 1
EndChar

StartChar: a.ss02
Encoding: 65605 -1 304
Width: 616
GlyphClass: 2
Flags: W
AnchorPoint: "Anchor-6" 292 546 basechar 0
AnchorPoint: "Anchor-5" 498 41 basechar 0
AnchorPoint: "Anchor-4" 292 0 basechar 0
LayerCount: 2
Fore
SplineSet
84 30 m 128,-1,1
 33 72 33 72 33 146 c 0,2,3
 33 216 33 216 81.5 260.5 c 128,-1,4
 130 305 130 305 227 321 c 2,5,-1
 378 345 l 1,6,-1
 378 360 l 2,7,8
 378 391 378 391 353 412 c 128,-1,9
 328 433 328 433 287 433 c 0,10,11
 247 433 247 433 216.5 411.5 c 128,-1,12
 186 390 186 390 172 353 c 1,13,-1
 52 410 l 1,14,15
 76 478 76 478 141.5 518 c 128,-1,16
 207 558 207 558 294 558 c 0,17,18
 362 558 362 558 415.5 533 c 128,-1,19
 469 508 469 508 498.5 463 c 128,-1,20
 528 418 528 418 528 360 c 2,21,-1
 528 120 l 1,22,-1
 588 120 l 1,23,-1
 588 0 l 1,24,-1
 388 0 l 1,25,-1
 388 51 l 1,26,27
 356 19 356 19 316 3.5 c 128,-1,28
 276 -12 276 -12 224 -12 c 0,29,0
 135 -12 135 -12 84 30 c 128,-1,1
206.5 112 m 128,-1,31
 225 98 225 98 254 98 c 0,32,33
 309 98 309 98 343.5 132.5 c 128,-1,34
 378 167 378 167 378 218 c 2,35,-1
 378 235 l 1,36,-1
 254 213 l 2,37,38
 221 207 221 207 204.5 192 c 128,-1,39
 188 177 188 177 188 151 c 0,40,30
 188 126 188 126 206.5 112 c 128,-1,31
EndSplineSet
Validated: 1
EndChar

StartChar: a.ss03
Encoding: 65606 -1 305
Width: 583
GlyphClass: 2
Flags: W
AnchorPoint: "Anchor-6" 292 546 basechar 0
AnchorPoint: "Anchor-5" 498 41 basechar 0
AnchorPoint: "Anchor-4" 292 0 basechar 0
LayerCount: 2
Fore
SplineSet
84 30 m 128,-1,1
 33 72 33 72 33 146 c 0,2,3
 33 216 33 216 81.5 260.5 c 128,-1,4
 130 305 130 305 227 321 c 2,5,-1
 376 345 l 1,6,7
 370 378 370 378 344.5 397 c 128,-1,8
 319 416 319 416 277 416 c 2,9,-1
 93 416 l 1,10,-1
 93 546 l 1,11,-1
 287 546 l 2,12,13
 399 546 399 546 463.5 488.5 c 128,-1,14
 528 431 528 431 528 332 c 2,15,-1
 528 0 l 1,16,-1
 388 0 l 1,17,-1
 388 51 l 1,18,19
 356 19 356 19 316 3.5 c 128,-1,20
 276 -12 276 -12 224 -12 c 0,21,0
 135 -12 135 -12 84 30 c 128,-1,1
206.5 112 m 128,-1,23
 225 98 225 98 254 98 c 0,24,25
 309 98 309 98 343.5 132.5 c 128,-1,26
 378 167 378 167 378 218 c 2,27,-1
 378 235 l 1,28,-1
 254 213 l 2,29,30
 221 207 221 207 204.5 192 c 128,-1,31
 188 177 188 177 188 151 c 0,32,22
 188 126 188 126 206.5 112 c 128,-1,23
EndSplineSet
Validated: 1
EndChar

StartChar: aogonek
Encoding: 261 261 386
Width: 583
GlyphClass: 2
Flags: W
AnchorPoint: "Anchor-6" 292 546 basechar 0
AnchorPoint: "Anchor-5" 498 41 basechar 0
AnchorPoint: "Anchor-4" 292 0 basechar 0
LayerCount: 2
Fore
SplineSet
84 30 m 128,-1,1
 33 72 33 72 33 146 c 0,2,3
 33 216 33 216 81.5 260.5 c 128,-1,4
 130 305 130 305 227 321 c 2,5,-1
 378 345 l 1,6,-1
 378 360 l 2,7,8
 378 391 378 391 353 412 c 128,-1,9
 328 433 328 433 287 433 c 0,10,11
 247 433 247 433 216.5 411.5 c 128,-1,12
 186 390 186 390 172 353 c 1,13,-1
 52 410 l 1,14,15
 76 478 76 478 141.5 518 c 128,-1,16
 207 558 207 558 294 558 c 0,17,18
 362 558 362 558 415.5 533 c 128,-1,19
 469 508 469 508 498.5 463 c 128,-1,20
 528 418 528 418 528 360 c 2,21,-1
 528 0 l 1,22,-1
 515 0 l 1,23,24
 419 -22 419 -22 419 -71 c 0,25,26
 419 -91 419 -91 435.5 -104 c 128,-1,27
 452 -117 452 -117 482 -117 c 0,28,29
 526 -117 526 -117 575 -88 c 1,30,-1
 620 -167 l 1,31,32
 550 -222 550 -222 466 -222 c 0,33,34
 396 -222 396 -222 350 -190 c 128,-1,35
 304 -158 304 -158 304 -102 c 0,36,37
 304 -63 304 -63 326.5 -32 c 128,-1,38
 349 -1 349 -1 388 18 c 1,39,-1
 388 51 l 1,40,41
 356 19 356 19 316 3.5 c 128,-1,42
 276 -12 276 -12 224 -12 c 0,43,0
 135 -12 135 -12 84 30 c 128,-1,1
206.5 112 m 128,-1,45
 225 98 225 98 254 98 c 0,46,47
 309 98 309 98 343.5 132.5 c 128,-1,48
 378 167 378 167 378 218 c 2,49,-1
 378 235 l 1,50,-1
 254 213 l 2,51,52
 221 207 221 207 204.5 192 c 128,-1,53
 188 177 188 177 188 151 c 0,54,44
 188 126 188 126 206.5 112 c 128,-1,45
EndSplineSet
Validated: 1
Substitution2: "'ss03' Style Set 3 in Latin lookup 22 subtable" aogonek.ss03
Substitution2: "'ss02' Style Set 2 in Latin lookup 21 subtable" aogonek.ss02
Substitution2: "'ss01' Style Set 1 in Latin lookup 20 subtable" aogonek.ss01
Substitution2: "'salt' Stylistic Alternatives in Latin lookup 19 subtable" aogonek.ss01
AlternateSubs2: "'aalt' Access All Alternates in Latin lookup 1 subtable" aogonek.ss01 aogonek.ss02 aogonek.ss03
EndChar

StartChar: aogonek.ss01
Encoding: 65667 -1 387
Width: 583
GlyphClass: 2
Flags: W
AnchorPoint: "Anchor-6" 292 546 basechar 0
AnchorPoint: "Anchor-5" 498 41 basechar 0
AnchorPoint: "Anchor-4" 292 0 basechar 0
LayerCount: 2
Fore
SplineSet
84 30 m 128,-1,1
 33 72 33 72 33 146 c 0,2,3
 33 216 33 216 81.5 260.5 c 128,-1,4
 130 305 130 305 227 321 c 2,5,-1
 378 345 l 1,6,-1
 378 416 l 1,7,-1
 93 416 l 1,8,-1
 93 546 l 1,9,-1
 528 546 l 1,10,-1
 528 0 l 1,11,-1
 515 0 l 1,12,13
 419 -22 419 -22 419 -71 c 0,14,15
 419 -91 419 -91 435.5 -104 c 128,-1,16
 452 -117 452 -117 482 -117 c 0,17,18
 526 -117 526 -117 575 -88 c 1,19,-1
 620 -167 l 1,20,21
 550 -222 550 -222 466 -222 c 0,22,23
 396 -222 396 -222 350 -190 c 128,-1,24
 304 -158 304 -158 304 -102 c 0,25,26
 304 -63 304 -63 326.5 -32 c 128,-1,27
 349 -1 349 -1 388 18 c 1,28,-1
 388 51 l 1,29,30
 356 19 356 19 316 3.5 c 128,-1,31
 276 -12 276 -12 224 -12 c 0,32,0
 135 -12 135 -12 84 30 c 128,-1,1
206.5 112 m 128,-1,34
 225 98 225 98 254 98 c 0,35,36
 309 98 309 98 343.5 132.5 c 128,-1,37
 378 167 378 167 378 218 c 2,38,-1
 378 235 l 1,39,-1
 254 213 l 2,40,41
 221 207 221 207 204.5 192 c 128,-1,42
 188 177 188 177 188 151 c 0,43,33
 188 126 188 126 206.5 112 c 128,-1,34
EndSplineSet
Validated: 1
EndChar

StartChar: aogonek.ss02
Encoding: 65668 -1 388
Width: 616
GlyphClass: 2
Flags: W
AnchorPoint: "Anchor-6" 292 546 basechar 0
AnchorPoint: "Anchor-5" 498 41 basechar 0
AnchorPoint: "Anchor-4" 292 0 basechar 0
LayerCount: 2
Fore
SplineSet
84 30 m 128,-1,1
 33 72 33 72 33 146 c 0,2,3
 33 216 33 216 81.5 260.5 c 128,-1,4
 130 305 130 305 227 321 c 2,5,-1
 378 345 l 1,6,-1
 378 360 l 2,7,8
 378 391 378 391 353 412 c 128,-1,9
 328 433 328 433 287 433 c 0,10,11
 247 433 247 433 216.5 411.5 c 128,-1,12
 186 390 186 390 172 353 c 1,13,-1
 52 410 l 1,14,15
 76 478 76 478 141.5 518 c 128,-1,16
 207 558 207 558 294 558 c 0,17,18
 362 558 362 558 415.5 533 c 128,-1,19
 469 508 469 508 498.5 463 c 128,-1,20
 528 418 528 418 528 360 c 2,21,-1
 528 120 l 1,22,-1
 588 120 l 1,23,-1
 588 0 l 1,24,-1
 515 0 l 1,25,26
 419 -22 419 -22 419 -71 c 0,27,28
 419 -91 419 -91 435.5 -104 c 128,-1,29
 452 -117 452 -117 482 -117 c 0,30,31
 526 -117 526 -117 575 -88 c 1,32,-1
 620 -167 l 1,33,34
 550 -222 550 -222 466 -222 c 0,35,36
 396 -222 396 -222 350 -190 c 128,-1,37
 304 -158 304 -158 304 -102 c 0,38,39
 304 -63 304 -63 326.5 -32 c 128,-1,40
 349 -1 349 -1 388 18 c 1,41,-1
 388 51 l 1,42,43
 356 19 356 19 316 3.5 c 128,-1,44
 276 -12 276 -12 224 -12 c 0,45,0
 135 -12 135 -12 84 30 c 128,-1,1
206.5 112 m 128,-1,47
 225 98 225 98 254 98 c 0,48,49
 309 98 309 98 343.5 132.5 c 128,-1,50
 378 167 378 167 378 218 c 2,51,-1
 378 235 l 1,52,-1
 254 213 l 2,53,54
 221 207 221 207 204.5 192 c 128,-1,55
 188 177 188 177 188 151 c 0,56,46
 188 126 188 126 206.5 112 c 128,-1,47
EndSplineSet
Validated: 1
EndChar

StartChar: aogonek.ss03
Encoding: 65669 -1 389
Width: 583
GlyphClass: 2
Flags: W
AnchorPoint: "Anchor-6" 292 546 basechar 0
AnchorPoint: "Anchor-5" 498 41 basechar 0
AnchorPoint: "Anchor-4" 292 0 basechar 0
LayerCount: 2
Fore
SplineSet
84 30 m 128,-1,1
 33 72 33 72 33 146 c 0,2,3
 33 216 33 216 81.5 260.5 c 128,-1,4
 130 305 130 305 227 321 c 2,5,-1
 376 345 l 1,6,7
 370 378 370 378 344.5 397 c 128,-1,8
 319 416 319 416 277 416 c 2,9,-1
 93 416 l 1,10,-1
 93 546 l 1,11,-1
 287 546 l 2,12,13
 399 546 399 546 463.5 488.5 c 128,-1,14
 528 431 528 431 528 332 c 2,15,-1
 528 0 l 1,16,-1
 515 0 l 1,17,18
 419 -22 419 -22 419 -71 c 0,19,20
 419 -91 419 -91 435.5 -104 c 128,-1,21
 452 -117 452 -117 482 -117 c 0,22,23
 526 -117 526 -117 575 -88 c 1,24,-1
 620 -167 l 1,25,26
 550 -222 550 -222 466 -222 c 0,27,28
 396 -222 396 -222 350 -190 c 128,-1,29
 304 -158 304 -158 304 -102 c 0,30,31
 304 -63 304 -63 326.5 -32 c 128,-1,32
 349 -1 349 -1 388 18 c 1,33,-1
 388 51 l 1,34,35
 356 19 356 19 316 3.5 c 128,-1,36
 276 -12 276 -12 224 -12 c 0,37,0
 135 -12 135 -12 84 30 c 128,-1,1
206.5 112 m 128,-1,39
 225 98 225 98 254 98 c 0,40,41
 309 98 309 98 343.5 132.5 c 128,-1,42
 378 167 378 167 378 218 c 2,43,-1
 378 235 l 1,44,-1
 254 213 l 2,45,46
 221 207 221 207 204.5 192 c 128,-1,47
 188 177 188 177 188 151 c 0,48,38
 188 126 188 126 206.5 112 c 128,-1,39
EndSplineSet
Validated: 1
EndChar

StartChar: ae
Encoding: 230 230 402
Width: 961
GlyphClass: 2
Flags: W
AnchorPoint: "Anchor-6" 481 546 basechar 0
AnchorPoint: "Anchor-4" 481 0 basechar 0
LayerCount: 2
Fore
SplineSet
84 30 m 128,-1,1
 33 72 33 72 33 146 c 0,2,3
 33 216 33 216 81.5 260.5 c 128,-1,4
 130 305 130 305 227 321 c 2,5,-1
 378 345 l 1,6,-1
 378 360 l 2,7,8
 378 391 378 391 353 412 c 128,-1,9
 328 433 328 433 287 433 c 0,10,11
 247 433 247 433 216.5 411.5 c 128,-1,12
 186 390 186 390 172 353 c 1,13,-1
 52 410 l 1,14,15
 76 478 76 478 141.5 518 c 128,-1,16
 207 558 207 558 294 558 c 0,17,18
 351 558 351 558 398 540.5 c 128,-1,19
 445 523 445 523 476 491 c 1,20,21
 513 523 513 523 559.5 540.5 c 128,-1,22
 606 558 606 558 658 558 c 0,23,24
 742 558 742 558 803 523 c 128,-1,25
 864 488 864 488 896 426.5 c 128,-1,26
 928 365 928 365 928 289 c 0,27,28
 928 252 928 252 921 231 c 1,29,-1
 539 231 l 1,30,31
 546 179 546 179 580.5 148.5 c 128,-1,32
 615 118 615 118 670 118 c 0,33,34
 709 118 709 118 738 134 c 128,-1,35
 767 150 767 150 783 178 c 1,36,-1
 903 121 l 1,37,38
 879 62 879 62 818.5 25 c 128,-1,39
 758 -12 758 -12 688 -12 c 0,40,41
 579 -12 579 -12 511 50 c 1,42,-1
 511 0 l 1,43,-1
 388 0 l 1,44,-1
 388 50 l 1,45,46
 356 18 356 18 316 3 c 128,-1,47
 276 -12 276 -12 224 -12 c 0,48,0
 135 -12 135 -12 84 30 c 128,-1,1
206.5 112 m 128,-1,50
 225 98 225 98 254 98 c 0,51,52
 309 98 309 98 343.5 132.5 c 128,-1,53
 378 167 378 167 378 218 c 2,54,-1
 378 235 l 1,55,-1
 254 213 l 2,56,57
 221 207 221 207 204.5 192 c 128,-1,58
 188 177 188 177 188 151 c 0,59,49
 188 126 188 126 206.5 112 c 128,-1,50
769 341 m 1,60,61
 764 385 764 385 734 411.5 c 128,-1,62
 704 438 704 438 658 438 c 0,63,64
 613 438 613 438 582.5 413 c 128,-1,65
 552 388 552 388 542 341 c 1,66,-1
 769 341 l 1,60,61
EndSplineSet
Validated: 1
EndChar

StartChar: b
Encoding: 98 98 404
Width: 673
GlyphClass: 2
Flags: W
AnchorPoint: "Anchor-6" 337 784 basechar 0
AnchorPoint: "Anchor-4" 337 0 basechar 0
LayerCount: 2
Fore
SplineSet
267 4.5 m 128,-1,1
 224 21 224 21 195 52 c 1,2,-1
 195 0 l 1,3,-1
 55 0 l 1,4,-1
 55 757 l 1,5,-1
 205 757 l 1,6,-1
 205 500 l 1,7,8
 233 528 233 528 273.5 543 c 128,-1,9
 314 558 314 558 362 558 c 0,10,11
 439 558 439 558 502.5 520 c 128,-1,12
 566 482 566 482 603 417 c 128,-1,13
 640 352 640 352 640 273 c 256,14,15
 640 194 640 194 603.5 129 c 128,-1,16
 567 64 567 64 503.5 26 c 128,-1,17
 440 -12 440 -12 361 -12 c 0,18,0
 310 -12 310 -12 267 4.5 c 128,-1,1
243.5 164.5 m 128,-1,20
 282 123 282 123 343 123 c 0,21,22
 405 123 405 123 445 165 c 128,-1,23
 485 207 485 207 485 273 c 0,24,25
 485 338 485 338 445 380.5 c 128,-1,26
 405 423 405 423 343 423 c 0,27,28
 282 423 282 423 243.5 381 c 128,-1,29
 205 339 205 339 205 273 c 0,30,19
 205 206 205 206 243.5 164.5 c 128,-1,20
EndSplineSet
Validated: 1
EndChar

StartChar: c
Encoding: 99 99 405
Width: 611
GlyphClass: 2
Flags: W
AnchorPoint: "Anchor-6" 323 546 basechar 0
AnchorPoint: "Anchor-4" 323 0 basechar 0
LayerCount: 2
Fore
SplineSet
175.5 25.5 m 128,-1,1
 109 63 109 63 71 128.5 c 128,-1,2
 33 194 33 194 33 274 c 256,3,4
 33 354 33 354 71 419 c 128,-1,5
 109 484 109 484 175.5 521 c 128,-1,6
 242 558 242 558 323 558 c 0,7,8
 415 558 415 558 484.5 512 c 128,-1,9
 554 466 554 466 579 390 c 1,10,-1
 449 334 l 1,11,12
 435 375 435 375 401 399 c 128,-1,13
 367 423 367 423 323 423 c 0,14,15
 264 423 264 423 226 381 c 128,-1,16
 188 339 188 339 188 273 c 256,17,18
 188 207 188 207 226 165 c 128,-1,19
 264 123 264 123 323 123 c 0,20,21
 368 123 368 123 401.5 147 c 128,-1,22
 435 171 435 171 449 212 c 1,23,-1
 579 155 l 1,24,25
 555 81 555 81 485 34.5 c 128,-1,26
 415 -12 415 -12 323 -12 c 0,27,0
 242 -12 242 -12 175.5 25.5 c 128,-1,1
EndSplineSet
Validated: 1
EndChar

StartChar: ccedilla
Encoding: 231 231 408
Width: 611
GlyphClass: 2
Flags: W
AnchorPoint: "Anchor-4" 323 0 basechar 0
LayerCount: 2
Fore
SplineSet
224 -251 m 1,1,-1
 237 -175 l 1,2,3
 261 -183 261 -183 299 -183 c 0,4,5
 324 -183 324 -183 337.5 -175 c 128,-1,6
 351 -167 351 -167 351 -152 c 0,7,8
 351 -125 351 -125 319 -125 c 0,9,10
 297 -125 297 -125 281 -129 c 1,11,-1
 257 -117 l 1,12,-1
 272 -8 l 1,13,14
 203 3 203 3 149 42.5 c 128,-1,15
 95 82 95 82 64 142 c 128,-1,16
 33 202 33 202 33 274 c 0,17,18
 33 354 33 354 71 419 c 128,-1,19
 109 484 109 484 175.5 521 c 128,-1,20
 242 558 242 558 323 558 c 0,21,22
 415 558 415 558 484.5 512 c 128,-1,23
 554 466 554 466 579 390 c 1,24,-1
 449 334 l 1,25,26
 435 375 435 375 401 399 c 128,-1,27
 367 423 367 423 323 423 c 0,28,29
 264 423 264 423 226 381 c 128,-1,30
 188 339 188 339 188 273 c 256,31,32
 188 207 188 207 226 165 c 128,-1,33
 264 123 264 123 323 123 c 0,34,35
 368 123 368 123 401.5 147 c 128,-1,36
 435 171 435 171 449 212 c 1,37,-1
 579 155 l 1,38,39
 559 91 559 91 503 47 c 128,-1,40
 447 3 447 3 371 -8 c 1,41,-1
 367 -62 l 1,42,-1
 380 -61 l 2,43,44
 421 -61 421 -61 446.5 -85 c 128,-1,45
 472 -109 472 -109 472 -149 c 0,46,47
 472 -198 472 -198 431 -229.5 c 128,-1,48
 390 -261 390 -261 312 -261 c 0,49,0
 260 -261 260 -261 224 -251 c 1,1,-1
EndSplineSet
Validated: 1
EndChar

StartChar: uni1E09
Encoding: 7689 7689 409
Width: 611
GlyphClass: 2
Flags: W
AnchorPoint: "Anchor-4" 323 0 basechar 0
LayerCount: 2
Fore
SplineSet
224 -251 m 1,1,-1
 237 -175 l 1,2,3
 261 -183 261 -183 299 -183 c 0,4,5
 324 -183 324 -183 337.5 -175 c 128,-1,6
 351 -167 351 -167 351 -152 c 0,7,8
 351 -125 351 -125 319 -125 c 0,9,10
 297 -125 297 -125 281 -129 c 1,11,-1
 257 -117 l 1,12,-1
 272 -8 l 1,13,14
 203 3 203 3 149 42.5 c 128,-1,15
 95 82 95 82 64 142 c 128,-1,16
 33 202 33 202 33 274 c 0,17,18
 33 354 33 354 71 419 c 128,-1,19
 109 484 109 484 175.5 521 c 128,-1,20
 242 558 242 558 323 558 c 0,21,22
 415 558 415 558 484.5 512 c 128,-1,23
 554 466 554 466 579 390 c 1,24,-1
 449 334 l 1,25,26
 435 375 435 375 401 399 c 128,-1,27
 367 423 367 423 323 423 c 0,28,29
 264 423 264 423 226 381 c 128,-1,30
 188 339 188 339 188 273 c 256,31,32
 188 207 188 207 226 165 c 128,-1,33
 264 123 264 123 323 123 c 0,34,35
 368 123 368 123 401.5 147 c 128,-1,36
 435 171 435 171 449 212 c 1,37,-1
 579 155 l 1,38,39
 559 91 559 91 503 47 c 128,-1,40
 447 3 447 3 371 -8 c 1,41,-1
 367 -62 l 1,42,-1
 380 -61 l 2,43,44
 421 -61 421 -61 446.5 -85 c 128,-1,45
 472 -109 472 -109 472 -149 c 0,46,47
 472 -198 472 -198 431 -229.5 c 128,-1,48
 390 -261 390 -261 312 -261 c 0,49,0
 260 -261 260 -261 224 -251 c 1,1,-1
315 784 m 1,50,-1
 486 784 l 1,51,-1
 389 640 l 1,52,-1
 257 640 l 1,53,-1
 315 784 l 1,50,-1
EndSplineSet
Validated: 1
EndChar

StartChar: d
Encoding: 100 100 412
Width: 673
GlyphClass: 2
Flags: W
AnchorPoint: "Anchor-7" 673 595 basechar 0
AnchorPoint: "Anchor-6" 337 784 basechar 0
AnchorPoint: "Anchor-4" 337 0 basechar 0
LayerCount: 2
Fore
SplineSet
169.5 26 m 128,-1,1
 106 64 106 64 69.5 129 c 128,-1,2
 33 194 33 194 33 273 c 256,3,4
 33 352 33 352 70 417 c 128,-1,5
 107 482 107 482 170.5 520 c 128,-1,6
 234 558 234 558 311 558 c 0,7,8
 359 558 359 558 399.5 543 c 128,-1,9
 440 528 440 528 468 500 c 1,10,-1
 468 757 l 1,11,-1
 618 757 l 1,12,-1
 618 0 l 1,13,-1
 478 0 l 1,14,-1
 478 52 l 1,15,16
 449 21 449 21 406 4.5 c 128,-1,17
 363 -12 363 -12 312 -12 c 0,18,0
 233 -12 233 -12 169.5 26 c 128,-1,1
228 165 m 128,-1,20
 268 123 268 123 330 123 c 0,21,22
 391 123 391 123 429.5 164.5 c 128,-1,23
 468 206 468 206 468 273 c 0,24,25
 468 339 468 339 429.5 381 c 128,-1,26
 391 423 391 423 330 423 c 0,27,28
 268 423 268 423 228 380.5 c 128,-1,29
 188 338 188 338 188 273 c 0,30,19
 188 207 188 207 228 165 c 128,-1,20
EndSplineSet
Validated: 1
EndChar

StartChar: eth
Encoding: 240 240 413
Width: 651
GlyphClass: 1
Flags: W
LayerCount: 2
Fore
SplineSet
180 24 m 128,-1,1
 113 60 113 60 73 124.5 c 128,-1,2
 33 189 33 189 33 270 c 0,3,4
 33 348 33 348 70.5 411.5 c 128,-1,5
 108 475 108 475 172.5 511.5 c 128,-1,6
 237 548 237 548 316 548 c 0,7,8
 355 548 355 548 385.5 538 c 128,-1,9
 416 528 416 528 445 507 c 1,10,11
 423 572 423 572 367 614 c 1,12,-1
 215 555 l 1,13,-1
 215 615 l 1,14,-1
 302 649 l 1,15,16
 251 666 251 666 197 666 c 0,17,18
 149 666 149 666 99 651 c 1,19,-1
 84 771 l 1,20,21
 158 796 158 796 227 796 c 0,22,23
 360 796 360 796 460 710 c 1,24,-1
 569 753 l 1,25,-1
 569 693 l 1,26,-1
 503 667 l 1,27,28
 558 603 558 603 588 517 c 128,-1,29
 618 431 618 431 618 335 c 0,30,31
 618 224 618 224 581 146 c 128,-1,32
 544 68 544 68 478 28 c 128,-1,33
 412 -12 412 -12 326 -12 c 0,34,0
 247 -12 247 -12 180 24 c 128,-1,1
227 164 m 128,-1,36
 266 123 266 123 326 123 c 256,37,38
 386 123 386 123 424.5 164.5 c 128,-1,39
 463 206 463 206 463 269 c 0,40,41
 463 331 463 331 425.5 372 c 128,-1,42
 388 413 388 413 326 413 c 256,43,44
 264 413 264 413 226 372.5 c 128,-1,45
 188 332 188 332 188 269 c 0,46,35
 188 205 188 205 227 164 c 128,-1,36
EndSplineSet
Validated: 1
EndChar

StartChar: dcroat
Encoding: 273 273 415
Width: 673
GlyphClass: 2
Flags: W
AnchorPoint: "Anchor-7" 673 595 basechar 0
AnchorPoint: "Anchor-6" 337 784 basechar 0
AnchorPoint: "Anchor-4" 337 0 basechar 0
LayerCount: 2
Fore
SplineSet
169.5 26 m 128,-1,1
 106 64 106 64 69.5 129 c 128,-1,2
 33 194 33 194 33 273 c 256,3,4
 33 352 33 352 70 417 c 128,-1,5
 107 482 107 482 170.5 520 c 128,-1,6
 234 558 234 558 311 558 c 0,7,8
 359 558 359 558 399.5 543 c 128,-1,9
 440 528 440 528 468 500 c 1,10,-1
 468 595 l 1,11,-1
 368 595 l 1,12,-1
 368 685 l 1,13,-1
 468 685 l 1,14,-1
 468 757 l 1,15,-1
 618 757 l 1,16,-1
 618 685 l 1,17,-1
 718 685 l 1,18,-1
 718 595 l 1,19,-1
 618 595 l 1,20,-1
 618 0 l 1,21,-1
 478 0 l 1,22,-1
 478 52 l 1,23,24
 449 21 449 21 406 4.5 c 128,-1,25
 363 -12 363 -12 312 -12 c 0,26,0
 233 -12 233 -12 169.5 26 c 128,-1,1
228 165 m 128,-1,28
 268 123 268 123 330 123 c 0,29,30
 391 123 391 123 429.5 164.5 c 128,-1,31
 468 206 468 206 468 273 c 0,32,33
 468 339 468 339 429.5 381 c 128,-1,34
 391 423 391 423 330 423 c 0,35,36
 268 423 268 423 228 380.5 c 128,-1,37
 188 338 188 338 188 273 c 0,38,27
 188 207 188 207 228 165 c 128,-1,28
EndSplineSet
Validated: 1
EndChar

StartChar: uni01C6
Encoding: 454 454 418
Width: 1165
GlyphClass: 1
Flags: W
LayerCount: 2
Fore
SplineSet
169.5 26 m 128,-1,1
 106 64 106 64 69.5 129 c 128,-1,2
 33 194 33 194 33 273 c 256,3,4
 33 352 33 352 70 417 c 128,-1,5
 107 482 107 482 170.5 520 c 128,-1,6
 234 558 234 558 311 558 c 0,7,8
 359 558 359 558 399.5 543 c 128,-1,9
 440 528 440 528 468 500 c 1,10,-1
 468 745 l 1,11,-1
 618 745 l 1,12,-1
 618 0 l 1,13,-1
 478 0 l 1,14,-1
 478 52 l 1,15,16
 449 21 449 21 406 4.5 c 128,-1,17
 363 -12 363 -12 312 -12 c 0,18,0
 233 -12 233 -12 169.5 26 c 128,-1,1
228 165 m 128,-1,20
 268 123 268 123 330 123 c 0,21,22
 391 123 391 123 429.5 164.5 c 128,-1,23
 468 206 468 206 468 273 c 0,24,25
 468 339 468 339 429.5 381 c 128,-1,26
 391 423 391 423 330 423 c 0,27,28
 268 423 268 423 228 380.5 c 128,-1,29
 188 338 188 338 188 273 c 0,30,19
 188 207 188 207 228 165 c 128,-1,20
684 120 m 1,31,-1
 953 416 l 1,32,-1
 697 416 l 1,33,-1
 697 546 l 1,34,-1
 1153 546 l 1,35,-1
 1153 426 l 1,36,-1
 892 130 l 1,37,-1
 1154 130 l 1,38,-1
 1154 0 l 1,39,-1
 684 0 l 1,40,-1
 684 120 l 1,31,-1
864 784 m 1,41,-1
 926 713 l 1,42,-1
 988 784 l 1,43,-1
 1125 784 l 1,44,-1
 1003 640 l 1,45,-1
 846 640 l 1,46,-1
 724 784 l 1,47,-1
 864 784 l 1,41,-1
EndSplineSet
Validated: 1
EndChar

StartChar: e
Encoding: 101 101 419
Width: 611
GlyphClass: 2
Flags: W
AnchorPoint: "Anchor-6" 306 546 basechar 0
AnchorPoint: "Anchor-5" 318 41 basechar 0
AnchorPoint: "Anchor-4" 306 0 basechar 0
LayerCount: 2
Fore
SplineSet
169 26 m 128,-1,1
 104 64 104 64 68.5 129.5 c 128,-1,2
 33 195 33 195 33 274 c 0,3,4
 33 354 33 354 69 419 c 128,-1,5
 105 484 105 484 168 521 c 128,-1,6
 231 558 231 558 308 558 c 0,7,8
 392 558 392 558 453 523 c 128,-1,9
 514 488 514 488 546 426.5 c 128,-1,10
 578 365 578 365 578 289 c 0,11,12
 578 252 578 252 571 231 c 1,13,-1
 189 231 l 1,14,15
 196 179 196 179 230.5 148.5 c 128,-1,16
 265 118 265 118 320 118 c 0,17,18
 359 118 359 118 388 134 c 128,-1,19
 417 150 417 150 433 178 c 1,20,-1
 553 121 l 1,21,22
 528 61 528 61 464.5 24.5 c 128,-1,23
 401 -12 401 -12 318 -12 c 0,24,0
 234 -12 234 -12 169 26 c 128,-1,1
419 341 m 1,25,26
 414 385 414 385 384 411.5 c 128,-1,27
 354 438 354 438 308 438 c 0,28,29
 263 438 263 438 232.5 413 c 128,-1,30
 202 388 202 388 192 341 c 1,31,-1
 419 341 l 1,25,26
EndSplineSet
Validated: 1
Substitution2: "'ss03' Style Set 3 in Latin lookup 22 subtable" e.ss03
Substitution2: "'aalt' Access All Alternates in Latin lookup 0 subtable" e.ss03
EndChar

StartChar: e.ss03
Encoding: 65679 -1 420
Width: 611
GlyphClass: 2
Flags: W
AnchorPoint: "Anchor-6" 306 546 basechar 0
AnchorPoint: "Anchor-5" 318 41 basechar 0
AnchorPoint: "Anchor-4" 306 0 basechar 0
LayerCount: 2
Fore
SplineSet
169 26 m 128,-1,1
 104 64 104 64 68.5 129.5 c 128,-1,2
 33 195 33 195 33 274 c 0,3,4
 33 354 33 354 69 419 c 128,-1,5
 105 484 105 484 168 521 c 128,-1,6
 231 558 231 558 308 558 c 0,7,8
 392 558 392 558 453 523 c 128,-1,9
 514 488 514 488 546 426.5 c 128,-1,10
 578 365 578 365 578 289 c 0,11,12
 578 252 578 252 571 231 c 1,13,-1
 189 231 l 1,14,15
 195 179 195 179 229 148.5 c 128,-1,16
 263 118 263 118 318 118 c 2,17,-1
 518 118 l 1,18,-1
 518 -12 l 1,19,-1
 318 -12 l 2,20,0
 234 -12 234 -12 169 26 c 128,-1,1
419 341 m 1,21,22
 414 385 414 385 384 411.5 c 128,-1,23
 354 438 354 438 308 438 c 0,24,25
 263 438 263 438 232.5 413 c 128,-1,26
 202 388 202 388 192 341 c 1,27,-1
 419 341 l 1,21,22
EndSplineSet
Validated: 1
EndChar

StartChar: uni1E1D
Encoding: 7709 7709 427
Width: 611
GlyphClass: 2
Flags: W
AnchorPoint: "Anchor-5" 318 41 basechar 0
AnchorPoint: "Anchor-4" 306 0 basechar 0
LayerCount: 2
Fore
SplineSet
207 -251 m 1,1,-1
 220 -175 l 1,2,3
 244 -183 244 -183 282 -183 c 0,4,5
 307 -183 307 -183 320.5 -175 c 128,-1,6
 334 -167 334 -167 334 -152 c 0,7,8
 334 -125 334 -125 302 -125 c 0,9,10
 280 -125 280 -125 264 -129 c 1,11,-1
 240 -117 l 1,12,-1
 255 -6 l 1,13,14
 188 7 188 7 137.5 47 c 128,-1,15
 87 87 87 87 60 146 c 128,-1,16
 33 205 33 205 33 274 c 0,17,18
 33 354 33 354 69 419 c 128,-1,19
 105 484 105 484 168 521 c 128,-1,20
 231 558 231 558 308 558 c 0,21,22
 392 558 392 558 453 523 c 128,-1,23
 514 488 514 488 546 426.5 c 128,-1,24
 578 365 578 365 578 289 c 0,25,26
 578 252 578 252 571 231 c 1,27,-1
 189 231 l 1,28,29
 196 179 196 179 230.5 148.5 c 128,-1,30
 265 118 265 118 320 118 c 0,31,32
 359 118 359 118 388 134 c 128,-1,33
 417 150 417 150 433 178 c 1,34,-1
 553 121 l 1,35,36
 531 68 531 68 478 32.5 c 128,-1,37
 425 -3 425 -3 354 -10 c 1,38,-1
 350 -62 l 1,39,-1
 363 -61 l 2,40,41
 404 -61 404 -61 429.5 -85 c 128,-1,42
 455 -109 455 -109 455 -149 c 0,43,44
 455 -198 455 -198 414 -229.5 c 128,-1,45
 373 -261 373 -261 295 -261 c 0,46,0
 243 -261 243 -261 207 -251 c 1,1,-1
256 789 m 1,47,48
 256 769 256 769 270 757 c 128,-1,49
 284 745 284 745 306 745 c 256,50,51
 328 745 328 745 342 757 c 128,-1,52
 356 769 356 769 356 789 c 1,53,-1
 475 789 l 1,54,55
 475 750 475 750 452.5 715.5 c 128,-1,56
 430 681 430 681 391 660.5 c 128,-1,57
 352 640 352 640 306 640 c 0,58,59
 261 640 261 640 222 660.5 c 128,-1,60
 183 681 183 681 160 715.5 c 128,-1,61
 137 750 137 750 137 789 c 1,62,-1
 256 789 l 1,47,48
419 341 m 1,63,64
 414 385 414 385 384 411.5 c 128,-1,65
 354 438 354 438 308 438 c 0,66,67
 263 438 263 438 232.5 413 c 128,-1,68
 202 388 202 388 192 341 c 1,69,-1
 419 341 l 1,63,64
EndSplineSet
Validated: 1
Substitution2: "'ss03' Style Set 3 in Latin lookup 22 subtable" uni1E1D.ss03
Substitution2: "'aalt' Access All Alternates in Latin lookup 0 subtable" uni1E1D.ss03
EndChar

StartChar: uni1E1D.ss03
Encoding: 65683 -1 428
Width: 611
GlyphClass: 2
Flags: W
AnchorPoint: "Anchor-5" 318 41 basechar 0
AnchorPoint: "Anchor-4" 306 0 basechar 0
LayerCount: 2
Fore
SplineSet
207 -251 m 1,1,-1
 220 -175 l 1,2,3
 244 -183 244 -183 282 -183 c 0,4,5
 307 -183 307 -183 320.5 -175 c 128,-1,6
 334 -167 334 -167 334 -152 c 0,7,8
 334 -125 334 -125 302 -125 c 0,9,10
 280 -125 280 -125 264 -129 c 1,11,-1
 240 -117 l 1,12,-1
 255 -6 l 1,13,14
 188 7 188 7 137.5 47 c 128,-1,15
 87 87 87 87 60 146 c 128,-1,16
 33 205 33 205 33 274 c 0,17,18
 33 354 33 354 69 419 c 128,-1,19
 105 484 105 484 168 521 c 128,-1,20
 231 558 231 558 308 558 c 0,21,22
 392 558 392 558 453 523 c 128,-1,23
 514 488 514 488 546 426.5 c 128,-1,24
 578 365 578 365 578 289 c 0,25,26
 578 252 578 252 571 231 c 1,27,-1
 189 231 l 1,28,29
 195 179 195 179 229 148.5 c 128,-1,30
 263 118 263 118 318 118 c 2,31,-1
 518 118 l 1,32,-1
 518 -12 l 1,33,-1
 354 -12 l 1,34,-1
 350 -62 l 1,35,-1
 363 -61 l 2,36,37
 404 -61 404 -61 429.5 -85 c 128,-1,38
 455 -109 455 -109 455 -149 c 0,39,40
 455 -198 455 -198 414 -229.5 c 128,-1,41
 373 -261 373 -261 295 -261 c 0,42,0
 243 -261 243 -261 207 -251 c 1,1,-1
256 789 m 1,43,44
 256 769 256 769 270 757 c 128,-1,45
 284 745 284 745 306 745 c 256,46,47
 328 745 328 745 342 757 c 128,-1,48
 356 769 356 769 356 789 c 1,49,-1
 475 789 l 1,50,51
 475 750 475 750 452.5 715.5 c 128,-1,52
 430 681 430 681 391 660.5 c 128,-1,53
 352 640 352 640 306 640 c 0,54,55
 261 640 261 640 222 660.5 c 128,-1,56
 183 681 183 681 160 715.5 c 128,-1,57
 137 750 137 750 137 789 c 1,58,-1
 256 789 l 1,43,44
419 341 m 1,59,60
 414 385 414 385 384 411.5 c 128,-1,61
 354 438 354 438 308 438 c 0,62,63
 263 438 263 438 232.5 413 c 128,-1,64
 202 388 202 388 192 341 c 1,65,-1
 419 341 l 1,59,60
EndSplineSet
Validated: 1
EndChar

StartChar: eogonek
Encoding: 281 281 461
Width: 611
GlyphClass: 2
Flags: W
AnchorPoint: "Anchor-6" 306 546 basechar 0
AnchorPoint: "Anchor-5" 318 41 basechar 0
AnchorPoint: "Anchor-4" 306 0 basechar 0
LayerCount: 2
Fore
SplineSet
297 -11 m 1,0,1
 239 -34 239 -34 239 -71 c 0,2,3
 239 -91 239 -91 255.5 -104 c 128,-1,4
 272 -117 272 -117 302 -117 c 0,5,6
 346 -117 346 -117 395 -88 c 1,7,-1
 440 -167 l 1,8,9
 370 -222 370 -222 286 -222 c 0,10,11
 216 -222 216 -222 170 -190 c 128,-1,12
 124 -158 124 -158 124 -102 c 0,13,14
 124 -66 124 -66 143.5 -36.5 c 128,-1,15
 163 -7 163 -7 197 12 c 1,16,17
 120 45 120 45 76.5 115.5 c 128,-1,18
 33 186 33 186 33 274 c 0,19,20
 33 354 33 354 69 419 c 128,-1,21
 105 484 105 484 168 521 c 128,-1,22
 231 558 231 558 308 558 c 0,23,24
 392 558 392 558 453 523 c 128,-1,25
 514 488 514 488 546 426.5 c 128,-1,26
 578 365 578 365 578 289 c 0,27,28
 578 252 578 252 571 231 c 1,29,-1
 189 231 l 1,30,31
 196 179 196 179 230.5 148.5 c 128,-1,32
 265 118 265 118 320 118 c 0,33,34
 359 118 359 118 388 134 c 128,-1,35
 417 150 417 150 433 178 c 1,36,-1
 553 121 l 1,37,38
 528 61 528 61 464.5 24.5 c 128,-1,39
 401 -12 401 -12 318 -12 c 2,40,-1
 297 -11 l 1,0,1
419 341 m 1,41,42
 414 385 414 385 384 411.5 c 128,-1,43
 354 438 354 438 308 438 c 0,44,45
 263 438 263 438 232.5 413 c 128,-1,46
 202 388 202 388 192 341 c 1,47,-1
 419 341 l 1,41,42
EndSplineSet
Validated: 1
Substitution2: "'ss03' Style Set 3 in Latin lookup 22 subtable" eogonek.ss03
Substitution2: "'aalt' Access All Alternates in Latin lookup 0 subtable" eogonek.ss03
EndChar

StartChar: eogonek.ss03
Encoding: 65700 -1 462
Width: 611
GlyphClass: 2
Flags: W
AnchorPoint: "Anchor-6" 306 546 basechar 0
AnchorPoint: "Anchor-5" 318 41 basechar 0
AnchorPoint: "Anchor-4" 306 0 basechar 0
LayerCount: 2
Fore
SplineSet
297 -11 m 1,0,1
 239 -34 239 -34 239 -71 c 0,2,3
 239 -91 239 -91 255.5 -104 c 128,-1,4
 272 -117 272 -117 302 -117 c 0,5,6
 346 -117 346 -117 395 -88 c 1,7,-1
 440 -167 l 1,8,9
 370 -222 370 -222 286 -222 c 0,10,11
 216 -222 216 -222 170 -190 c 128,-1,12
 124 -158 124 -158 124 -102 c 0,13,14
 124 -66 124 -66 143.5 -36.5 c 128,-1,15
 163 -7 163 -7 197 12 c 1,16,17
 120 45 120 45 76.5 115.5 c 128,-1,18
 33 186 33 186 33 274 c 0,19,20
 33 354 33 354 69 419 c 128,-1,21
 105 484 105 484 168 521 c 128,-1,22
 231 558 231 558 308 558 c 0,23,24
 392 558 392 558 453 523 c 128,-1,25
 514 488 514 488 546 426.5 c 128,-1,26
 578 365 578 365 578 289 c 0,27,28
 578 252 578 252 571 231 c 1,29,-1
 189 231 l 1,30,31
 195 179 195 179 229 148.5 c 128,-1,32
 263 118 263 118 318 118 c 2,33,-1
 518 118 l 1,34,-1
 518 -12 l 1,35,-1
 318 -12 l 1,36,-1
 297 -11 l 1,0,1
419 341 m 1,37,38
 414 385 414 385 384 411.5 c 128,-1,39
 354 438 354 438 308 438 c 0,40,41
 263 438 263 438 232.5 413 c 128,-1,42
 202 388 202 388 192 341 c 1,43,-1
 419 341 l 1,37,38
EndSplineSet
Validated: 1
EndChar

StartChar: uni0259
Encoding: 601 601 465
Width: 611
GlyphClass: 1
Flags: W
LayerCount: 2
Fore
SplineSet
158 23 m 128,-1,1
 97 58 97 58 65 119.5 c 128,-1,2
 33 181 33 181 33 257 c 0,3,4
 33 294 33 294 40 315 c 1,5,-1
 422 315 l 1,6,7
 415 367 415 367 380.5 397.5 c 128,-1,8
 346 428 346 428 291 428 c 0,9,10
 252 428 252 428 223 412 c 128,-1,11
 194 396 194 396 178 368 c 1,12,-1
 58 425 l 1,13,14
 83 485 83 485 146.5 521.5 c 128,-1,15
 210 558 210 558 293 558 c 0,16,17
 377 558 377 558 442 520 c 128,-1,18
 507 482 507 482 542.5 416.5 c 128,-1,19
 578 351 578 351 578 272 c 0,20,21
 578 192 578 192 542 127 c 128,-1,22
 506 62 506 62 443 25 c 128,-1,23
 380 -12 380 -12 303 -12 c 0,24,0
 219 -12 219 -12 158 23 c 128,-1,1
227 134.5 m 128,-1,26
 257 108 257 108 303 108 c 0,27,28
 348 108 348 108 378.5 133 c 128,-1,29
 409 158 409 158 419 205 c 1,30,-1
 192 205 l 1,31,25
 197 161 197 161 227 134.5 c 128,-1,26
EndSplineSet
Validated: 1
EndChar

StartChar: f
Encoding: 102 102 466
Width: 410
GlyphClass: 2
Flags: W
AnchorPoint: "Anchor-6" 205 784 basechar 0
AnchorPoint: "Anchor-4" 205 0 basechar 0
LayerCount: 2
Fore
SplineSet
121 402 m 1,0,-1
 29 402 l 1,1,-1
 29 532 l 1,2,-1
 121 532 l 1,3,-1
 121 540 l 2,4,5
 121 646 121 646 178 707.5 c 128,-1,6
 235 769 235 769 336 769 c 0,7,8
 366 769 366 769 389 764 c 1,9,-1
 389 636 l 1,10,11
 370 639 370 639 356 639 c 0,12,13
 271 639 271 639 271 540 c 2,14,-1
 271 532 l 1,15,-1
 388 532 l 1,16,-1
 388 402 l 1,17,-1
 271 402 l 1,18,-1
 271 0 l 1,19,-1
 121 0 l 1,20,-1
 121 402 l 1,0,-1
EndSplineSet
Validated: 1
Substitution2: "'ss01' Style Set 1 in Latin lookup 20 subtable" f.ss01
Substitution2: "'salt' Stylistic Alternatives in Latin lookup 19 subtable" f.ss01
Substitution2: "'aalt' Access All Alternates in Latin lookup 0 subtable" f.ss01
EndChar

StartChar: f.ss01
Encoding: 65702 -1 467
Width: 410
GlyphClass: 1
Flags: W
LayerCount: 2
Fore
SplineSet
121 416 m 1,0,-1
 29 416 l 1,1,-1
 29 546 l 1,2,-1
 121 546 l 1,3,-1
 121 745 l 1,4,-1
 389 745 l 1,5,-1
 389 625 l 1,6,-1
 271 625 l 1,7,-1
 271 546 l 1,8,-1
 388 546 l 1,9,-1
 388 416 l 1,10,-1
 271 416 l 1,11,-1
 271 0 l 1,12,-1
 121 0 l 1,13,-1
 121 416 l 1,0,-1
EndSplineSet
Validated: 1
EndChar

StartChar: g
Encoding: 103 103 468
Width: 648
GlyphClass: 2
Flags: W
AnchorPoint: "Anchor-6" 324 546 basechar 0
AnchorPoint: "Anchor-4" 324 -240 basechar 0
LayerCount: 2
Fore
SplineSet
156 -174.5 m 128,-1,1
 84 -129 84 -129 58 -52 c 1,2,-1
 197 -3 l 1,3,4
 208 -41 208 -41 242 -63 c 128,-1,5
 276 -85 276 -85 323 -85 c 0,6,7
 379 -85 379 -85 411 -54.5 c 128,-1,8
 443 -24 443 -24 443 29 c 2,9,-1
 443 81 l 1,10,11
 389 27 389 27 297 27 c 0,12,13
 222 27 222 27 161.5 61.5 c 128,-1,14
 101 96 101 96 67 157 c 128,-1,15
 33 218 33 218 33 294 c 0,16,17
 33 369 33 369 66.5 429.5 c 128,-1,18
 100 490 100 490 159.5 524 c 128,-1,19
 219 558 219 558 294 558 c 0,20,21
 395 558 395 558 453 489 c 1,22,-1
 453 546 l 1,23,-1
 593 546 l 1,24,-1
 593 29 l 2,25,26
 593 -43 593 -43 558.5 -99.5 c 128,-1,27
 524 -156 524 -156 462.5 -188 c 128,-1,28
 401 -220 401 -220 323 -220 c 0,29,0
 228 -220 228 -220 156 -174.5 c 128,-1,1
224.5 199 m 128,-1,31
 261 163 261 163 318 163 c 0,32,33
 374 163 374 163 408.5 198.5 c 128,-1,34
 443 234 443 234 443 292 c 256,35,36
 443 350 443 350 408.5 386.5 c 128,-1,37
 374 423 374 423 318 423 c 0,38,39
 261 423 261 423 224.5 386.5 c 128,-1,40
 188 350 188 350 188 292 c 0,41,30
 188 235 188 235 224.5 199 c 128,-1,31
EndSplineSet
Validated: 1
Substitution2: "'ss03' Style Set 3 in Latin lookup 22 subtable" g.ss03
Substitution2: "'ss01' Style Set 1 in Latin lookup 20 subtable" g.ss01
Substitution2: "'salt' Stylistic Alternatives in Latin lookup 19 subtable" g.ss01
AlternateSubs2: "'aalt' Access All Alternates in Latin lookup 1 subtable" g.ss01 g.ss03
EndChar

StartChar: g.ss01
Encoding: 65703 -1 469
Width: 648
GlyphClass: 2
Flags: W
AnchorPoint: "Anchor-6" 324 546 basechar 0
AnchorPoint: "Anchor-4" 324 -240 basechar 0
LayerCount: 2
Fore
SplineSet
98 -90 m 1,0,-1
 443 -90 l 1,1,-1
 443 81 l 1,2,3
 389 27 389 27 297 27 c 0,4,5
 222 27 222 27 161.5 61.5 c 128,-1,6
 101 96 101 96 67 157 c 128,-1,7
 33 218 33 218 33 294 c 0,8,9
 33 369 33 369 66.5 429.5 c 128,-1,10
 100 490 100 490 159.5 524 c 128,-1,11
 219 558 219 558 294 558 c 0,12,13
 395 558 395 558 453 489 c 1,14,-1
 453 546 l 1,15,-1
 593 546 l 1,16,-1
 593 -220 l 1,17,-1
 98 -220 l 1,18,-1
 98 -90 l 1,0,-1
224.5 199 m 128,-1,20
 261 163 261 163 318 163 c 0,21,22
 374 163 374 163 408.5 198.5 c 128,-1,23
 443 234 443 234 443 292 c 256,24,25
 443 350 443 350 408.5 386.5 c 128,-1,26
 374 423 374 423 318 423 c 0,27,28
 261 423 261 423 224.5 386.5 c 128,-1,29
 188 350 188 350 188 292 c 0,30,19
 188 235 188 235 224.5 199 c 128,-1,20
EndSplineSet
Validated: 1
EndChar

StartChar: g.ss03
Encoding: 65704 -1 470
Width: 648
GlyphClass: 2
Flags: W
AnchorPoint: "Anchor-6" 324 546 basechar 0
AnchorPoint: "Anchor-4" 324 -240 basechar 0
LayerCount: 2
Fore
SplineSet
121 -90 m 1,0,-1
 321 -90 l 2,1,2
 379 -90 379 -90 411 -62.5 c 128,-1,3
 443 -35 443 -35 443 14 c 2,4,-1
 443 81 l 1,5,6
 389 27 389 27 297 27 c 0,7,8
 222 27 222 27 161.5 61.5 c 128,-1,9
 101 96 101 96 67 157 c 128,-1,10
 33 218 33 218 33 294 c 0,11,12
 33 369 33 369 66.5 429.5 c 128,-1,13
 100 490 100 490 159.5 524 c 128,-1,14
 219 558 219 558 294 558 c 0,15,16
 395 558 395 558 453 489 c 1,17,-1
 453 546 l 1,18,-1
 593 546 l 1,19,-1
 593 14 l 2,20,21
 593 -96 593 -96 521 -158 c 128,-1,22
 449 -220 449 -220 321 -220 c 2,23,-1
 121 -220 l 1,24,-1
 121 -90 l 1,0,-1
224.5 199 m 128,-1,26
 261 163 261 163 318 163 c 0,27,28
 374 163 374 163 408.5 198.5 c 128,-1,29
 443 234 443 234 443 292 c 256,30,31
 443 350 443 350 408.5 386.5 c 128,-1,32
 374 423 374 423 318 423 c 0,33,34
 261 423 261 423 224.5 386.5 c 128,-1,35
 188 350 188 350 188 292 c 0,36,25
 188 235 188 235 224.5 199 c 128,-1,26
EndSplineSet
Validated: 1
EndChar

StartChar: h
Encoding: 104 104 489
Width: 599
GlyphClass: 2
Flags: W
AnchorPoint: "Anchor-6" 130 757 basechar 0
AnchorPoint: "Anchor-4" 300 0 basechar 0
LayerCount: 2
Fore
SplineSet
55 757 m 1,0,-1
 205 757 l 1,1,-1
 205 496 l 1,2,3
 227 527 227 527 264 542.5 c 128,-1,4
 301 558 301 558 348 558 c 0,5,6
 409 558 409 558 456 532 c 128,-1,7
 503 506 503 506 529 459 c 128,-1,8
 555 412 555 412 555 351 c 2,9,-1
 555 0 l 1,10,-1
 405 0 l 1,11,-1
 405 319 l 2,12,13
 405 366 405 366 377.5 394.5 c 128,-1,14
 350 423 350 423 305 423 c 256,15,16
 260 423 260 423 232.5 394.5 c 128,-1,17
 205 366 205 366 205 319 c 2,18,-1
 205 0 l 1,19,-1
 55 0 l 1,20,-1
 55 757 l 1,0,-1
EndSplineSet
Validated: 1
Substitution2: "'ss03' Style Set 3 in Latin lookup 22 subtable" h.ss03
Substitution2: "'ss01' Style Set 1 in Latin lookup 20 subtable" h.ss01
Substitution2: "'salt' Stylistic Alternatives in Latin lookup 19 subtable" h.ss01
AlternateSubs2: "'aalt' Access All Alternates in Latin lookup 1 subtable" h.ss01 h.ss03
EndChar

StartChar: h.ss01
Encoding: 65717 -1 490
Width: 599
GlyphClass: 2
Flags: W
AnchorPoint: "Anchor-6" 130 757 basechar 0
AnchorPoint: "Anchor-4" 300 0 basechar 0
LayerCount: 2
Fore
SplineSet
405 416 m 1,0,-1
 205 416 l 1,1,-1
 205 0 l 1,2,-1
 55 0 l 1,3,-1
 55 757 l 1,4,-1
 205 757 l 1,5,-1
 205 546 l 1,6,-1
 555 546 l 1,7,-1
 555 0 l 1,8,-1
 405 0 l 1,9,-1
 405 416 l 1,0,-1
EndSplineSet
Validated: 1
EndChar

StartChar: h.ss03
Encoding: 65718 -1 491
Width: 599
GlyphClass: 2
Flags: W
AnchorPoint: "Anchor-6" 130 757 basechar 0
AnchorPoint: "Anchor-4" 300 0 basechar 0
LayerCount: 2
Fore
SplineSet
55 757 m 1,0,-1
 205 757 l 1,1,-1
 205 546 l 1,2,-1
 314 546 l 2,3,4
 426 546 426 546 490.5 488.5 c 128,-1,5
 555 431 555 431 555 332 c 2,6,-1
 555 0 l 1,7,-1
 405 0 l 1,8,-1
 405 324 l 2,9,10
 405 366 405 366 380 391 c 128,-1,11
 355 416 355 416 314 416 c 2,12,-1
 205 416 l 1,13,-1
 205 0 l 1,14,-1
 55 0 l 1,15,-1
 55 757 l 1,0,-1
EndSplineSet
Validated: 1
EndChar

StartChar: hbar
Encoding: 295 295 492
Width: 599
GlyphClass: 2
Flags: W
AnchorPoint: "Anchor-6" 130 757 basechar 0
AnchorPoint: "Anchor-4" 300 0 basechar 0
LayerCount: 2
Fore
SplineSet
55 595 m 1,0,-1
 -45 595 l 1,1,-1
 -45 685 l 1,2,-1
 55 685 l 1,3,-1
 55 757 l 1,4,-1
 205 757 l 1,5,-1
 205 685 l 1,6,-1
 305 685 l 1,7,-1
 305 595 l 1,8,-1
 205 595 l 1,9,-1
 205 496 l 1,10,11
 227 527 227 527 264 542.5 c 128,-1,12
 301 558 301 558 348 558 c 0,13,14
 409 558 409 558 456 532 c 128,-1,15
 503 506 503 506 529 459 c 128,-1,16
 555 412 555 412 555 351 c 2,17,-1
 555 0 l 1,18,-1
 405 0 l 1,19,-1
 405 319 l 2,20,21
 405 366 405 366 377.5 394.5 c 128,-1,22
 350 423 350 423 305 423 c 256,23,24
 260 423 260 423 232.5 394.5 c 128,-1,25
 205 366 205 366 205 319 c 2,26,-1
 205 0 l 1,27,-1
 55 0 l 1,28,-1
 55 595 l 1,0,-1
EndSplineSet
Validated: 1
Substitution2: "'ss03' Style Set 3 in Latin lookup 22 subtable" hbar.ss03
Substitution2: "'ss01' Style Set 1 in Latin lookup 20 subtable" hbar.ss01
Substitution2: "'salt' Stylistic Alternatives in Latin lookup 19 subtable" hbar.ss01
AlternateSubs2: "'aalt' Access All Alternates in Latin lookup 1 subtable" hbar.ss01 hbar.ss03
EndChar

StartChar: hbar.ss01
Encoding: 65719 -1 493
Width: 599
GlyphClass: 2
Flags: W
AnchorPoint: "Anchor-6" 130 757 basechar 0
AnchorPoint: "Anchor-4" 300 0 basechar 0
LayerCount: 2
Fore
SplineSet
405 416 m 1,0,-1
 205 416 l 1,1,-1
 205 0 l 1,2,-1
 55 0 l 1,3,-1
 55 595 l 1,4,-1
 -45 595 l 1,5,-1
 -45 685 l 1,6,-1
 55 685 l 1,7,-1
 55 757 l 1,8,-1
 205 757 l 1,9,-1
 205 685 l 1,10,-1
 305 685 l 1,11,-1
 305 595 l 1,12,-1
 205 595 l 1,13,-1
 205 546 l 1,14,-1
 555 546 l 1,15,-1
 555 0 l 1,16,-1
 405 0 l 1,17,-1
 405 416 l 1,0,-1
EndSplineSet
Validated: 1
EndChar

StartChar: hbar.ss03
Encoding: 65720 -1 494
Width: 599
GlyphClass: 2
Flags: W
AnchorPoint: "Anchor-6" 130 757 basechar 0
AnchorPoint: "Anchor-4" 300 0 basechar 0
LayerCount: 2
Fore
SplineSet
55 595 m 1,0,-1
 -45 595 l 1,1,-1
 -45 685 l 1,2,-1
 55 685 l 1,3,-1
 55 757 l 1,4,-1
 205 757 l 1,5,-1
 205 685 l 1,6,-1
 305 685 l 1,7,-1
 305 595 l 1,8,-1
 205 595 l 1,9,-1
 205 546 l 1,10,-1
 314 546 l 2,11,12
 426 546 426 546 490.5 488.5 c 128,-1,13
 555 431 555 431 555 332 c 2,14,-1
 555 0 l 1,15,-1
 405 0 l 1,16,-1
 405 324 l 2,17,18
 405 366 405 366 380 391 c 128,-1,19
 355 416 355 416 314 416 c 2,20,-1
 205 416 l 1,21,-1
 205 0 l 1,22,-1
 55 0 l 1,23,-1
 55 595 l 1,0,-1
EndSplineSet
Validated: 1
EndChar

StartChar: i
Encoding: 105 105 504
Width: 260
GlyphClass: 2
Flags: W
AnchorPoint: "Anchor-4" 130 0 basechar 0
LayerCount: 2
Fore
SplineSet
55 546 m 1,0,-1
 205 546 l 1,1,-1
 205 0 l 1,2,-1
 55 0 l 1,3,-1
 55 546 l 1,0,-1
68 762.5 m 128,-1,5
 90 784 90 784 130 784 c 0,6,7
 171 784 171 784 192.5 762.5 c 128,-1,8
 214 741 214 741 214 700 c 256,9,10
 214 659 214 659 192.5 637.5 c 128,-1,11
 171 616 171 616 130 616 c 0,12,13
 90 616 90 616 68 638 c 128,-1,14
 46 660 46 660 46 700 c 0,15,4
 46 741 46 741 68 762.5 c 128,-1,5
EndSplineSet
Validated: 1
Substitution2: "Single Substitution lookup 25 subtable" dotlessi
Substitution2: "'ss01' Style Set 1 in Latin lookup 20 subtable" i.ss01
Substitution2: "'salt' Stylistic Alternatives in Latin lookup 19 subtable" i.ss01
Substitution2: "'locl' Localized Forms in Latin lookup 5 subtable" i.loclTRK
AlternateSubs2: "'aalt' Access All Alternates in Latin lookup 1 subtable" i.loclTRK i.ss01
EndChar

StartChar: i.ss01
Encoding: 65727 -1 505
Width: 323
GlyphClass: 2
Flags: W
AnchorPoint: "Anchor-4" 193 0 basechar 0
LayerCount: 2
Fore
SplineSet
118 416 m 1,0,-1
 28 416 l 1,1,-1
 28 546 l 1,2,-1
 268 546 l 1,3,-1
 268 0 l 1,4,-1
 118 0 l 1,5,-1
 118 416 l 1,0,-1
118 745 m 1,6,-1
 268 745 l 1,7,-1
 268 595 l 1,8,-1
 118 595 l 1,9,-1
 118 745 l 1,6,-1
EndSplineSet
Validated: 1
EndChar

StartChar: dotlessi
Encoding: 305 305 506
Width: 238
GlyphClass: 2
Flags: W
AnchorPoint: "Anchor-6" 119 546 basechar 0
AnchorPoint: "Anchor-5" 119 41 basechar 0
AnchorPoint: "Anchor-4" 119 0 basechar 0
LayerCount: 2
Fore
SplineSet
44 546 m 1,0,-1
 194 546 l 1,1,-1
 194 0 l 1,2,-1
 44 0 l 1,3,-1
 44 546 l 1,0,-1
EndSplineSet
Validated: 1
Substitution2: "'ss01' Style Set 1 in Latin lookup 20 subtable" dotlessi.ss01
Substitution2: "'salt' Stylistic Alternatives in Latin lookup 19 subtable" dotlessi.ss01
Substitution2: "'aalt' Access All Alternates in Latin lookup 0 subtable" dotlessi.ss01
EndChar

StartChar: dotlessi.ss01
Encoding: 65728 -1 507
Width: 306
GlyphClass: 2
Flags: W
AnchorPoint: "Anchor-6" 187 546 basechar 0
AnchorPoint: "Anchor-5" 187 41 basechar 0
AnchorPoint: "Anchor-4" 187 0 basechar 0
LayerCount: 2
Fore
SplineSet
112 416 m 1,0,-1
 22 416 l 1,1,-1
 22 546 l 1,2,-1
 262 546 l 1,3,-1
 262 0 l 1,4,-1
 112 0 l 1,5,-1
 112 416 l 1,0,-1
EndSplineSet
Validated: 1
EndChar

StartChar: iogonek
Encoding: 303 303 532
Width: 238
GlyphClass: 2
Flags: W
AnchorPoint: "Anchor-6" 119 546 basechar 0
AnchorPoint: "Anchor-5" 119 41 basechar 0
AnchorPoint: "Anchor-4" 119 0 basechar 0
LayerCount: 2
Fore
SplineSet
64 663 m 128,-1,1
 41 686 41 686 41 718 c 256,2,3
 41 750 41 750 64 772.5 c 128,-1,4
 87 795 87 795 119 795 c 256,5,6
 151 795 151 795 173.5 772.5 c 128,-1,7
 196 750 196 750 196 718 c 0,8,9
 196 685 196 685 173.5 662.5 c 128,-1,10
 151 640 151 640 119 640 c 256,11,0
 87 640 87 640 64 663 c 128,-1,1
-42 -19.5 m 128,-1,13
 -9 16 -9 16 44 32 c 1,14,-1
 44 546 l 1,15,-1
 194 546 l 1,16,-1
 194 0 l 1,17,-1
 136 0 l 1,18,19
 40 -22 40 -22 40 -71 c 0,20,21
 40 -91 40 -91 56.5 -104 c 128,-1,22
 73 -117 73 -117 103 -117 c 0,23,24
 147 -117 147 -117 196 -88 c 1,25,-1
 241 -167 l 1,26,27
 171 -222 171 -222 87 -222 c 0,28,29
 17 -222 17 -222 -29 -190 c 128,-1,30
 -75 -158 -75 -158 -75 -102 c 0,31,12
 -75 -55 -75 -55 -42 -19.5 c 128,-1,13
EndSplineSet
Validated: 1
Substitution2: "'ss01' Style Set 1 in Latin lookup 20 subtable" iogonek.ss01
Substitution2: "'salt' Stylistic Alternatives in Latin lookup 19 subtable" iogonek.ss01
Substitution2: "'aalt' Access All Alternates in Latin lookup 0 subtable" iogonek.ss01
EndChar

StartChar: iogonek.ss01
Encoding: 65742 -1 533
Width: 306
GlyphClass: 2
Flags: W
AnchorPoint: "Anchor-6" 187 546 basechar 0
AnchorPoint: "Anchor-5" 187 41 basechar 0
AnchorPoint: "Anchor-4" 187 0 basechar 0
LayerCount: 2
Fore
SplineSet
132 663 m 128,-1,1
 109 686 109 686 109 718 c 256,2,3
 109 750 109 750 132 772.5 c 128,-1,4
 155 795 155 795 187 795 c 256,5,6
 219 795 219 795 241.5 772.5 c 128,-1,7
 264 750 264 750 264 718 c 0,8,9
 264 685 264 685 241.5 662.5 c 128,-1,10
 219 640 219 640 187 640 c 256,11,0
 155 640 155 640 132 663 c 128,-1,1
26 -19.5 m 128,-1,13
 59 16 59 16 112 32 c 1,14,-1
 112 416 l 1,15,-1
 22 416 l 1,16,-1
 22 546 l 1,17,-1
 262 546 l 1,18,-1
 262 0 l 1,19,-1
 204 0 l 1,20,21
 108 -22 108 -22 108 -71 c 0,22,23
 108 -91 108 -91 124.5 -104 c 128,-1,24
 141 -117 141 -117 171 -117 c 0,25,26
 215 -117 215 -117 264 -88 c 1,27,-1
 309 -167 l 1,28,29
 239 -222 239 -222 155 -222 c 0,30,31
 85 -222 85 -222 39 -190 c 128,-1,32
 -7 -158 -7 -158 -7 -102 c 0,33,12
 -7 -55 -7 -55 26 -19.5 c 128,-1,13
EndSplineSet
Validated: 1
EndChar

StartChar: j
Encoding: 106 106 536
Width: 260
GlyphClass: 1
Flags: W
LayerCount: 2
Fore
SplineSet
-65 -217 m 1,1,-1
 -65 -89 l 1,2,3
 -49 -92 -49 -92 -31 -92 c 0,4,5
 55 -92 55 -92 55 -20 c 2,6,-1
 55 546 l 1,7,-1
 205 546 l 1,8,-1
 205 -20 l 2,9,10
 205 -116 205 -116 148 -169 c 128,-1,11
 91 -222 91 -222 -11 -222 c 0,12,0
 -43 -222 -43 -222 -65 -217 c 1,1,-1
68 762.5 m 128,-1,14
 90 784 90 784 130 784 c 0,15,16
 171 784 171 784 192.5 762.5 c 128,-1,17
 214 741 214 741 214 700 c 256,18,19
 214 659 214 659 192.5 637.5 c 128,-1,20
 171 616 171 616 130 616 c 0,21,22
 90 616 90 616 68 638 c 128,-1,23
 46 660 46 660 46 700 c 0,24,13
 46 741 46 741 68 762.5 c 128,-1,14
EndSplineSet
Validated: 1
Substitution2: "Single Substitution lookup 25 subtable" uni0237
Substitution2: "'ss02' Style Set 2 in Latin lookup 21 subtable" j.ss02
Substitution2: "'ss01' Style Set 1 in Latin lookup 20 subtable" j.ss01
Substitution2: "'salt' Stylistic Alternatives in Latin lookup 19 subtable" j.ss01
AlternateSubs2: "'aalt' Access All Alternates in Latin lookup 1 subtable" j.ss01 j.ss02
EndChar

StartChar: j.ss01
Encoding: 65744 -1 537
Width: 250
GlyphClass: 1
Flags: W
LayerCount: 2
Fore
SplineSet
-65 -92 m 1,0,-1
 45 -92 l 1,1,-1
 45 546 l 1,2,-1
 195 546 l 1,3,-1
 195 -222 l 1,4,-1
 -65 -222 l 1,5,-1
 -65 -92 l 1,0,-1
45 745 m 1,6,-1
 195 745 l 1,7,-1
 195 595 l 1,8,-1
 45 595 l 1,9,-1
 45 745 l 1,6,-1
EndSplineSet
Validated: 1
EndChar

StartChar: j.ss02
Encoding: 65745 -1 538
Width: 293
GlyphClass: 1
Flags: W
LayerCount: 2
Fore
SplineSet
-33 -217 m 1,1,-1
 -33 -89 l 1,2,3
 -17 -92 -17 -92 2 -92 c 0,4,5
 88 -92 88 -92 88 -20 c 2,6,-1
 88 416 l 1,7,-1
 -3 416 l 1,8,-1
 -3 546 l 1,9,-1
 238 546 l 1,10,-1
 238 -20 l 2,11,12
 238 -116 238 -116 181 -169 c 128,-1,13
 124 -222 124 -222 22 -222 c 0,14,0
 -11 -222 -11 -222 -33 -217 c 1,1,-1
88 745 m 1,15,-1
 238 745 l 1,16,-1
 238 595 l 1,17,-1
 88 595 l 1,18,-1
 88 745 l 1,15,-1
EndSplineSet
Validated: 1
EndChar

StartChar: uni0237
Encoding: 567 567 539
Width: 260
GlyphClass: 2
Flags: W
AnchorPoint: "Anchor-6" 130 546 basechar 0
AnchorPoint: "Anchor-4" 130 -240 basechar 0
LayerCount: 2
Fore
SplineSet
-65 -217 m 1,1,-1
 -65 -89 l 1,2,3
 -49 -92 -49 -92 -31 -92 c 0,4,5
 55 -92 55 -92 55 -20 c 2,6,-1
 55 546 l 1,7,-1
 205 546 l 1,8,-1
 205 -20 l 2,9,10
 205 -116 205 -116 148 -169 c 128,-1,11
 91 -222 91 -222 -11 -222 c 0,12,0
 -43 -222 -43 -222 -65 -217 c 1,1,-1
EndSplineSet
Validated: 1
Substitution2: "'ss02' Style Set 2 in Latin lookup 21 subtable" uni0237.ss02
Substitution2: "'ss01' Style Set 1 in Latin lookup 20 subtable" uni0237.ss01
Substitution2: "'salt' Stylistic Alternatives in Latin lookup 19 subtable" uni0237.ss01
AlternateSubs2: "'aalt' Access All Alternates in Latin lookup 1 subtable" uni0237.ss01 uni0237.ss02
EndChar

StartChar: uni0237.ss01
Encoding: 65746 -1 540
Width: 250
GlyphClass: 2
Flags: W
AnchorPoint: "Anchor-6" 120 546 basechar 0
AnchorPoint: "Anchor-4" 125 -240 basechar 0
LayerCount: 2
Fore
SplineSet
-65 -92 m 1,0,-1
 45 -92 l 1,1,-1
 45 546 l 1,2,-1
 195 546 l 1,3,-1
 195 -222 l 1,4,-1
 -65 -222 l 1,5,-1
 -65 -92 l 1,0,-1
EndSplineSet
Validated: 1
EndChar

StartChar: uni0237.ss02
Encoding: 65747 -1 541
Width: 303
GlyphClass: 2
Flags: W
AnchorPoint: "Anchor-6" 173 546 basechar 0
AnchorPoint: "Anchor-4" 173 -240 basechar 0
LayerCount: 2
Fore
SplineSet
-22 -217 m 1,1,-1
 -22 -89 l 1,2,3
 -6 -92 -6 -92 12 -92 c 0,4,5
 98 -92 98 -92 98 -20 c 2,6,-1
 98 416 l 1,7,-1
 8 416 l 1,8,-1
 8 546 l 1,9,-1
 248 546 l 1,10,-1
 248 -20 l 2,11,12
 248 -116 248 -116 191 -169 c 128,-1,13
 134 -222 134 -222 32 -222 c 0,14,0
 0 -222 0 -222 -22 -217 c 1,1,-1
EndSplineSet
Validated: 1
EndChar

StartChar: k
Encoding: 107 107 545
Width: 586
GlyphClass: 2
Flags: W
AnchorPoint: "Anchor-6" 293 784 basechar 0
AnchorPoint: "Anchor-4" 293 0 basechar 0
LayerCount: 2
Fore
SplineSet
55 757 m 1,0,-1
 205 757 l 1,1,-1
 205 349 l 1,2,-1
 390 546 l 1,3,-1
 575 546 l 1,4,-1
 377 326 l 1,5,-1
 574 0 l 1,6,-1
 404 0 l 1,7,-1
 265 233 l 1,8,-1
 205 167 l 1,9,-1
 205 0 l 1,10,-1
 55 0 l 1,11,-1
 55 757 l 1,0,-1
EndSplineSet
Validated: 1
Substitution2: "'ss01' Style Set 1 in Latin lookup 20 subtable" k.ss01
Substitution2: "'salt' Stylistic Alternatives in Latin lookup 19 subtable" k.ss01
Substitution2: "'aalt' Access All Alternates in Latin lookup 0 subtable" k.ss01
EndChar

StartChar: k.ss01
Encoding: 65750 -1 546
Width: 586
GlyphClass: 1
Flags: W
LayerCount: 2
Fore
SplineSet
255 218 m 1,0,-1
 205 218 l 1,1,-1
 205 0 l 1,2,-1
 55 0 l 1,3,-1
 55 757 l 1,4,-1
 205 757 l 1,5,-1
 205 348 l 1,6,-1
 264 348 l 1,7,-1
 390 546 l 1,8,-1
 554 546 l 1,9,-1
 386 276 l 1,10,-1
 575 0 l 1,11,-1
 406 0 l 1,12,-1
 255 218 l 1,0,-1
EndSplineSet
Validated: 1
EndChar

StartChar: kgreenlandic
Encoding: 312 312 549
Width: 586
GlyphClass: 1
Flags: W
LayerCount: 2
Fore
SplineSet
255 218 m 1,0,-1
 205 218 l 1,1,-1
 205 0 l 1,2,-1
 55 0 l 1,3,-1
 55 546 l 1,4,-1
 205 546 l 1,5,-1
 205 348 l 1,6,-1
 264 348 l 1,7,-1
 390 546 l 1,8,-1
 554 546 l 1,9,-1
 386 276 l 1,10,-1
 575 0 l 1,11,-1
 406 0 l 1,12,-1
 255 218 l 1,0,-1
EndSplineSet
Validated: 1
EndChar

StartChar: l
Encoding: 108 108 550
Width: 260
GlyphClass: 2
Flags: W
AnchorPoint: "Anchor-7" 260 595 basechar 0
AnchorPoint: "Anchor-6" 130 745 basechar 0
AnchorPoint: "Anchor-4" 130 0 basechar 0
LayerCount: 2
Fore
SplineSet
55 757 m 1,0,-1
 205 757 l 1,1,-1
 205 0 l 1,2,-1
 55 0 l 1,3,-1
 55 757 l 1,0,-1
EndSplineSet
Validated: 1
Substitution2: "'ss03' Style Set 3 in Latin lookup 22 subtable" l.ss03
Substitution2: "'ss01' Style Set 1 in Latin lookup 20 subtable" l.ss01
Substitution2: "'salt' Stylistic Alternatives in Latin lookup 19 subtable" l.ss01
AlternateSubs2: "'aalt' Access All Alternates in Latin lookup 1 subtable" l.ss01 l.ss03
EndChar

StartChar: l.ss01
Encoding: 65752 -1 551
Width: 303
GlyphClass: 2
Flags: W
AnchorPoint: "Anchor-7" 260 595 basechar 0
AnchorPoint: "Anchor-6" 130 745 basechar 0
AnchorPoint: "Anchor-4" 130 0 basechar 0
LayerCount: 2
Fore
SplineSet
55 757 m 1,0,-1
 205 757 l 1,1,-1
 205 130 l 1,2,-1
 275 130 l 1,3,-1
 275 0 l 1,4,-1
 55 0 l 1,5,-1
 55 757 l 1,0,-1
EndSplineSet
Validated: 1
EndChar

StartChar: l.ss03
Encoding: 65753 -1 552
Width: 303
GlyphClass: 2
Flags: W
AnchorPoint: "Anchor-7" 260 595 basechar 0
AnchorPoint: "Anchor-6" 130 745 basechar 0
AnchorPoint: "Anchor-4" 130 0 basechar 0
LayerCount: 2
Fore
SplineSet
101.5 37.5 m 128,-1,1
 55 81 55 81 55 174 c 2,2,-1
 55 757 l 1,3,-1
 205 757 l 1,4,-1
 205 185 l 2,5,6
 205 155 205 155 222 139.5 c 128,-1,7
 239 124 239 124 271 124 c 2,8,-1
 275 124 l 1,9,-1
 275 -6 l 1,10,-1
 248 -6 l 2,11,0
 148 -6 148 -6 101.5 37.5 c 128,-1,1
EndSplineSet
Validated: 1
EndChar

StartChar: ldot
Encoding: 320 320 562
Width: 445
GlyphClass: 2
Flags: W
AnchorPoint: "Anchor-7" 260 595 basechar 0
AnchorPoint: "Anchor-6" 130 745 basechar 0
AnchorPoint: "Anchor-4" 130 0 basechar 0
LayerCount: 2
Fore
SplineSet
55 757 m 1,0,-1
 205 757 l 1,1,-1
 205 0 l 1,2,-1
 55 0 l 1,3,-1
 55 757 l 1,0,-1
285 426.5 m 128,-1,5
 308 449 308 449 340 449 c 256,6,7
 372 449 372 449 394.5 426.5 c 128,-1,8
 417 404 417 404 417 372 c 0,9,10
 417 339 417 339 394.5 316.5 c 128,-1,11
 372 294 372 294 340 294 c 256,12,13
 308 294 308 294 285 317 c 128,-1,14
 262 340 262 340 262 372 c 256,15,4
 262 404 262 404 285 426.5 c 128,-1,5
EndSplineSet
Validated: 1
Substitution2: "'ss03' Style Set 3 in Latin lookup 22 subtable" ldot.ss03
Substitution2: "'ss01' Style Set 1 in Latin lookup 20 subtable" ldot.ss01
Substitution2: "'salt' Stylistic Alternatives in Latin lookup 19 subtable" ldot.ss01
AlternateSubs2: "'aalt' Access All Alternates in Latin lookup 1 subtable" ldot.ss01 ldot.ss03
EndChar

StartChar: ldot.ss01
Encoding: 65760 -1 563
Width: 445
GlyphClass: 2
Flags: W
AnchorPoint: "Anchor-7" 260 595 basechar 0
AnchorPoint: "Anchor-6" 130 745 basechar 0
AnchorPoint: "Anchor-4" 130 0 basechar 0
LayerCount: 2
Fore
SplineSet
55 757 m 1,0,-1
 205 757 l 1,1,-1
 205 130 l 1,2,-1
 275 130 l 1,3,-1
 275 0 l 1,4,-1
 55 0 l 1,5,-1
 55 757 l 1,0,-1
285 426.5 m 128,-1,7
 308 449 308 449 340 449 c 256,8,9
 372 449 372 449 394.5 426.5 c 128,-1,10
 417 404 417 404 417 372 c 0,11,12
 417 339 417 339 394.5 316.5 c 128,-1,13
 372 294 372 294 340 294 c 256,14,15
 308 294 308 294 285 317 c 128,-1,16
 262 340 262 340 262 372 c 256,17,6
 262 404 262 404 285 426.5 c 128,-1,7
EndSplineSet
Validated: 1
EndChar

StartChar: ldot.ss03
Encoding: 65761 -1 564
Width: 445
GlyphClass: 2
Flags: W
AnchorPoint: "Anchor-7" 260 595 basechar 0
AnchorPoint: "Anchor-6" 130 745 basechar 0
AnchorPoint: "Anchor-4" 130 0 basechar 0
LayerCount: 2
Fore
SplineSet
101.5 37.5 m 128,-1,1
 55 81 55 81 55 174 c 2,2,-1
 55 757 l 1,3,-1
 205 757 l 1,4,-1
 205 185 l 2,5,6
 205 155 205 155 222 139.5 c 128,-1,7
 239 124 239 124 271 124 c 2,8,-1
 275 124 l 1,9,-1
 275 -6 l 1,10,-1
 248 -6 l 2,11,0
 148 -6 148 -6 101.5 37.5 c 128,-1,1
285 426.5 m 128,-1,13
 308 449 308 449 340 449 c 256,14,15
 372 449 372 449 394.5 426.5 c 128,-1,16
 417 404 417 404 417 372 c 0,17,18
 417 339 417 339 394.5 316.5 c 128,-1,19
 372 294 372 294 340 294 c 256,20,21
 308 294 308 294 285 317 c 128,-1,22
 262 340 262 340 262 372 c 256,23,12
 262 404 262 404 285 426.5 c 128,-1,13
EndSplineSet
Validated: 1
EndChar

StartChar: lslash
Encoding: 322 322 572
Width: 260
GlyphClass: 2
Flags: W
AnchorPoint: "Anchor-7" 260 595 basechar 0
AnchorPoint: "Anchor-6" 130 745 basechar 0
AnchorPoint: "Anchor-4" 130 0 basechar 0
LayerCount: 2
Fore
SplineSet
55 319 m 1,0,-1
 -20 294 l 1,1,-1
 -20 389 l 1,2,-1
 55 414 l 1,3,-1
 55 757 l 1,4,-1
 205 757 l 1,5,-1
 205 464 l 1,6,-1
 280 489 l 1,7,-1
 280 394 l 1,8,-1
 205 369 l 1,9,-1
 205 0 l 1,10,-1
 55 0 l 1,11,-1
 55 319 l 1,0,-1
EndSplineSet
Validated: 1
Substitution2: "'ss03' Style Set 3 in Latin lookup 22 subtable" lslash.ss03
Substitution2: "'ss01' Style Set 1 in Latin lookup 20 subtable" lslash.ss01
Substitution2: "'salt' Stylistic Alternatives in Latin lookup 19 subtable" lslash.ss01
AlternateSubs2: "'aalt' Access All Alternates in Latin lookup 1 subtable" lslash.ss01 lslash.ss03
EndChar

StartChar: lslash.ss01
Encoding: 65766 -1 573
Width: 303
GlyphClass: 2
Flags: W
AnchorPoint: "Anchor-7" 260 595 basechar 0
AnchorPoint: "Anchor-6" 130 745 basechar 0
AnchorPoint: "Anchor-4" 130 0 basechar 0
LayerCount: 2
Fore
SplineSet
55 319 m 1,0,-1
 -20 294 l 1,1,-1
 -20 389 l 1,2,-1
 55 414 l 1,3,-1
 55 757 l 1,4,-1
 205 757 l 1,5,-1
 205 464 l 1,6,-1
 280 489 l 1,7,-1
 280 394 l 1,8,-1
 205 369 l 1,9,-1
 205 130 l 1,10,-1
 275 130 l 1,11,-1
 275 0 l 1,12,-1
 55 0 l 1,13,-1
 55 319 l 1,0,-1
EndSplineSet
Validated: 1
EndChar

StartChar: lslash.ss03
Encoding: 65767 -1 574
Width: 303
GlyphClass: 2
Flags: W
AnchorPoint: "Anchor-7" 260 595 basechar 0
AnchorPoint: "Anchor-6" 130 745 basechar 0
AnchorPoint: "Anchor-4" 130 0 basechar 0
LayerCount: 2
Fore
SplineSet
101.5 37.5 m 128,-1,1
 55 81 55 81 55 174 c 2,2,-1
 55 319 l 1,3,-1
 -20 294 l 1,4,-1
 -20 389 l 1,5,-1
 55 414 l 1,6,-1
 55 757 l 1,7,-1
 205 757 l 1,8,-1
 205 464 l 1,9,-1
 280 489 l 1,10,-1
 280 394 l 1,11,-1
 205 369 l 1,12,-1
 205 185 l 2,13,14
 205 155 205 155 222 139.5 c 128,-1,15
 239 124 239 124 271 124 c 2,16,-1
 275 124 l 1,17,-1
 275 -6 l 1,18,-1
 248 -6 l 2,19,0
 148 -6 148 -6 101.5 37.5 c 128,-1,1
EndSplineSet
Validated: 1
EndChar

StartChar: m
Encoding: 109 109 575
Width: 929
GlyphClass: 2
Flags: W
AnchorPoint: "Anchor-6" 465 546 basechar 0
AnchorPoint: "Anchor-4" 465 0 basechar 0
LayerCount: 2
Fore
SplineSet
55 546 m 1,0,-1
 195 546 l 1,1,-1
 195 479 l 1,2,3
 215 519 215 519 255 538.5 c 128,-1,4
 295 558 295 558 348 558 c 0,5,6
 402 558 402 558 446.5 535.5 c 128,-1,7
 491 513 491 513 514 475 c 1,8,9
 572 558 572 558 683 558 c 0,10,11
 742 558 742 558 787.5 532 c 128,-1,12
 833 506 833 506 859 459 c 128,-1,13
 885 412 885 412 885 351 c 2,14,-1
 885 0 l 1,15,-1
 735 0 l 1,16,-1
 735 319 l 2,17,18
 735 367 735 367 709.5 395 c 128,-1,19
 684 423 684 423 640 423 c 256,20,21
 596 423 596 423 570.5 395 c 128,-1,22
 545 367 545 367 545 319 c 2,23,-1
 545 0 l 1,24,-1
 395 0 l 1,25,-1
 395 319 l 2,26,27
 395 367 395 367 369.5 395 c 128,-1,28
 344 423 344 423 300 423 c 256,29,30
 256 423 256 423 230.5 395 c 128,-1,31
 205 367 205 367 205 319 c 2,32,-1
 205 0 l 1,33,-1
 55 0 l 1,34,-1
 55 546 l 1,0,-1
EndSplineSet
Validated: 1
Substitution2: "'ss03' Style Set 3 in Latin lookup 22 subtable" m.ss03
Substitution2: "'ss01' Style Set 1 in Latin lookup 20 subtable" m.ss01
Substitution2: "'salt' Stylistic Alternatives in Latin lookup 19 subtable" m.ss01
AlternateSubs2: "'aalt' Access All Alternates in Latin lookup 1 subtable" m.ss01 m.ss03
EndChar

StartChar: m.ss01
Encoding: 65768 -1 576
Width: 929
GlyphClass: 1
Flags: W
LayerCount: 2
Fore
SplineSet
55 546 m 1,0,-1
 885 546 l 1,1,-1
 885 0 l 1,2,-1
 735 0 l 1,3,-1
 735 416 l 1,4,-1
 545 416 l 1,5,-1
 545 0 l 1,6,-1
 395 0 l 1,7,-1
 395 416 l 1,8,-1
 205 416 l 1,9,-1
 205 0 l 1,10,-1
 55 0 l 1,11,-1
 55 546 l 1,0,-1
EndSplineSet
Validated: 1
EndChar

StartChar: m.ss03
Encoding: 65769 -1 577
Width: 929
GlyphClass: 2
Flags: W
AnchorPoint: "Anchor-6" 465 546 basechar 0
AnchorPoint: "Anchor-4" 465 0 basechar 0
LayerCount: 2
Fore
SplineSet
55 546 m 1,0,-1
 644 546 l 2,1,2
 756 546 756 546 820.5 488.5 c 128,-1,3
 885 431 885 431 885 332 c 2,4,-1
 885 0 l 1,5,-1
 735 0 l 1,6,-1
 735 324 l 2,7,8
 735 366 735 366 710 391 c 128,-1,9
 685 416 685 416 644 416 c 2,10,-1
 545 416 l 1,11,-1
 545 0 l 1,12,-1
 395 0 l 1,13,-1
 395 416 l 1,14,-1
 205 416 l 1,15,-1
 205 0 l 1,16,-1
 55 0 l 1,17,-1
 55 546 l 1,0,-1
EndSplineSet
Validated: 1
EndChar

StartChar: n
Encoding: 110 110 581
Width: 599
GlyphClass: 2
Flags: W
AnchorPoint: "Anchor-6" 300 546 basechar 0
AnchorPoint: "Anchor-4" 300 0 basechar 0
LayerCount: 2
Fore
SplineSet
55 546 m 1,0,-1
 195 546 l 1,1,-1
 195 480 l 1,2,3
 216 519 216 519 255.5 538.5 c 128,-1,4
 295 558 295 558 348 558 c 0,5,6
 409 558 409 558 456 532 c 128,-1,7
 503 506 503 506 529 459 c 128,-1,8
 555 412 555 412 555 351 c 2,9,-1
 555 0 l 1,10,-1
 405 0 l 1,11,-1
 405 319 l 2,12,13
 405 366 405 366 377.5 394.5 c 128,-1,14
 350 423 350 423 305 423 c 256,15,16
 260 423 260 423 232.5 394.5 c 128,-1,17
 205 366 205 366 205 319 c 2,18,-1
 205 0 l 1,19,-1
 55 0 l 1,20,-1
 55 546 l 1,0,-1
EndSplineSet
Validated: 1
Substitution2: "'ss03' Style Set 3 in Latin lookup 22 subtable" n.ss03
Substitution2: "'ss01' Style Set 1 in Latin lookup 20 subtable" n.ss01
Substitution2: "'salt' Stylistic Alternatives in Latin lookup 19 subtable" n.ss01
AlternateSubs2: "'aalt' Access All Alternates in Latin lookup 1 subtable" n.ss01 n.ss03
EndChar

StartChar: n.ss01
Encoding: 65772 -1 582
Width: 610
GlyphClass: 2
Flags: W
AnchorPoint: "Anchor-6" 305 546 basechar 0
AnchorPoint: "Anchor-4" 305 0 basechar 0
LayerCount: 2
Fore
SplineSet
55 546 m 1,0,-1
 555 546 l 1,1,-1
 555 0 l 1,2,-1
 405 0 l 1,3,-1
 405 416 l 1,4,-1
 205 416 l 1,5,-1
 205 0 l 1,6,-1
 55 0 l 1,7,-1
 55 546 l 1,0,-1
EndSplineSet
Validated: 1
EndChar

StartChar: n.ss03
Encoding: 65773 -1 583
Width: 599
GlyphClass: 2
Flags: W
AnchorPoint: "Anchor-6" 300 546 basechar 0
AnchorPoint: "Anchor-4" 300 0 basechar 0
LayerCount: 2
Fore
SplineSet
55 546 m 1,0,-1
 314 546 l 2,1,2
 426 546 426 546 490.5 488.5 c 128,-1,3
 555 431 555 431 555 332 c 2,4,-1
 555 0 l 1,5,-1
 405 0 l 1,6,-1
 405 324 l 2,7,8
 405 366 405 366 380 391 c 128,-1,9
 355 416 355 416 314 416 c 2,10,-1
 205 416 l 1,11,-1
 205 0 l 1,12,-1
 55 0 l 1,13,-1
 55 546 l 1,0,-1
EndSplineSet
Validated: 1
EndChar

StartChar: eng
Encoding: 331 331 608
Width: 600
GlyphClass: 1
Flags: W
LayerCount: 2
Fore
SplineSet
280 -217 m 1,1,-1
 280 -89 l 1,2,3
 297 -92 297 -92 314 -92 c 0,4,5
 400 -92 400 -92 400 -20 c 2,6,-1
 400 319 l 2,7,8
 400 366 400 366 372.5 394.5 c 128,-1,9
 345 423 345 423 300 423 c 256,10,11
 255 423 255 423 227.5 394.5 c 128,-1,12
 200 366 200 366 200 319 c 2,13,-1
 200 0 l 1,14,-1
 50 0 l 1,15,-1
 50 546 l 1,16,-1
 190 546 l 1,17,-1
 190 480 l 1,18,19
 211 519 211 519 250.5 538.5 c 128,-1,20
 290 558 290 558 343 558 c 0,21,22
 404 558 404 558 451 532 c 128,-1,23
 498 506 498 506 524 459 c 128,-1,24
 550 412 550 412 550 351 c 2,25,-1
 550 -20 l 2,26,27
 550 -116 550 -116 493 -169 c 128,-1,28
 436 -222 436 -222 334 -222 c 0,29,0
 302 -222 302 -222 280 -217 c 1,1,-1
EndSplineSet
Validated: 1
Substitution2: "'ss03' Style Set 3 in Latin lookup 22 subtable" eng.ss03
Substitution2: "'ss01' Style Set 1 in Latin lookup 20 subtable" eng.ss01
Substitution2: "'salt' Stylistic Alternatives in Latin lookup 19 subtable" eng.ss01
AlternateSubs2: "'aalt' Access All Alternates in Latin lookup 1 subtable" eng.ss01 eng.ss03
EndChar

StartChar: eng.ss01
Encoding: 65790 -1 609
Width: 599
GlyphClass: 1
Flags: W
LayerCount: 2
Fore
SplineSet
285 -217 m 1,1,-1
 285 -89 l 1,2,3
 302 -92 302 -92 319 -92 c 0,4,5
 405 -92 405 -92 405 -20 c 2,6,-1
 405 416 l 1,7,-1
 205 416 l 1,8,-1
 205 0 l 1,9,-1
 55 0 l 1,10,-1
 55 546 l 1,11,-1
 555 546 l 1,12,-1
 555 -20 l 2,13,14
 555 -116 555 -116 498 -169 c 128,-1,15
 441 -222 441 -222 339 -222 c 0,16,0
 307 -222 307 -222 285 -217 c 1,1,-1
EndSplineSet
Validated: 1
EndChar

StartChar: eng.ss03
Encoding: 65791 -1 610
Width: 599
GlyphClass: 1
Flags: W
LayerCount: 2
Fore
SplineSet
285 -217 m 1,1,-1
 285 -89 l 1,2,3
 302 -92 302 -92 319 -92 c 0,4,5
 405 -92 405 -92 405 -20 c 2,6,-1
 405 324 l 2,7,8
 405 366 405 366 380 391 c 128,-1,9
 355 416 355 416 314 416 c 2,10,-1
 205 416 l 1,11,-1
 205 0 l 1,12,-1
 55 0 l 1,13,-1
 55 546 l 1,14,-1
 314 546 l 2,15,16
 426 546 426 546 490.5 488.5 c 128,-1,17
 555 431 555 431 555 332 c 2,18,-1
 555 -20 l 2,19,20
 555 -116 555 -116 498 -169 c 128,-1,21
 441 -222 441 -222 339 -222 c 0,22,0
 307 -222 307 -222 285 -217 c 1,1,-1
EndSplineSet
Validated: 1
EndChar

StartChar: o
Encoding: 111 111 611
Width: 651
GlyphClass: 2
Flags: W
AnchorPoint: "Anchor-7" 631 546 basechar 0
AnchorPoint: "Anchor-6" 326 546 basechar 0
AnchorPoint: "Anchor-5" 326 41 basechar 0
AnchorPoint: "Anchor-4" 326 0 basechar 0
LayerCount: 2
Fore
SplineSet
178.5 25 m 128,-1,1
 111 62 111 62 72 127 c 128,-1,2
 33 192 33 192 33 273 c 256,3,4
 33 354 33 354 72 419 c 128,-1,5
 111 484 111 484 178.5 521 c 128,-1,6
 246 558 246 558 326 558 c 256,7,8
 406 558 406 558 473 521 c 128,-1,9
 540 484 540 484 579 419 c 128,-1,10
 618 354 618 354 618 273 c 256,11,12
 618 192 618 192 579 127 c 128,-1,13
 540 62 540 62 473 25 c 128,-1,14
 406 -12 406 -12 326 -12 c 256,15,0
 246 -12 246 -12 178.5 25 c 128,-1,1
226.5 165 m 128,-1,17
 265 123 265 123 326 123 c 256,18,19
 387 123 387 123 425 165 c 128,-1,20
 463 207 463 207 463 273 c 256,21,22
 463 339 463 339 424.5 381 c 128,-1,23
 386 423 386 423 326 423 c 0,24,25
 265 423 265 423 226.5 381 c 128,-1,26
 188 339 188 339 188 273 c 256,27,16
 188 207 188 207 226.5 165 c 128,-1,17
EndSplineSet
Validated: 1
Substitution2: "Single Substitution lookup 28 subtable" ordmasculine
Substitution2: "'aalt' Access All Alternates in Latin lookup 0 subtable" ordmasculine
EndChar

StartChar: ohorn
Encoding: 417 417 627
Width: 651
GlyphClass: 2
Flags: W
AnchorPoint: "Anchor-7" 631 546 basechar 0
AnchorPoint: "Anchor-6" 326 546 basechar 0
AnchorPoint: "Anchor-5" 326 41 basechar 0
AnchorPoint: "Anchor-4" 326 0 basechar 0
LayerCount: 2
Fore
SplineSet
178.5 25 m 128,-1,1
 111 62 111 62 72 127 c 128,-1,2
 33 192 33 192 33 273 c 256,3,4
 33 354 33 354 72 419 c 128,-1,5
 111 484 111 484 178.5 521 c 128,-1,6
 246 558 246 558 326 558 c 2,7,-1
 430 558 l 2,8,9
 449 558 449 558 463 566 c 128,-1,10
 477 574 477 574 477 607 c 0,11,12
 477 633 477 633 457 683 c 1,13,-1
 583 683 l 1,14,15
 595 658 595 658 600.5 638.5 c 128,-1,16
 606 619 606 619 606 594 c 0,17,18
 606 506 606 506 538 472 c 1,19,20
 576 433 576 433 597 382.5 c 128,-1,21
 618 332 618 332 618 273 c 0,22,23
 618 192 618 192 579 127 c 128,-1,24
 540 62 540 62 473 25 c 128,-1,25
 406 -12 406 -12 326 -12 c 256,26,0
 246 -12 246 -12 178.5 25 c 128,-1,1
226.5 165 m 128,-1,28
 265 123 265 123 326 123 c 256,29,30
 387 123 387 123 425 165 c 128,-1,31
 463 207 463 207 463 273 c 256,32,33
 463 339 463 339 424.5 381 c 128,-1,34
 386 423 386 423 326 423 c 0,35,36
 265 423 265 423 226.5 381 c 128,-1,37
 188 339 188 339 188 273 c 256,38,27
 188 207 188 207 226.5 165 c 128,-1,28
EndSplineSet
Validated: 1
EndChar

StartChar: uni1EE1
Encoding: 7905 7905 632
Width: 651
GlyphClass: 2
Flags: W
AnchorPoint: "Anchor-7" 631 546 basechar 0
AnchorPoint: "Anchor-6" 326 546 basechar 0
AnchorPoint: "Anchor-5" 326 41 basechar 0
LayerCount: 2
Fore
SplineSet
178.5 25 m 128,-1,1
 111 62 111 62 72 127 c 128,-1,2
 33 192 33 192 33 273 c 256,3,4
 33 354 33 354 72 419 c 128,-1,5
 111 484 111 484 178.5 521 c 128,-1,6
 246 558 246 558 326 558 c 2,7,-1
 430 558 l 2,8,9
 449 558 449 558 463 566 c 128,-1,10
 477 574 477 574 477 607 c 0,11,12
 477 628 477 628 464 665 c 1,13,14
 441 642 441 642 403 642 c 0,15,16
 377 642 377 642 360.5 649.5 c 128,-1,17
 344 657 344 657 322 672 c 0,18,19
 309 682 309 682 301 686.5 c 128,-1,20
 293 691 293 691 283 691 c 0,21,22
 267 691 267 691 260 679 c 128,-1,23
 253 667 253 667 251 646 c 1,24,-1
 158 646 l 1,25,26
 158 722 158 722 186 756.5 c 128,-1,27
 214 791 214 791 260 791 c 0,28,29
 283 791 283 791 299 783 c 128,-1,30
 315 775 315 775 332 761 c 0,31,32
 345 751 345 751 353 746.5 c 128,-1,33
 361 742 361 742 371 742 c 0,34,35
 385 742 385 742 393 755 c 128,-1,36
 401 768 401 768 401 786 c 1,37,-1
 494 786 l 1,38,39
 494 718 494 718 476 683 c 1,40,-1
 583 683 l 1,41,42
 595 658 595 658 600.5 638.5 c 128,-1,43
 606 619 606 619 606 594 c 0,44,45
 606 506 606 506 538 472 c 1,46,47
 576 433 576 433 597 382.5 c 128,-1,48
 618 332 618 332 618 273 c 0,49,50
 618 192 618 192 579 127 c 128,-1,51
 540 62 540 62 473 25 c 128,-1,52
 406 -12 406 -12 326 -12 c 256,53,0
 246 -12 246 -12 178.5 25 c 128,-1,1
226.5 165 m 128,-1,55
 265 123 265 123 326 123 c 256,56,57
 387 123 387 123 425 165 c 128,-1,58
 463 207 463 207 463 273 c 256,59,60
 463 339 463 339 424.5 381 c 128,-1,61
 386 423 386 423 326 423 c 0,62,63
 265 423 265 423 226.5 381 c 128,-1,64
 188 339 188 339 188 273 c 256,65,54
 188 207 188 207 226.5 165 c 128,-1,55
EndSplineSet
Validated: 1
EndChar

StartChar: uni01EB
Encoding: 491 491 638
Width: 651
GlyphClass: 2
Flags: W
AnchorPoint: "Anchor-7" 631 546 basechar 0
AnchorPoint: "Anchor-6" 326 546 basechar 0
AnchorPoint: "Anchor-5" 326 41 basechar 0
AnchorPoint: "Anchor-4" 326 0 basechar 0
LayerCount: 2
Fore
SplineSet
305 -11 m 1,0,1
 247 -34 247 -34 247 -71 c 0,2,3
 247 -91 247 -91 263.5 -104 c 128,-1,4
 280 -117 280 -117 310 -117 c 0,5,6
 354 -117 354 -117 403 -88 c 1,7,-1
 448 -167 l 1,8,9
 378 -222 378 -222 294 -222 c 0,10,11
 224 -222 224 -222 178 -190 c 128,-1,12
 132 -158 132 -158 132 -102 c 0,13,14
 132 -66 132 -66 151.5 -36.5 c 128,-1,15
 171 -7 171 -7 205 12 c 1,16,17
 127 45 127 45 80 114.5 c 128,-1,18
 33 184 33 184 33 273 c 0,19,20
 33 354 33 354 72 419 c 128,-1,21
 111 484 111 484 178.5 521 c 128,-1,22
 246 558 246 558 326 558 c 256,23,24
 406 558 406 558 473 521 c 128,-1,25
 540 484 540 484 579 419 c 128,-1,26
 618 354 618 354 618 273 c 256,27,28
 618 192 618 192 579 127 c 128,-1,29
 540 62 540 62 473 25 c 128,-1,30
 406 -12 406 -12 326 -12 c 2,31,-1
 305 -11 l 1,0,1
226.5 165 m 128,-1,33
 265 123 265 123 326 123 c 256,34,35
 387 123 387 123 425 165 c 128,-1,36
 463 207 463 207 463 273 c 256,37,38
 463 339 463 339 424.5 381 c 128,-1,39
 386 423 386 423 326 423 c 0,40,41
 265 423 265 423 226.5 381 c 128,-1,42
 188 339 188 339 188 273 c 256,43,32
 188 207 188 207 226.5 165 c 128,-1,33
EndSplineSet
Validated: 1
EndChar

StartChar: oslash
Encoding: 248 248 639
Width: 651
GlyphClass: 2
Flags: W
AnchorPoint: "Anchor-7" 631 546 basechar 0
AnchorPoint: "Anchor-6" 326 546 basechar 0
AnchorPoint: "Anchor-5" 326 41 basechar 0
AnchorPoint: "Anchor-4" 326 0 basechar 0
LayerCount: 2
Fore
SplineSet
191 18 m 1,1,-1
 176 0 l 1,2,-1
 27 0 l 1,3,-1
 100 89 l 1,4,5
 68 126 68 126 50.5 173 c 128,-1,6
 33 220 33 220 33 273 c 0,7,8
 33 354 33 354 72 419 c 128,-1,9
 111 484 111 484 178.5 521 c 128,-1,10
 246 558 246 558 326 558 c 0,11,12
 397 558 397 558 460 528 c 1,13,-1
 475 546 l 1,14,-1
 624 546 l 1,15,-1
 551 457 l 1,16,17
 583 420 583 420 600.5 373 c 128,-1,18
 618 326 618 326 618 273 c 0,19,20
 618 192 618 192 579 127 c 128,-1,21
 540 62 540 62 473 25 c 128,-1,22
 406 -12 406 -12 326 -12 c 0,23,0
 254 -12 254 -12 191 18 c 1,1,-1
199 210 m 1,25,-1
 369 417 l 1,26,27
 350 423 350 423 326 423 c 0,28,29
 265 423 265 423 226.5 381 c 128,-1,30
 188 339 188 339 188 273 c 0,31,24
 188 240 188 240 199 210 c 1,25,-1
326 123 m 0,33,34
 387 123 387 123 425 165 c 128,-1,35
 463 207 463 207 463 273 c 0,36,37
 463 306 463 306 452 336 c 1,38,-1
 282 129 l 1,39,32
 303 123 303 123 326 123 c 0,33,34
EndSplineSet
Validated: 1
EndChar

StartChar: oe
Encoding: 339 339 645
Width: 1045
GlyphClass: 1
Flags: W
LayerCount: 2
Fore
SplineSet
178.5 25 m 128,-1,1
 111 62 111 62 72 127 c 128,-1,2
 33 192 33 192 33 273 c 256,3,4
 33 354 33 354 72 419 c 128,-1,5
 111 484 111 484 178.5 521 c 128,-1,6
 246 558 246 558 326 558 c 0,7,8
 388 558 388 558 443.5 535 c 128,-1,9
 499 512 499 512 540 470 c 1,10,11
 577 512 577 512 629.5 535 c 128,-1,12
 682 558 682 558 742 558 c 0,13,14
 826 558 826 558 887 523 c 128,-1,15
 948 488 948 488 980 426.5 c 128,-1,16
 1012 365 1012 365 1012 289 c 0,17,18
 1012 252 1012 252 1005 231 c 1,19,-1
 623 231 l 1,20,21
 630 179 630 179 664.5 148.5 c 128,-1,22
 699 118 699 118 754 118 c 0,23,24
 793 118 793 118 822 134 c 128,-1,25
 851 150 851 150 867 178 c 1,26,-1
 987 121 l 1,27,28
 962 61 962 61 898.5 24.5 c 128,-1,29
 835 -12 835 -12 752 -12 c 0,30,31
 687 -12 687 -12 633 11 c 128,-1,32
 579 34 579 34 540 76 c 1,33,34
 499 34 499 34 444 11 c 128,-1,35
 389 -12 389 -12 326 -12 c 0,36,0
 246 -12 246 -12 178.5 25 c 128,-1,1
226.5 165 m 128,-1,38
 265 123 265 123 326 123 c 256,39,40
 387 123 387 123 425 165 c 128,-1,41
 463 207 463 207 463 273 c 256,42,43
 463 339 463 339 424.5 381 c 128,-1,44
 386 423 386 423 326 423 c 0,45,46
 265 423 265 423 226.5 381 c 128,-1,47
 188 339 188 339 188 273 c 256,48,37
 188 207 188 207 226.5 165 c 128,-1,38
853 341 m 1,49,50
 848 385 848 385 818 411.5 c 128,-1,51
 788 438 788 438 742 438 c 0,52,53
 697 438 697 438 666.5 413 c 128,-1,54
 636 388 636 388 626 341 c 1,55,-1
 853 341 l 1,49,50
EndSplineSet
Validated: 1
EndChar

StartChar: p
Encoding: 112 112 646
Width: 673
GlyphClass: 2
Flags: W
AnchorPoint: "Anchor-6" 337 546 basechar 0
AnchorPoint: "Anchor-4" 337 0 basechar 0
LayerCount: 2
Fore
SplineSet
55 546 m 1,0,-1
 195 546 l 1,1,-1
 195 489 l 1,2,3
 223 522 223 522 266 540 c 128,-1,4
 309 558 309 558 362 558 c 0,5,6
 439 558 439 558 502.5 520 c 128,-1,7
 566 482 566 482 603 417 c 128,-1,8
 640 352 640 352 640 273 c 256,9,10
 640 194 640 194 603.5 129 c 128,-1,11
 567 64 567 64 503.5 26 c 128,-1,12
 440 -12 440 -12 361 -12 c 0,13,14
 315 -12 315 -12 274.5 2 c 128,-1,15
 234 16 234 16 205 42 c 1,16,-1
 205 -200 l 1,17,-1
 55 -200 l 1,18,-1
 55 546 l 1,0,-1
243.5 164.5 m 128,-1,20
 282 123 282 123 343 123 c 0,21,22
 405 123 405 123 445 165 c 128,-1,23
 485 207 485 207 485 273 c 0,24,25
 485 338 485 338 445 380.5 c 128,-1,26
 405 423 405 423 343 423 c 0,27,28
 282 423 282 423 243.5 381 c 128,-1,29
 205 339 205 339 205 273 c 0,30,19
 205 206 205 206 243.5 164.5 c 128,-1,20
EndSplineSet
Validated: 1
Substitution2: "'ss02' Style Set 2 in Latin lookup 21 subtable" p.ss02
Substitution2: "'aalt' Access All Alternates in Latin lookup 0 subtable" p.ss02
EndChar

StartChar: p.ss02
Encoding: 65792 -1 647
Width: 715
GlyphClass: 1
Flags: W
LayerCount: 2
Fore
SplineSet
98 416 m 1,0,-1
 28 416 l 1,1,-1
 28 546 l 1,2,-1
 238 546 l 1,3,-1
 238 489 l 1,4,5
 266 522 266 522 309 540 c 128,-1,6
 352 558 352 558 405 558 c 0,7,8
 481 558 481 558 544.5 520 c 128,-1,9
 608 482 608 482 645 417 c 128,-1,10
 682 352 682 352 682 273 c 256,11,12
 682 194 682 194 645.5 129 c 128,-1,13
 609 64 609 64 545.5 26 c 128,-1,14
 482 -12 482 -12 404 -12 c 0,15,16
 358 -12 358 -12 317.5 2 c 128,-1,17
 277 16 277 16 248 42 c 1,18,-1
 248 -200 l 1,19,-1
 98 -200 l 1,20,-1
 98 416 l 1,0,-1
286.5 164.5 m 128,-1,22
 325 123 325 123 386 123 c 0,23,24
 448 123 448 123 487.5 165 c 128,-1,25
 527 207 527 207 527 273 c 0,26,27
 527 338 527 338 487 380.5 c 128,-1,28
 447 423 447 423 386 423 c 256,29,30
 325 423 325 423 286.5 381 c 128,-1,31
 248 339 248 339 248 273 c 0,32,21
 248 206 248 206 286.5 164.5 c 128,-1,22
EndSplineSet
Validated: 1
EndChar

StartChar: thorn
Encoding: 254 254 648
Width: 673
GlyphClass: 1
Flags: W
LayerCount: 2
Fore
SplineSet
55 745 m 1,0,-1
 195 745 l 1,1,-1
 195 489 l 1,2,3
 223 522 223 522 266 540 c 128,-1,4
 309 558 309 558 362 558 c 0,5,6
 439 558 439 558 502.5 520 c 128,-1,7
 566 482 566 482 603 417 c 128,-1,8
 640 352 640 352 640 273 c 256,9,10
 640 194 640 194 603.5 129 c 128,-1,11
 567 64 567 64 503.5 26 c 128,-1,12
 440 -12 440 -12 361 -12 c 0,13,14
 315 -12 315 -12 274.5 2 c 128,-1,15
 234 16 234 16 205 42 c 1,16,-1
 205 -200 l 1,17,-1
 55 -200 l 1,18,-1
 55 745 l 1,0,-1
243.5 164.5 m 128,-1,20
 282 123 282 123 343 123 c 0,21,22
 405 123 405 123 445 165 c 128,-1,23
 485 207 485 207 485 273 c 0,24,25
 485 338 485 338 445 380.5 c 128,-1,26
 405 423 405 423 343 423 c 0,27,28
 282 423 282 423 243.5 381 c 128,-1,29
 205 339 205 339 205 273 c 0,30,19
 205 206 205 206 243.5 164.5 c 128,-1,20
EndSplineSet
Validated: 1
EndChar

StartChar: q
Encoding: 113 113 649
Width: 673
GlyphClass: 2
Flags: W
AnchorPoint: "Anchor-6" 337 546 basechar 0
AnchorPoint: "Anchor-4" 337 0 basechar 0
LayerCount: 2
Fore
SplineSet
468 42 m 1,0,1
 439 16 439 16 398.5 2 c 128,-1,2
 358 -12 358 -12 312 -12 c 0,3,4
 233 -12 233 -12 169.5 26 c 128,-1,5
 106 64 106 64 69.5 129 c 128,-1,6
 33 194 33 194 33 273 c 256,7,8
 33 352 33 352 70 417 c 128,-1,9
 107 482 107 482 170.5 520 c 128,-1,10
 234 558 234 558 311 558 c 0,11,12
 364 558 364 558 407 540 c 128,-1,13
 450 522 450 522 478 489 c 1,14,-1
 478 546 l 1,15,-1
 618 546 l 1,16,-1
 618 -200 l 1,17,-1
 468 -200 l 1,18,-1
 468 42 l 1,0,1
228 165 m 128,-1,20
 268 123 268 123 330 123 c 0,21,22
 391 123 391 123 429.5 164.5 c 128,-1,23
 468 206 468 206 468 273 c 0,24,25
 468 339 468 339 429.5 381 c 128,-1,26
 391 423 391 423 330 423 c 0,27,28
 268 423 268 423 228 380.5 c 128,-1,29
 188 338 188 338 188 273 c 0,30,19
 188 207 188 207 228 165 c 128,-1,20
EndSplineSet
Validated: 1
Substitution2: "'ss02' Style Set 2 in Latin lookup 21 subtable" q.ss02
Substitution2: "'aalt' Access All Alternates in Latin lookup 0 subtable" q.ss02
EndChar

StartChar: q.ss02
Encoding: 65793 -1 650
Width: 715
GlyphClass: 1
Flags: W
LayerCount: 2
Fore
SplineSet
467 42 m 1,0,1
 438 16 438 16 397.5 2 c 128,-1,2
 357 -12 357 -12 311 -12 c 0,3,4
 233 -12 233 -12 169.5 26 c 128,-1,5
 106 64 106 64 69.5 129 c 128,-1,6
 33 194 33 194 33 273 c 256,7,8
 33 352 33 352 70 417 c 128,-1,9
 107 482 107 482 170.5 520 c 128,-1,10
 234 558 234 558 310 558 c 0,11,12
 363 558 363 558 406 540 c 128,-1,13
 449 522 449 522 477 489 c 1,14,-1
 477 546 l 1,15,-1
 687 546 l 1,16,-1
 687 416 l 1,17,-1
 617 416 l 1,18,-1
 617 -200 l 1,19,-1
 467 -200 l 1,20,-1
 467 42 l 1,0,1
227.5 165 m 128,-1,22
 267 123 267 123 329 123 c 0,23,24
 390 123 390 123 428.5 164.5 c 128,-1,25
 467 206 467 206 467 273 c 0,26,27
 467 339 467 339 428.5 381 c 128,-1,28
 390 423 390 423 329 423 c 256,29,30
 268 423 268 423 228 380.5 c 128,-1,31
 188 338 188 338 188 273 c 0,32,21
 188 207 188 207 227.5 165 c 128,-1,22
EndSplineSet
Validated: 1
EndChar

StartChar: r
Encoding: 114 114 651
Width: 386
GlyphClass: 2
Flags: W
AnchorPoint: "Anchor-6" 215 546 basechar 0
AnchorPoint: "Anchor-4" 130 0 basechar 0
LayerCount: 2
Fore
SplineSet
55 546 m 1,0,-1
 195 546 l 1,1,-1
 195 464 l 1,2,3
 215 512 215 512 252 532 c 128,-1,4
 289 552 289 552 343 552 c 2,5,-1
 375 552 l 1,6,-1
 375 422 l 1,7,-1
 328 422 l 2,8,9
 272 422 272 422 238.5 388 c 128,-1,10
 205 354 205 354 205 294 c 2,11,-1
 205 0 l 1,12,-1
 55 0 l 1,13,-1
 55 546 l 1,0,-1
EndSplineSet
Validated: 1
Substitution2: "'ss02' Style Set 2 in Latin lookup 21 subtable" r.ss02
Substitution2: "'ss01' Style Set 1 in Latin lookup 20 subtable" r.ss01
Substitution2: "'salt' Stylistic Alternatives in Latin lookup 19 subtable" r.ss01
AlternateSubs2: "'aalt' Access All Alternates in Latin lookup 1 subtable" r.ss01 r.ss02
EndChar

StartChar: r.ss01
Encoding: 65794 -1 652
Width: 386
GlyphClass: 2
Flags: W
AnchorPoint: "Anchor-6" 215 546 basechar 0
AnchorPoint: "Anchor-4" 130 0 basechar 0
LayerCount: 2
Fore
SplineSet
55 546 m 1,0,-1
 375 546 l 1,1,-1
 375 416 l 1,2,-1
 205 416 l 1,3,-1
 205 0 l 1,4,-1
 55 0 l 1,5,-1
 55 546 l 1,0,-1
EndSplineSet
Validated: 1
EndChar

StartChar: r.ss02
Encoding: 65795 -1 653
Width: 449
GlyphClass: 2
Flags: W
AnchorPoint: "Anchor-6" 233 546 basechar 0
AnchorPoint: "Anchor-4" 203 0 basechar 0
LayerCount: 2
Fore
SplineSet
28 130 m 1,0,-1
 118 130 l 1,1,-1
 118 416 l 1,2,-1
 28 416 l 1,3,-1
 28 546 l 1,4,-1
 258 546 l 1,5,-1
 258 466 l 1,6,7
 279 513 279 513 315.5 532.5 c 128,-1,8
 352 552 352 552 406 552 c 2,9,-1
 438 552 l 1,10,-1
 438 422 l 1,11,-1
 391 422 l 2,12,13
 335 422 335 422 301.5 388 c 128,-1,14
 268 354 268 354 268 294 c 2,15,-1
 268 130 l 1,16,-1
 378 130 l 1,17,-1
 378 0 l 1,18,-1
 28 0 l 1,19,-1
 28 130 l 1,0,-1
EndSplineSet
Validated: 1
EndChar

StartChar: s
Encoding: 115 115 675
Width: 515
GlyphClass: 2
Flags: W
AnchorPoint: "Anchor-6" 258 546 basechar 0
AnchorPoint: "Anchor-4" 258 0 basechar 0
LayerCount: 2
Fore
SplineSet
116.5 28.5 m 128,-1,1
 52 68 52 68 27 137 c 1,2,-1
 135 193 l 1,3,4
 157 151 157 151 192 127.5 c 128,-1,5
 227 104 227 104 270 104 c 0,6,7
 303 104 303 104 321 117 c 128,-1,8
 339 130 339 130 339 153 c 0,9,10
 339 171 339 171 325 184 c 128,-1,11
 311 197 311 197 283 202 c 2,12,-1
 190 220 l 2,13,14
 122 236 122 236 83.5 280.5 c 128,-1,15
 45 325 45 325 45 386 c 0,16,17
 45 437 45 437 71.5 476 c 128,-1,18
 98 515 98 515 146.5 536.5 c 128,-1,19
 195 558 195 558 258 558 c 0,20,21
 334 558 334 558 392 522.5 c 128,-1,22
 450 487 450 487 477 423 c 1,23,-1
 368 367 l 1,24,25
 355 399 355 399 324 418.5 c 128,-1,26
 293 438 293 438 255 438 c 0,27,28
 224 438 224 438 207 426 c 128,-1,29
 190 414 190 414 190 393 c 0,30,31
 190 376 190 376 204.5 363.5 c 128,-1,32
 219 351 219 351 251 343 c 2,33,-1
 338 325 l 1,34,35
 408 306 408 306 446 263.5 c 128,-1,36
 484 221 484 221 484 161 c 0,37,38
 484 110 484 110 457 71 c 128,-1,39
 430 32 430 32 381 10.5 c 128,-1,40
 332 -11 332 -11 267 -11 c 0,41,0
 181 -11 181 -11 116.5 28.5 c 128,-1,1
EndSplineSet
Validated: 1
EndChar

StartChar: scedilla
Encoding: 351 351 680
Width: 515
GlyphClass: 2
Flags: W
AnchorPoint: "Anchor-4" 258 0 basechar 0
LayerCount: 2
Fore
SplineSet
159 -251 m 1,1,-1
 172 -175 l 1,2,3
 196 -183 196 -183 234 -183 c 0,4,5
 259 -183 259 -183 272.5 -175 c 128,-1,6
 286 -167 286 -167 286 -152 c 0,7,8
 286 -125 286 -125 254 -125 c 0,9,10
 232 -125 232 -125 216 -129 c 1,11,-1
 192 -117 l 1,12,-1
 207 -6 l 1,13,14
 142 6 142 6 95 43.5 c 128,-1,15
 48 81 48 81 27 137 c 1,16,-1
 135 193 l 1,17,18
 157 151 157 151 192 127.5 c 128,-1,19
 227 104 227 104 270 104 c 0,20,21
 303 104 303 104 321 117 c 128,-1,22
 339 130 339 130 339 153 c 0,23,24
 339 171 339 171 325 184 c 128,-1,25
 311 197 311 197 283 202 c 2,26,-1
 190 220 l 2,27,28
 122 236 122 236 83.5 280.5 c 128,-1,29
 45 325 45 325 45 386 c 0,30,31
 45 437 45 437 71.5 476 c 128,-1,32
 98 515 98 515 146.5 536.5 c 128,-1,33
 195 558 195 558 258 558 c 0,34,35
 334 558 334 558 392 522.5 c 128,-1,36
 450 487 450 487 477 423 c 1,37,-1
 368 367 l 1,38,39
 355 399 355 399 324 418.5 c 128,-1,40
 293 438 293 438 255 438 c 0,41,42
 224 438 224 438 207 426 c 128,-1,43
 190 414 190 414 190 393 c 0,44,45
 190 376 190 376 204.5 363.5 c 128,-1,46
 219 351 219 351 251 343 c 2,47,-1
 338 325 l 1,48,49
 408 306 408 306 446 263.5 c 128,-1,50
 484 221 484 221 484 161 c 0,51,52
 484 92 484 92 436 46 c 128,-1,53
 388 0 388 0 306 -9 c 1,54,-1
 302 -62 l 1,55,-1
 315 -61 l 2,56,57
 356 -61 356 -61 381.5 -85 c 128,-1,58
 407 -109 407 -109 407 -149 c 0,59,60
 407 -198 407 -198 366 -229.5 c 128,-1,61
 325 -261 325 -261 247 -261 c 0,62,0
 195 -261 195 -261 159 -251 c 1,1,-1
EndSplineSet
Validated: 1
Substitution2: "'locl' Localized Forms in Latin lookup 6 subtable" uni0219
Substitution2: "'aalt' Access All Alternates in Latin lookup 0 subtable" uni0219
EndChar

StartChar: germandbls
Encoding: 223 223 686
Width: 654
GlyphClass: 1
Flags: W
LayerCount: 2
Fore
SplineSet
100.5 631.5 m 128,-1,1
 135 692 135 692 196.5 724.5 c 128,-1,2
 258 757 258 757 336 757 c 0,3,4
 412 757 412 757 469.5 729.5 c 128,-1,5
 527 702 527 702 558.5 652.5 c 128,-1,6
 590 603 590 603 590 539 c 0,7,8
 590 498 590 498 571 462 c 128,-1,9
 552 426 552 426 517 402 c 1,10,11
 572 375 572 375 596.5 334.5 c 128,-1,12
 621 294 621 294 621 232 c 0,13,14
 621 125 621 125 552.5 62.5 c 128,-1,15
 484 0 484 0 366 0 c 2,16,-1
 296 0 l 1,17,-1
 296 130 l 1,18,-1
 356 130 l 2,19,20
 405 130 405 130 435.5 158 c 128,-1,21
 466 186 466 186 466 232 c 0,22,23
 466 277 466 277 436 303.5 c 128,-1,24
 406 330 406 330 356 330 c 2,25,-1
 296 330 l 1,26,-1
 296 460 l 1,27,-1
 346 460 l 2,28,29
 385 460 385 460 410 483.5 c 128,-1,30
 435 507 435 507 435 542 c 0,31,32
 435 580 435 580 407.5 603.5 c 128,-1,33
 380 627 380 627 336 627 c 0,34,35
 281 627 281 627 248.5 591 c 128,-1,36
 216 555 216 555 216 490 c 2,37,-1
 216 -160 l 1,38,-1
 66 -160 l 1,39,-1
 66 490 l 2,40,0
 66 571 66 571 100.5 631.5 c 128,-1,1
EndSplineSet
Validated: 1
EndChar

StartChar: t
Encoding: 116 116 687
Width: 421
GlyphClass: 2
Flags: W
AnchorPoint: "Anchor-7" 324 595 basechar 0
AnchorPoint: "Anchor-6" 185 670 basechar 0
AnchorPoint: "Anchor-4" 311 0 basechar 0
LayerCount: 2
Fore
SplineSet
164.5 47.5 m 128,-1,1
 110 101 110 101 110 197 c 2,2,-1
 110 416 l 1,3,-1
 18 416 l 1,4,-1
 18 546 l 1,5,-1
 23 546 l 2,6,7
 65 546 65 546 87.5 567 c 128,-1,8
 110 588 110 588 110 630 c 2,9,-1
 110 670 l 1,10,-1
 260 670 l 1,11,-1
 260 546 l 1,12,-1
 388 546 l 1,13,-1
 388 416 l 1,14,-1
 260 416 l 1,15,-1
 260 207 l 2,16,17
 260 165 260 165 283 144.5 c 128,-1,18
 306 124 306 124 353 124 c 0,19,20
 367 124 367 124 388 127 c 1,21,-1
 388 -1 l 1,22,23
 355 -6 355 -6 318 -6 c 0,24,0
 219 -6 219 -6 164.5 47.5 c 128,-1,1
EndSplineSet
Validated: 1
Substitution2: "'ss01' Style Set 1 in Latin lookup 20 subtable" t.ss01
Substitution2: "'salt' Stylistic Alternatives in Latin lookup 19 subtable" t.ss01
Substitution2: "'aalt' Access All Alternates in Latin lookup 0 subtable" t.ss01
EndChar

StartChar: t.ss01
Encoding: 65810 -1 688
Width: 421
GlyphClass: 2
Flags: W
AnchorPoint: "Anchor-7" 324 595 basechar 0
AnchorPoint: "Anchor-6" 185 670 basechar 0
AnchorPoint: "Anchor-4" 249 0 basechar 0
LayerCount: 2
Fore
SplineSet
110 416 m 1,0,-1
 18 416 l 1,1,-1
 18 546 l 1,2,-1
 110 546 l 1,3,-1
 110 670 l 1,4,-1
 260 670 l 1,5,-1
 260 546 l 1,6,-1
 388 546 l 1,7,-1
 388 416 l 1,8,-1
 260 416 l 1,9,-1
 260 130 l 1,10,-1
 388 130 l 1,11,-1
 388 0 l 1,12,-1
 110 0 l 1,13,-1
 110 416 l 1,0,-1
EndSplineSet
Validated: 1
EndChar

StartChar: tbar
Encoding: 359 359 689
Width: 421
GlyphClass: 2
Flags: W
AnchorPoint: "Anchor-7" 324 595 basechar 0
AnchorPoint: "Anchor-6" 185 670 basechar 0
AnchorPoint: "Anchor-4" 311 0 basechar 0
LayerCount: 2
Fore
SplineSet
164.5 47.5 m 128,-1,1
 110 101 110 101 110 197 c 2,2,-1
 110 208 l 1,3,-1
 19 208 l 1,4,-1
 19 338 l 1,5,-1
 110 338 l 1,6,-1
 110 416 l 1,7,-1
 18 416 l 1,8,-1
 18 546 l 1,9,-1
 23 546 l 2,10,11
 65 546 65 546 87.5 567 c 128,-1,12
 110 588 110 588 110 630 c 2,13,-1
 110 670 l 1,14,-1
 260 670 l 1,15,-1
 260 546 l 1,16,-1
 388 546 l 1,17,-1
 388 416 l 1,18,-1
 260 416 l 1,19,-1
 260 338 l 1,20,-1
 389 338 l 1,21,-1
 389 208 l 1,22,-1
 260 208 l 1,23,-1
 260 207 l 2,24,25
 260 165 260 165 283 144.5 c 128,-1,26
 306 124 306 124 353 124 c 0,27,28
 367 124 367 124 388 127 c 1,29,-1
 388 -1 l 1,30,31
 355 -6 355 -6 318 -6 c 0,32,0
 219 -6 219 -6 164.5 47.5 c 128,-1,1
EndSplineSet
Validated: 1
Substitution2: "'ss01' Style Set 1 in Latin lookup 20 subtable" tbar.ss01
Substitution2: "'salt' Stylistic Alternatives in Latin lookup 19 subtable" tbar.ss01
Substitution2: "'aalt' Access All Alternates in Latin lookup 0 subtable" tbar.ss01
EndChar

StartChar: tbar.ss01
Encoding: 65811 -1 690
Width: 421
GlyphClass: 2
Flags: W
AnchorPoint: "Anchor-7" 324 595 basechar 0
AnchorPoint: "Anchor-6" 185 670 basechar 0
AnchorPoint: "Anchor-4" 249 0 basechar 0
LayerCount: 2
Fore
SplineSet
110 208 m 1,0,-1
 19 208 l 1,1,-1
 19 338 l 1,2,-1
 110 338 l 1,3,-1
 110 416 l 1,4,-1
 18 416 l 1,5,-1
 18 546 l 1,6,-1
 110 546 l 1,7,-1
 110 670 l 1,8,-1
 260 670 l 1,9,-1
 260 546 l 1,10,-1
 388 546 l 1,11,-1
 388 416 l 1,12,-1
 260 416 l 1,13,-1
 260 338 l 1,14,-1
 389 338 l 1,15,-1
 389 208 l 1,16,-1
 260 208 l 1,17,-1
 260 130 l 1,18,-1
 388 130 l 1,19,-1
 388 0 l 1,20,-1
 110 0 l 1,21,-1
 110 208 l 1,0,-1
EndSplineSet
Validated: 1
EndChar

StartChar: uni0163
Encoding: 355 355 693
Width: 421
GlyphClass: 2
Flags: W
AnchorPoint: "Anchor-7" 324 595 basechar 0
AnchorPoint: "Anchor-4" 311 0 basechar 0
LayerCount: 2
Fore
SplineSet
212 -251 m 1,1,-1
 225 -175 l 1,2,3
 249 -183 249 -183 287 -183 c 0,4,5
 312 -183 312 -183 325.5 -175 c 128,-1,6
 339 -167 339 -167 339 -152 c 0,7,8
 339 -125 339 -125 307 -125 c 0,9,10
 285 -125 285 -125 269 -129 c 1,11,-1
 245 -117 l 1,12,-1
 261 -1 l 1,13,14
 188 13 188 13 149 64.5 c 128,-1,15
 110 116 110 116 110 197 c 2,16,-1
 110 416 l 1,17,-1
 18 416 l 1,18,-1
 18 546 l 1,19,-1
 23 546 l 2,20,21
 65 546 65 546 87.5 567 c 128,-1,22
 110 588 110 588 110 630 c 2,23,-1
 110 670 l 1,24,-1
 260 670 l 1,25,-1
 260 546 l 1,26,-1
 388 546 l 1,27,-1
 388 416 l 1,28,-1
 260 416 l 1,29,-1
 260 207 l 2,30,31
 260 165 260 165 283 144.5 c 128,-1,32
 306 124 306 124 353 124 c 0,33,34
 367 124 367 124 388 127 c 1,35,-1
 388 -1 l 1,36,-1
 360 -4 l 1,37,-1
 355 -62 l 1,38,-1
 368 -61 l 2,39,40
 409 -61 409 -61 434.5 -85 c 128,-1,41
 460 -109 460 -109 460 -149 c 0,42,43
 460 -198 460 -198 419 -229.5 c 128,-1,44
 378 -261 378 -261 300 -261 c 0,45,0
 248 -261 248 -261 212 -251 c 1,1,-1
EndSplineSet
Validated: 1
Substitution2: "'ss01' Style Set 1 in Latin lookup 20 subtable" uni0163.ss01
Substitution2: "'salt' Stylistic Alternatives in Latin lookup 19 subtable" uni0163.ss01
Substitution2: "'locl' Localized Forms in Latin lookup 6 subtable" uni021B
AlternateSubs2: "'aalt' Access All Alternates in Latin lookup 1 subtable" uni021B uni0163.ss01
EndChar

StartChar: u
Encoding: 117 117 703
Width: 599
GlyphClass: 2
Flags: W
AnchorPoint: "Anchor-7" 579 546 basechar 0
AnchorPoint: "Anchor-6" 300 546 basechar 0
AnchorPoint: "Anchor-5" 498 41 basechar 0
AnchorPoint: "Anchor-4" 300 0 basechar 0
LayerCount: 2
Fore
SplineSet
98.5 49.5 m 128,-1,1
 44 111 44 111 44 215 c 2,2,-1
 44 546 l 1,3,-1
 194 546 l 1,4,-1
 194 227 l 2,5,6
 194 180 194 180 221.5 151.5 c 128,-1,7
 249 123 249 123 294 123 c 256,8,9
 339 123 339 123 366.5 151.5 c 128,-1,10
 394 180 394 180 394 227 c 2,11,-1
 394 546 l 1,12,-1
 544 546 l 1,13,-1
 544 0 l 1,14,-1
 404 0 l 1,15,-1
 404 66 l 1,16,17
 383 27 383 27 343.5 7.5 c 128,-1,18
 304 -12 304 -12 251 -12 c 0,19,0
 153 -12 153 -12 98.5 49.5 c 128,-1,1
EndSplineSet
Validated: 1
Substitution2: "'ss03' Style Set 3 in Latin lookup 22 subtable" u.ss03
Substitution2: "'ss01' Style Set 1 in Latin lookup 20 subtable" u.ss01
Substitution2: "'salt' Stylistic Alternatives in Latin lookup 19 subtable" u.ss01
AlternateSubs2: "'aalt' Access All Alternates in Latin lookup 1 subtable" u.ss01 u.ss03
EndChar

StartChar: u.ss01
Encoding: 65818 -1 704
Width: 599
GlyphClass: 2
Flags: W
AnchorPoint: "Anchor-7" 579 546 basechar 0
AnchorPoint: "Anchor-6" 300 546 basechar 0
AnchorPoint: "Anchor-5" 294 41 basechar 0
AnchorPoint: "Anchor-4" 300 0 basechar 0
LayerCount: 2
Fore
SplineSet
44 546 m 1,0,-1
 194 546 l 1,1,-1
 194 130 l 1,2,-1
 394 130 l 1,3,-1
 394 546 l 1,4,-1
 544 546 l 1,5,-1
 544 0 l 1,6,-1
 44 0 l 1,7,-1
 44 546 l 1,0,-1
EndSplineSet
Validated: 1
EndChar

StartChar: u.ss03
Encoding: 65819 -1 705
Width: 599
GlyphClass: 2
Flags: W
AnchorPoint: "Anchor-7" 579 546 basechar 0
AnchorPoint: "Anchor-6" 300 546 basechar 0
AnchorPoint: "Anchor-5" 344 41 basechar 0
AnchorPoint: "Anchor-4" 300 0 basechar 0
LayerCount: 2
Fore
SplineSet
163 16.5 m 128,-1,1
 106 45 106 45 75 97.5 c 128,-1,2
 44 150 44 150 44 219 c 2,3,-1
 44 546 l 1,4,-1
 194 546 l 1,5,-1
 194 222 l 2,6,7
 194 177 194 177 221.5 150 c 128,-1,8
 249 123 249 123 294 123 c 256,9,10
 339 123 339 123 366.5 150 c 128,-1,11
 394 177 394 177 394 222 c 2,12,-1
 394 546 l 1,13,-1
 544 546 l 1,14,-1
 544 219 l 2,15,16
 544 150 544 150 512.5 98 c 128,-1,17
 481 46 481 46 424.5 17 c 128,-1,18
 368 -12 368 -12 294 -12 c 256,19,0
 220 -12 220 -12 163 16.5 c 128,-1,1
EndSplineSet
Validated: 1
EndChar

StartChar: uhorn
Encoding: 432 432 730
Width: 681
GlyphClass: 2
Flags: W
AnchorPoint: "Anchor-7" 579 546 basechar 0
AnchorPoint: "Anchor-6" 300 546 basechar 0
AnchorPoint: "Anchor-5" 498 41 basechar 0
AnchorPoint: "Anchor-4" 300 0 basechar 0
LayerCount: 2
Fore
SplineSet
98.5 49.5 m 128,-1,1
 44 111 44 111 44 215 c 2,2,-1
 44 546 l 1,3,-1
 194 546 l 1,4,-1
 194 227 l 2,5,6
 194 180 194 180 221.5 151.5 c 128,-1,7
 249 123 249 123 294 123 c 256,8,9
 339 123 339 123 366.5 151.5 c 128,-1,10
 394 180 394 180 394 227 c 2,11,-1
 394 546 l 1,12,-1
 505 546 l 2,13,14
 545 546 545 546 545 595 c 0,15,16
 545 621 545 621 525 671 c 1,17,-1
 651 671 l 1,18,19
 663 646 663 646 668.5 626.5 c 128,-1,20
 674 607 674 607 674 582 c 0,21,22
 674 518 674 518 639.5 483.5 c 128,-1,23
 605 449 605 449 544 444 c 1,24,-1
 544 0 l 1,25,-1
 404 0 l 1,26,-1
 404 66 l 1,27,28
 383 27 383 27 343.5 7.5 c 128,-1,29
 304 -12 304 -12 251 -12 c 0,30,0
 153 -12 153 -12 98.5 49.5 c 128,-1,1
EndSplineSet
Validated: 1
Substitution2: "'ss03' Style Set 3 in Latin lookup 22 subtable" uhorn.ss03
Substitution2: "'ss01' Style Set 1 in Latin lookup 20 subtable" uhorn.ss01
Substitution2: "'salt' Stylistic Alternatives in Latin lookup 19 subtable" uhorn.ss01
AlternateSubs2: "'aalt' Access All Alternates in Latin lookup 1 subtable" uhorn.ss01 uhorn.ss03
EndChar

StartChar: uhorn.ss01
Encoding: 65836 -1 731
Width: 681
GlyphClass: 2
Flags: W
AnchorPoint: "Anchor-6" 300 546 basechar 0
AnchorPoint: "Anchor-4" 300 0 basechar 0
LayerCount: 2
Fore
SplineSet
44 546 m 1,0,-1
 194 546 l 1,1,-1
 194 130 l 1,2,-1
 394 130 l 1,3,-1
 394 546 l 1,4,-1
 505 546 l 2,5,6
 545 546 545 546 545 595 c 0,7,8
 545 621 545 621 525 671 c 1,9,-1
 651 671 l 1,10,11
 663 646 663 646 668.5 626.5 c 128,-1,12
 674 607 674 607 674 582 c 0,13,14
 674 518 674 518 639.5 483.5 c 128,-1,15
 605 449 605 449 544 444 c 1,16,-1
 544 0 l 1,17,-1
 44 0 l 1,18,-1
 44 546 l 1,0,-1
EndSplineSet
Validated: 1
EndChar

StartChar: uhorn.ss03
Encoding: 65837 -1 732
Width: 681
GlyphClass: 2
Flags: W
AnchorPoint: "Anchor-7" 579 546 basechar 0
AnchorPoint: "Anchor-6" 300 546 basechar 0
AnchorPoint: "Anchor-5" 344 41 basechar 0
AnchorPoint: "Anchor-4" 300 0 basechar 0
LayerCount: 2
Fore
SplineSet
163 16.5 m 128,-1,1
 106 45 106 45 75 97.5 c 128,-1,2
 44 150 44 150 44 219 c 2,3,-1
 44 546 l 1,4,-1
 194 546 l 1,5,-1
 194 222 l 2,6,7
 194 177 194 177 221.5 150 c 128,-1,8
 249 123 249 123 294 123 c 256,9,10
 339 123 339 123 366.5 150 c 128,-1,11
 394 177 394 177 394 222 c 2,12,-1
 394 546 l 1,13,-1
 505 546 l 2,14,15
 545 546 545 546 545 595 c 0,16,17
 545 621 545 621 525 671 c 1,18,-1
 651 671 l 1,19,20
 663 646 663 646 668.5 626.5 c 128,-1,21
 674 607 674 607 674 582 c 0,22,23
 674 518 674 518 639.5 483.5 c 128,-1,24
 605 449 605 449 544 444 c 1,25,-1
 544 219 l 2,26,27
 544 150 544 150 512.5 98 c 128,-1,28
 481 46 481 46 424.5 17 c 128,-1,29
 368 -12 368 -12 294 -12 c 256,30,0
 220 -12 220 -12 163 16.5 c 128,-1,1
EndSplineSet
Validated: 1
EndChar

StartChar: uogonek
Encoding: 371 371 760
Width: 599
GlyphClass: 2
Flags: W
AnchorPoint: "Anchor-7" 579 546 basechar 0
AnchorPoint: "Anchor-6" 300 546 basechar 0
AnchorPoint: "Anchor-5" 498 41 basechar 0
AnchorPoint: "Anchor-4" 300 0 basechar 0
LayerCount: 2
Fore
SplineSet
98.5 49.5 m 128,-1,1
 44 111 44 111 44 215 c 2,2,-1
 44 546 l 1,3,-1
 194 546 l 1,4,-1
 194 227 l 2,5,6
 194 180 194 180 221.5 151.5 c 128,-1,7
 249 123 249 123 294 123 c 256,8,9
 339 123 339 123 366.5 151.5 c 128,-1,10
 394 180 394 180 394 227 c 2,11,-1
 394 546 l 1,12,-1
 544 546 l 1,13,-1
 544 0 l 1,14,-1
 515 0 l 1,15,16
 419 -22 419 -22 419 -71 c 0,17,18
 419 -91 419 -91 435.5 -104 c 128,-1,19
 452 -117 452 -117 482 -117 c 0,20,21
 526 -117 526 -117 575 -88 c 1,22,-1
 620 -167 l 1,23,24
 550 -222 550 -222 466 -222 c 0,25,26
 396 -222 396 -222 350 -190 c 128,-1,27
 304 -158 304 -158 304 -102 c 0,28,29
 304 -59 304 -59 331.5 -26 c 128,-1,30
 359 7 359 7 404 25 c 1,31,-1
 404 66 l 1,32,33
 383 27 383 27 343.5 7.5 c 128,-1,34
 304 -12 304 -12 251 -12 c 0,35,0
 153 -12 153 -12 98.5 49.5 c 128,-1,1
EndSplineSet
Validated: 1
Substitution2: "'ss03' Style Set 3 in Latin lookup 22 subtable" uogonek.ss03
Substitution2: "'ss01' Style Set 1 in Latin lookup 20 subtable" uogonek.ss01
Substitution2: "'salt' Stylistic Alternatives in Latin lookup 19 subtable" uogonek.ss01
AlternateSubs2: "'aalt' Access All Alternates in Latin lookup 1 subtable" uogonek.ss01 uogonek.ss03
EndChar

StartChar: uogonek.ss01
Encoding: 65856 -1 761
Width: 599
GlyphClass: 2
Flags: W
AnchorPoint: "Anchor-7" 579 546 basechar 0
AnchorPoint: "Anchor-6" 300 546 basechar 0
AnchorPoint: "Anchor-5" 294 41 basechar 0
AnchorPoint: "Anchor-4" 300 0 basechar 0
LayerCount: 2
Fore
SplineSet
44 546 m 1,0,-1
 194 546 l 1,1,-1
 194 130 l 1,2,-1
 394 130 l 1,3,-1
 394 546 l 1,4,-1
 544 546 l 1,5,-1
 544 0 l 1,6,-1
 311 0 l 1,7,8
 215 -22 215 -22 215 -71 c 0,9,10
 215 -91 215 -91 231.5 -104 c 128,-1,11
 248 -117 248 -117 278 -117 c 0,12,13
 322 -117 322 -117 371 -88 c 1,14,-1
 416 -167 l 1,15,16
 346 -222 346 -222 262 -222 c 0,17,18
 192 -222 192 -222 146 -190 c 128,-1,19
 100 -158 100 -158 100 -102 c 0,20,21
 100 -41 100 -41 154 0 c 1,22,-1
 44 0 l 1,23,-1
 44 546 l 1,0,-1
EndSplineSet
Validated: 1
EndChar

StartChar: uogonek.ss03
Encoding: 65857 -1 762
Width: 599
GlyphClass: 2
Flags: W
AnchorPoint: "Anchor-7" 579 546 basechar 0
AnchorPoint: "Anchor-6" 300 546 basechar 0
AnchorPoint: "Anchor-5" 344 41 basechar 0
AnchorPoint: "Anchor-4" 300 0 basechar 0
LayerCount: 2
Fore
SplineSet
196 -190 m 128,-1,1
 150 -158 150 -158 150 -102 c 0,2,3
 150 -40 150 -40 205 0 c 1,4,5
 130 23 130 23 87 80.5 c 128,-1,6
 44 138 44 138 44 219 c 2,7,-1
 44 546 l 1,8,-1
 194 546 l 1,9,-1
 194 222 l 2,10,11
 194 177 194 177 221.5 150 c 128,-1,12
 249 123 249 123 294 123 c 256,13,14
 339 123 339 123 366.5 150 c 128,-1,15
 394 177 394 177 394 222 c 2,16,-1
 394 546 l 1,17,-1
 544 546 l 1,18,-1
 544 219 l 2,19,20
 544 123 544 123 484 60.5 c 128,-1,21
 424 -2 424 -2 325 -11 c 1,22,23
 265 -33 265 -33 265 -71 c 0,24,25
 265 -91 265 -91 281.5 -104 c 128,-1,26
 298 -117 298 -117 328 -117 c 0,27,28
 372 -117 372 -117 421 -88 c 1,29,-1
 466 -167 l 1,30,31
 396 -222 396 -222 312 -222 c 0,32,0
 242 -222 242 -222 196 -190 c 128,-1,1
EndSplineSet
Validated: 1
EndChar

StartChar: v
Encoding: 118 118 772
Width: 582
GlyphClass: 2
Flags: W
AnchorPoint: "Anchor-6" 291 546 basechar 0
AnchorPoint: "Anchor-4" 291 0 basechar 0
LayerCount: 2
Fore
SplineSet
11 546 m 1,0,-1
 173 546 l 1,1,-1
 291 219 l 1,2,-1
 409 546 l 1,3,-1
 571 546 l 1,4,-1
 356 0 l 1,5,-1
 226 0 l 1,6,-1
 11 546 l 1,0,-1
EndSplineSet
Validated: 1
EndChar

StartChar: w
Encoding: 119 119 773
Width: 912
GlyphClass: 2
Flags: W
AnchorPoint: "Anchor-6" 456 546 basechar 0
AnchorPoint: "Anchor-4" 456 0 basechar 0
LayerCount: 2
Fore
SplineSet
11 546 m 1,0,-1
 166 546 l 1,1,-1
 272 229 l 1,2,-1
 391 546 l 1,3,-1
 521 546 l 1,4,-1
 639 229 l 1,5,-1
 745 546 l 1,6,-1
 901 546 l 1,7,-1
 712 0 l 1,8,-1
 582 0 l 1,9,-1
 456 350 l 1,10,-1
 329 0 l 1,11,-1
 199 0 l 1,12,-1
 11 546 l 1,0,-1
EndSplineSet
Validated: 1
EndChar

StartChar: x
Encoding: 120 120 778
Width: 582
GlyphClass: 2
Flags: W
AnchorPoint: "Anchor-6" 291 546 basechar 0
AnchorPoint: "Anchor-4" 291 0 basechar 0
LayerCount: 2
Fore
SplineSet
203 274 m 1,0,-1
 11 546 l 1,1,-1
 185 546 l 1,2,-1
 291 390 l 1,3,-1
 397 546 l 1,4,-1
 571 546 l 1,5,-1
 379 274 l 1,6,-1
 569 0 l 1,7,-1
 396 0 l 1,8,-1
 291 158 l 1,9,-1
 186 0 l 1,10,-1
 12 0 l 1,11,-1
 203 274 l 1,0,-1
EndSplineSet
Validated: 1
Substitution2: "Single Substitution lookup 29 subtable" multiply
AlternateSubs2: "'aalt' Access All Alternates in Latin lookup 1 subtable" multiply
EndChar

StartChar: y
Encoding: 121 121 779
Width: 602
GlyphClass: 2
Flags: W
AnchorPoint: "Anchor-6" 301 546 basechar 0
AnchorPoint: "Anchor-4" 552 100 basechar 0
LayerCount: 2
Fore
SplineSet
222 10 m 1,0,-1
 11 546 l 1,1,-1
 172 546 l 1,2,-1
 301 195 l 1,3,-1
 430 546 l 1,4,-1
 591 546 l 1,5,-1
 299 -200 l 1,6,-1
 139 -200 l 1,7,-1
 222 10 l 1,0,-1
EndSplineSet
Validated: 1
Substitution2: "'ss03' Style Set 3 in Latin lookup 22 subtable" y.ss03
Substitution2: "'ss02' Style Set 2 in Latin lookup 21 subtable" y.ss02
Substitution2: "'ss01' Style Set 1 in Latin lookup 20 subtable" y.ss01
Substitution2: "'salt' Stylistic Alternatives in Latin lookup 19 subtable" y.ss01
AlternateSubs2: "'aalt' Access All Alternates in Latin lookup 1 subtable" y.ss01 y.ss02 y.ss03
EndChar

StartChar: y.ss01
Encoding: 65864 -1 780
Width: 602
GlyphClass: 2
Flags: W
AnchorPoint: "Anchor-6" 301 546 basechar 0
AnchorPoint: "Anchor-4" 552 100 basechar 0
LayerCount: 2
Fore
SplineSet
19 -70 m 1,0,-1
 194 -70 l 1,1,-1
 224 4 l 1,2,-1
 11 546 l 1,3,-1
 172 546 l 1,4,-1
 301 195 l 1,5,-1
 430 546 l 1,6,-1
 591 546 l 1,7,-1
 299 -200 l 1,8,-1
 19 -200 l 1,9,-1
 19 -70 l 1,0,-1
EndSplineSet
Validated: 1
EndChar

StartChar: y.ss02
Encoding: 65865 -1 781
Width: 602
GlyphClass: 2
Flags: W
AnchorPoint: "Anchor-6" 301 546 basechar 0
AnchorPoint: "Anchor-4" 552 100 basechar 0
LayerCount: 2
Fore
SplineSet
222 10 m 1,0,-1
 11 546 l 1,1,-1
 172 546 l 1,2,-1
 301 195 l 1,3,-1
 430 546 l 1,4,-1
 591 546 l 1,5,-1
 299 -200 l 1,6,-1
 139 -200 l 1,7,-1
 222 10 l 1,0,-1
EndSplineSet
Validated: 1
EndChar

StartChar: y.ss03
Encoding: 65866 -1 782
Width: 623
GlyphClass: 2
Flags: W
AnchorPoint: "Anchor-6" 312 546 basechar 0
AnchorPoint: "Anchor-4" 663 100 basechar 0
LayerCount: 2
Fore
SplineSet
139.5 -174.5 m 128,-1,1
 69 -129 69 -129 44 -52 c 1,2,-1
 183 -3 l 1,3,4
 194 -42 194 -42 226 -63.5 c 128,-1,5
 258 -85 258 -85 306 -85 c 0,6,7
 358 -85 358 -85 388.5 -58 c 128,-1,8
 419 -31 419 -31 419 21 c 2,9,-1
 419 91 l 1,10,11
 397 59 397 59 359.5 43 c 128,-1,12
 322 27 322 27 275 27 c 0,13,14
 177 27 177 27 122.5 88.5 c 128,-1,15
 68 150 68 150 68 254 c 2,16,-1
 68 546 l 1,17,-1
 218 546 l 1,18,-1
 218 266 l 2,19,20
 218 219 218 219 245.5 190.5 c 128,-1,21
 273 162 273 162 318 162 c 256,22,23
 363 162 363 162 390.5 190.5 c 128,-1,24
 418 219 418 219 418 266 c 2,25,-1
 418 546 l 1,26,-1
 568 546 l 1,27,-1
 568 21 l 2,28,29
 568 -50 568 -50 534 -105 c 128,-1,30
 500 -160 500 -160 440.5 -190 c 128,-1,31
 381 -220 381 -220 306 -220 c 0,32,0
 210 -220 210 -220 139.5 -174.5 c 128,-1,1
EndSplineSet
Validated: 1
EndChar

StartChar: z
Encoding: 122 122 819
Width: 492
GlyphClass: 2
Flags: W
AnchorPoint: "Anchor-6" 252 546 basechar 0
AnchorPoint: "Anchor-4" 252 0 basechar 0
LayerCount: 2
Fore
SplineSet
11 120 m 1,0,-1
 280 416 l 1,1,-1
 24 416 l 1,2,-1
 24 546 l 1,3,-1
 480 546 l 1,4,-1
 480 426 l 1,5,-1
 219 130 l 1,6,-1
 481 130 l 1,7,-1
 481 0 l 1,8,-1
 11 0 l 1,9,-1
 11 120 l 1,0,-1
EndSplineSet
Validated: 1
EndChar

StartChar: f_f
Encoding: 65894 -1 824
Width: 810
GlyphClass: 3
Flags: W
LayerCount: 2
Fore
SplineSet
121 416 m 1,0,-1
 29 416 l 1,1,-1
 29 546 l 1,2,-1
 121 546 l 1,3,-1
 121 554 l 2,4,5
 121 651 121 651 177.5 704 c 128,-1,6
 234 757 234 757 336 757 c 0,7,8
 366 757 366 757 389 752 c 1,9,-1
 389 624 l 1,10,11
 370 627 370 627 356 627 c 0,12,13
 271 627 271 627 271 554 c 2,14,-1
 271 546 l 1,15,-1
 488 546 l 1,16,-1
 488 532 l 1,17,-1
 521 532 l 1,18,-1
 521 540 l 2,19,20
 521 646 521 646 578 707.5 c 128,-1,21
 635 769 635 769 736 769 c 0,22,23
 766 769 766 769 789 764 c 1,24,-1
 789 636 l 1,25,26
 770 639 770 639 756 639 c 0,27,28
 671 639 671 639 671 540 c 2,29,-1
 671 532 l 1,30,-1
 788 532 l 1,31,-1
 788 402 l 1,32,-1
 671 402 l 1,33,-1
 671 0 l 1,34,-1
 521 0 l 1,35,-1
 521 402 l 1,36,-1
 429 402 l 1,37,-1
 429 416 l 1,38,-1
 271 416 l 1,39,-1
 271 0 l 1,40,-1
 121 0 l 1,41,-1
 121 416 l 1,0,-1
EndSplineSet
Validated: 1
EndChar

StartChar: f_f_i
Encoding: 65895 -1 825
Width: 1048
GlyphClass: 3
Flags: W
LayerCount: 2
Fore
SplineSet
121 416 m 1,0,-1
 29 416 l 1,1,-1
 29 546 l 1,2,-1
 121 546 l 1,3,-1
 121 554 l 2,4,5
 121 651 121 651 177.5 704 c 128,-1,6
 234 757 234 757 336 757 c 0,7,8
 366 757 366 757 389 752 c 1,9,-1
 389 624 l 1,10,11
 370 627 370 627 356 627 c 0,12,13
 271 627 271 627 271 554 c 2,14,-1
 271 546 l 1,15,-1
 531 546 l 1,16,-1
 531 554 l 2,17,18
 531 651 531 651 587.5 704 c 128,-1,19
 644 757 644 757 746 757 c 0,20,21
 776 757 776 757 799 752 c 1,22,-1
 799 624 l 1,23,24
 780 627 780 627 766 627 c 0,25,26
 681 627 681 627 681 554 c 2,27,-1
 681 546 l 1,28,-1
 1004 546 l 1,29,-1
 1004 0 l 1,30,-1
 854 0 l 1,31,-1
 854 416 l 1,32,-1
 681 416 l 1,33,-1
 681 0 l 1,34,-1
 531 0 l 1,35,-1
 531 416 l 1,36,-1
 271 416 l 1,37,-1
 271 0 l 1,38,-1
 121 0 l 1,39,-1
 121 416 l 1,0,-1
EndSplineSet
Validated: 1
EndChar

StartChar: f_f_l
Encoding: 65896 -1 826
Width: 1080
GlyphClass: 3
Flags: W
LayerCount: 2
Fore
SplineSet
121 416 m 1,0,-1
 29 416 l 1,1,-1
 29 546 l 1,2,-1
 121 546 l 1,3,-1
 121 554 l 2,4,5
 121 651 121 651 177.5 704 c 128,-1,6
 234 757 234 757 336 757 c 0,7,8
 366 757 366 757 389 752 c 1,9,-1
 389 624 l 1,10,11
 370 627 370 627 356 627 c 0,12,13
 271 627 271 627 271 554 c 2,14,-1
 271 546 l 1,15,-1
 531 546 l 1,16,-1
 531 554 l 2,17,18
 531 651 531 651 587.5 704 c 128,-1,19
 644 757 644 757 746 757 c 0,20,21
 776 757 776 757 799 752 c 1,22,-1
 799 624 l 1,23,24
 780 627 780 627 766 627 c 0,25,26
 681 627 681 627 681 554 c 2,27,-1
 681 546 l 1,28,-1
 875 546 l 1,29,-1
 875 757 l 1,30,-1
 1025 757 l 1,31,-1
 1025 0 l 1,32,-1
 875 0 l 1,33,-1
 875 416 l 1,34,-1
 681 416 l 1,35,-1
 681 0 l 1,36,-1
 531 0 l 1,37,-1
 531 416 l 1,38,-1
 271 416 l 1,39,-1
 271 0 l 1,40,-1
 121 0 l 1,41,-1
 121 416 l 1,0,-1
EndSplineSet
Validated: 1
EndChar

StartChar: fi
Encoding: 64257 64257 827
Width: 638
GlyphClass: 3
Flags: W
LayerCount: 2
Fore
SplineSet
121 416 m 1,0,-1
 29 416 l 1,1,-1
 29 546 l 1,2,-1
 121 546 l 1,3,-1
 121 554 l 2,4,5
 121 651 121 651 177.5 704 c 128,-1,6
 234 757 234 757 336 757 c 0,7,8
 366 757 366 757 389 752 c 1,9,-1
 389 624 l 1,10,11
 370 627 370 627 356 627 c 0,12,13
 271 627 271 627 271 554 c 2,14,-1
 271 546 l 1,15,-1
 594 546 l 1,16,-1
 594 0 l 1,17,-1
 444 0 l 1,18,-1
 444 416 l 1,19,-1
 271 416 l 1,20,-1
 271 0 l 1,21,-1
 121 0 l 1,22,-1
 121 416 l 1,0,-1
EndSplineSet
Validated: 1
EndChar

StartChar: fl
Encoding: 64258 64258 828
Width: 670
GlyphClass: 3
Flags: W
LayerCount: 2
Fore
SplineSet
121 416 m 1,0,-1
 29 416 l 1,1,-1
 29 546 l 1,2,-1
 121 546 l 1,3,-1
 121 554 l 2,4,5
 121 651 121 651 177.5 704 c 128,-1,6
 234 757 234 757 336 757 c 0,7,8
 366 757 366 757 389 752 c 1,9,-1
 389 624 l 1,10,11
 370 627 370 627 356 627 c 0,12,13
 271 627 271 627 271 554 c 2,14,-1
 271 546 l 1,15,-1
 465 546 l 1,16,-1
 465 757 l 1,17,-1
 615 757 l 1,18,-1
 615 0 l 1,19,-1
 465 0 l 1,20,-1
 465 416 l 1,21,-1
 271 416 l 1,22,-1
 271 0 l 1,23,-1
 121 0 l 1,24,-1
 121 416 l 1,0,-1
EndSplineSet
Validated: 1
EndChar

StartChar: ordfeminine
Encoding: 170 170 829
Width: 442
GlyphClass: 2
Flags: W
AnchorPoint: "Anchor-6" 218 384 basechar 0
AnchorPoint: "Anchor-5" 365 29 basechar 0
AnchorPoint: "Anchor-4" 218 0 basechar 0
LayerCount: 2
Fore
SplineSet
69.5 383 m 128,-1,1
 33 413 33 413 33 465 c 0,2,3
 33 515 33 515 67.5 546.5 c 128,-1,4
 102 578 102 578 171 589 c 2,5,-1
 271 605 l 1,6,-1
 271 613 l 2,7,8
 271 632 271 632 255.5 645.5 c 128,-1,9
 240 659 240 659 214 659 c 0,10,11
 186 659 186 659 166 643.5 c 128,-1,12
 146 628 146 628 137 604 c 1,13,-1
 45 647 l 1,14,15
 62 697 62 697 109 726 c 128,-1,16
 156 755 156 755 219 755 c 0,17,18
 293 755 293 755 340 715.5 c 128,-1,19
 387 676 387 676 387 613 c 2,20,-1
 387 362 l 1,21,-1
 279 362 l 1,22,-1
 279 393 l 1,23,24
 257 372 257 372 230.5 362.5 c 128,-1,25
 204 353 204 353 169 353 c 0,26,0
 106 353 106 353 69.5 383 c 128,-1,1
164 445.5 m 128,-1,28
 175 437 175 437 193 437 c 0,29,30
 227 437 227 437 249 459 c 128,-1,31
 271 481 271 481 271 513 c 2,32,-1
 271 521 l 1,33,-1
 192 506 l 2,34,35
 172 502 172 502 162.5 494 c 128,-1,36
 153 486 153 486 153 469 c 0,37,27
 153 454 153 454 164 445.5 c 128,-1,28
EndSplineSet
Validated: 1
EndChar

StartChar: ordmasculine
Encoding: 186 186 830
Width: 481
GlyphClass: 2
Flags: W
AnchorPoint: "Anchor-7" 454 384 basechar 0
AnchorPoint: "Anchor-6" 241 384 basechar 0
AnchorPoint: "Anchor-5" 235 29 basechar 0
AnchorPoint: "Anchor-4" 241 0 basechar 0
LayerCount: 2
Fore
SplineSet
136.5 379 m 128,-1,1
 89 405 89 405 61 451 c 128,-1,2
 33 497 33 497 33 554 c 256,3,4
 33 611 33 611 61 657 c 128,-1,5
 89 703 89 703 136.5 729 c 128,-1,6
 184 755 184 755 241 755 c 0,7,8
 297 755 297 755 344.5 729 c 128,-1,9
 392 703 392 703 420 657 c 128,-1,10
 448 611 448 611 448 554 c 256,11,12
 448 497 448 497 420 451 c 128,-1,13
 392 405 392 405 344.5 379 c 128,-1,14
 297 353 297 353 241 353 c 0,15,0
 184 353 184 353 136.5 379 c 128,-1,1
177 484 m 128,-1,17
 201 457 201 457 241 457 c 0,18,19
 280 457 280 457 304 484 c 128,-1,20
 328 511 328 511 328 554 c 256,21,22
 328 597 328 597 304 624 c 128,-1,23
 280 651 280 651 241 651 c 256,24,25
 202 651 202 651 177.5 623.5 c 128,-1,26
 153 596 153 596 153 554 c 0,27,16
 153 511 153 511 177 484 c 128,-1,17
EndSplineSet
Validated: 1
EndChar

StartChar: uni0394
Encoding: 916 916 831
Width: 640
GlyphClass: 1
Flags: W
LayerCount: 2
Fore
SplineSet
11 135 m 1,0,-1
 217 745 l 1,1,-1
 423 745 l 1,2,-1
 629 135 l 1,3,-1
 629 0 l 1,4,-1
 11 0 l 1,5,-1
 11 135 l 1,0,-1
462 135 m 1,6,-1
 320 573 l 1,7,-1
 177 135 l 1,8,-1
 462 135 l 1,6,-1
EndSplineSet
Validated: 1
Position2: "'cpsp' Capital Spacing in Latin lookup 0 subtable" dx=5 dy=0 dh=10 dv=0
EndChar

StartChar: uni03A9
Encoding: 937 937 832
Width: 878
GlyphClass: 1
Flags: W
LayerCount: 2
Fore
SplineSet
44 135 m 1,0,-1
 148 135 l 1,1,2
 99 181 99 181 71.5 243 c 128,-1,3
 44 305 44 305 44 373 c 0,4,5
 44 481 44 481 95.5 569 c 128,-1,6
 147 657 147 657 237.5 707 c 128,-1,7
 328 757 328 757 439 757 c 256,8,9
 550 757 550 757 640.5 707 c 128,-1,10
 731 657 731 657 782.5 569 c 128,-1,11
 834 481 834 481 834 373 c 0,12,13
 834 305 834 305 806.5 243 c 128,-1,14
 779 181 779 181 730 135 c 1,15,-1
 834 135 l 1,16,-1
 834 0 l 1,17,-1
 515 0 l 1,18,-1
 515 135 l 1,19,20
 589 158 589 158 634 222.5 c 128,-1,21
 679 287 679 287 679 373 c 0,22,23
 679 444 679 444 647.5 499.5 c 128,-1,24
 616 555 616 555 561.5 586 c 128,-1,25
 507 617 507 617 439 617 c 256,26,27
 371 617 371 617 316.5 586 c 128,-1,28
 262 555 262 555 230.5 499.5 c 128,-1,29
 199 444 199 444 199 373 c 0,30,31
 199 287 199 287 244 222.5 c 128,-1,32
 289 158 289 158 363 135 c 1,33,-1
 363 0 l 1,34,-1
 44 0 l 1,35,-1
 44 135 l 1,0,-1
EndSplineSet
Validated: 1
Position2: "'cpsp' Capital Spacing in Latin lookup 0 subtable" dx=5 dy=0 dh=10 dv=0
EndChar

StartChar: pi
Encoding: 960 960 833
Width: 694
GlyphClass: 1
Flags: W
LayerCount: 2
Fore
SplineSet
108 416 m 1,0,-1
 18 416 l 1,1,-1
 18 546 l 1,2,-1
 676 546 l 1,3,-1
 676 416 l 1,4,-1
 588 416 l 1,5,-1
 588 0 l 1,6,-1
 438 0 l 1,7,-1
 438 416 l 1,8,-1
 258 416 l 1,9,-1
 258 0 l 1,10,-1
 108 0 l 1,11,-1
 108 416 l 1,0,-1
EndSplineSet
Validated: 1
EndChar

StartChar: zero
Encoding: 48 48 834
Width: 700
GlyphClass: 1
Flags: W
LayerCount: 2
Fore
SplineSet
194 36 m 128,-1,1
 126 84 126 84 88 171.5 c 128,-1,2
 50 259 50 259 50 373 c 256,3,4
 50 487 50 487 87.5 574 c 128,-1,5
 125 661 125 661 193 709 c 128,-1,6
 261 757 261 757 349 757 c 0,7,8
 439 757 439 757 507 709 c 128,-1,9
 575 661 575 661 612.5 574 c 128,-1,10
 650 487 650 487 650 373 c 256,11,12
 650 259 650 259 612.5 171.5 c 128,-1,13
 575 84 575 84 507 36 c 128,-1,14
 439 -12 439 -12 350 -12 c 0,15,0
 262 -12 262 -12 194 36 c 128,-1,1
243 193 m 128,-1,17
 281 128 281 128 350 128 c 256,18,19
 419 128 419 128 457 192.5 c 128,-1,20
 495 257 495 257 495 373 c 256,21,22
 495 489 495 489 457 553 c 128,-1,23
 419 617 419 617 349 617 c 0,24,25
 280 617 280 617 242.5 553 c 128,-1,26
 205 489 205 489 205 373 c 0,27,16
 205 258 205 258 243 193 c 128,-1,17
EndSplineSet
Validated: 1
Substitution2: "'frac' Diagonal Fractions in Latin lookup 14 subtable" zero.numr
Substitution2: "'dnom' Denominators in Latin lookup 12 subtable" zero.dnom
Substitution2: "'numr' Numerators in Latin lookup 11 subtable" zero.numr
Substitution2: "'sups' Superscript in Latin lookup 10 subtable" uni2070
Substitution2: "'sinf' Scientific Inferiors in Latin lookup 9 subtable" uni2080
Substitution2: "'subs' Subscript in Latin lookup 8 subtable" uni2080
AlternateSubs2: "'aalt' Access All Alternates in Latin lookup 1 subtable" uni2080 uni2070 zero.numr zero.dnom
EndChar

StartChar: one
Encoding: 49 49 835
Width: 413
GlyphClass: 1
Flags: W
LayerCount: 2
Fore
SplineSet
170 614 m 1,0,-1
 25 614 l 1,1,-1
 25 745 l 1,2,-1
 325 745 l 1,3,-1
 325 0 l 1,4,-1
 170 0 l 1,5,-1
 170 614 l 1,0,-1
EndSplineSet
Validated: 1
Substitution2: "'frac' Diagonal Fractions in Latin lookup 14 subtable" one.numr
Substitution2: "'dnom' Denominators in Latin lookup 12 subtable" one.dnom
Substitution2: "'numr' Numerators in Latin lookup 11 subtable" one.numr
Substitution2: "'sups' Superscript in Latin lookup 10 subtable" uni00B9
Substitution2: "'sinf' Scientific Inferiors in Latin lookup 9 subtable" uni2081
Substitution2: "'subs' Subscript in Latin lookup 8 subtable" uni2081
AlternateSubs2: "'aalt' Access All Alternates in Latin lookup 1 subtable" uni2081 uni00B9 one.numr one.dnom
EndChar

StartChar: two
Encoding: 50 50 836
Width: 596
GlyphClass: 1
Flags: W
LayerCount: 2
Fore
SplineSet
42 120 m 1,0,-1
 242 326 l 2,1,2
 303 389 303 389 332.5 423.5 c 128,-1,3
 362 458 362 458 373.5 481.5 c 128,-1,4
 385 505 385 505 385 529 c 0,5,6
 385 569 385 569 358.5 593 c 128,-1,7
 332 617 332 617 292 617 c 0,8,9
 250 617 250 617 218.5 593 c 128,-1,10
 187 569 187 569 172 522 c 1,11,-1
 37 566 l 1,12,13
 49 623 49 623 86.5 666 c 128,-1,14
 124 709 124 709 178 733 c 128,-1,15
 232 757 232 757 292 757 c 0,16,17
 365 757 365 757 421.5 731 c 128,-1,18
 478 705 478 705 509 657.5 c 128,-1,19
 540 610 540 610 540 548 c 0,20,21
 540 488 540 488 509 432 c 128,-1,22
 478 376 478 376 410 306 c 2,23,-1
 239 130 l 1,24,-1
 547 130 l 1,25,-1
 547 0 l 1,26,-1
 42 0 l 1,27,-1
 42 120 l 1,0,-1
EndSplineSet
Validated: 1
Substitution2: "'frac' Diagonal Fractions in Latin lookup 14 subtable" two.numr
Substitution2: "'dnom' Denominators in Latin lookup 12 subtable" two.dnom
Substitution2: "'numr' Numerators in Latin lookup 11 subtable" two.numr
Substitution2: "'sups' Superscript in Latin lookup 10 subtable" uni00B2
Substitution2: "'sinf' Scientific Inferiors in Latin lookup 9 subtable" uni2082
Substitution2: "'subs' Subscript in Latin lookup 8 subtable" uni2082
AlternateSubs2: "'aalt' Access All Alternates in Latin lookup 1 subtable" uni2082 uni00B2 two.numr two.dnom
EndChar

StartChar: three
Encoding: 51 51 837
Width: 612
GlyphClass: 1
Flags: W
LayerCount: 2
Fore
SplineSet
173.5 12 m 128,-1,1
 117 36 117 36 78 79 c 128,-1,2
 39 122 39 122 27 179 c 1,3,-1
 164 225 l 1,4,5
 180 177 180 177 213.5 152.5 c 128,-1,6
 247 128 247 128 292 128 c 0,7,8
 347 128 347 128 379.5 158.5 c 128,-1,9
 412 189 412 189 412 241 c 0,10,11
 412 292 412 292 380 321.5 c 128,-1,12
 348 351 348 351 292 351 c 0,13,14
 246 351 246 351 208 332 c 1,15,-1
 172 407 l 1,16,-1
 363 615 l 1,17,-1
 72 615 l 1,18,-1
 72 745 l 1,19,-1
 537 745 l 1,20,-1
 537 625 l 1,21,-1
 393 461 l 1,22,23
 473 447 473 447 520 389.5 c 128,-1,24
 567 332 567 332 567 247 c 0,25,26
 567 174 567 174 531.5 114.5 c 128,-1,27
 496 55 496 55 433 21.5 c 128,-1,28
 370 -12 370 -12 292 -12 c 0,29,0
 230 -12 230 -12 173.5 12 c 128,-1,1
EndSplineSet
Validated: 1
Substitution2: "'frac' Diagonal Fractions in Latin lookup 14 subtable" three.numr
Substitution2: "'dnom' Denominators in Latin lookup 12 subtable" three.dnom
Substitution2: "'numr' Numerators in Latin lookup 11 subtable" three.numr
Substitution2: "'sups' Superscript in Latin lookup 10 subtable" uni00B3
Substitution2: "'sinf' Scientific Inferiors in Latin lookup 9 subtable" uni2083
Substitution2: "'subs' Subscript in Latin lookup 8 subtable" uni2083
AlternateSubs2: "'aalt' Access All Alternates in Latin lookup 1 subtable" uni2083 uni00B3 three.numr three.dnom
EndChar

StartChar: four
Encoding: 52 52 838
Width: 662
GlyphClass: 1
Flags: W
LayerCount: 2
Fore
SplineSet
362 160 m 1,0,-1
 32 160 l 1,1,-1
 32 290 l 1,2,-1
 352 745 l 1,3,-1
 517 745 l 1,4,-1
 517 290 l 1,5,-1
 632 290 l 1,6,-1
 632 160 l 1,7,-1
 517 160 l 1,8,-1
 517 0 l 1,9,-1
 362 0 l 1,10,-1
 362 160 l 1,0,-1
362 290 m 1,11,-1
 362 555 l 1,12,-1
 183 290 l 1,13,-1
 362 290 l 1,11,-1
EndSplineSet
Validated: 1
Substitution2: "'frac' Diagonal Fractions in Latin lookup 14 subtable" four.numr
Substitution2: "'dnom' Denominators in Latin lookup 12 subtable" four.dnom
Substitution2: "'numr' Numerators in Latin lookup 11 subtable" four.numr
Substitution2: "'sups' Superscript in Latin lookup 10 subtable" uni2074
Substitution2: "'sinf' Scientific Inferiors in Latin lookup 9 subtable" uni2084
Substitution2: "'subs' Subscript in Latin lookup 8 subtable" uni2084
AlternateSubs2: "'aalt' Access All Alternates in Latin lookup 1 subtable" uni2084 uni2074 four.numr four.dnom
EndChar

StartChar: five
Encoding: 53 53 839
Width: 614
GlyphClass: 1
Flags: W
LayerCount: 2
Fore
SplineSet
180 10.5 m 128,-1,1
 125 33 125 33 86.5 75.5 c 128,-1,2
 48 118 48 118 36 174 c 1,3,-1
 173 220 l 1,4,5
 187 174 187 174 219.5 151 c 128,-1,6
 252 128 252 128 295 128 c 0,7,8
 347 128 347 128 379 160.5 c 128,-1,9
 411 193 411 193 411 245 c 256,10,11
 411 297 411 297 379 329 c 128,-1,12
 347 361 347 361 295 361 c 0,13,14
 258 361 258 361 230 345 c 128,-1,15
 202 329 202 329 190 298 c 1,16,-1
 63 328 l 1,17,-1
 123 745 l 1,18,-1
 539 745 l 1,19,-1
 539 615 l 1,20,-1
 235 615 l 1,21,-1
 215 467 l 1,22,23
 257 491 257 491 324 491 c 0,24,25
 397 491 397 491 452 460 c 128,-1,26
 507 429 507 429 536.5 373 c 128,-1,27
 566 317 566 317 566 245 c 0,28,29
 566 172 566 172 531 113.5 c 128,-1,30
 496 55 496 55 434 21.5 c 128,-1,31
 372 -12 372 -12 295 -12 c 0,32,0
 235 -12 235 -12 180 10.5 c 128,-1,1
EndSplineSet
Validated: 1
Substitution2: "'frac' Diagonal Fractions in Latin lookup 14 subtable" five.numr
Substitution2: "'dnom' Denominators in Latin lookup 12 subtable" five.dnom
Substitution2: "'numr' Numerators in Latin lookup 11 subtable" five.numr
Substitution2: "'sups' Superscript in Latin lookup 10 subtable" uni2075
Substitution2: "'sinf' Scientific Inferiors in Latin lookup 9 subtable" uni2085
Substitution2: "'subs' Subscript in Latin lookup 8 subtable" uni2085
AlternateSubs2: "'aalt' Access All Alternates in Latin lookup 1 subtable" uni2085 uni2075 five.numr five.dnom
EndChar

StartChar: six
Encoding: 54 54 840
Width: 604
GlyphClass: 1
Flags: W
LayerCount: 2
Fore
SplineSet
165.5 20 m 128,-1,1
 105 52 105 52 71 108.5 c 128,-1,2
 37 165 37 165 37 235 c 0,3,4
 37 294 37 294 56.5 348 c 128,-1,5
 76 402 76 402 135 478 c 2,6,-1
 342 745 l 1,7,-1
 527 745 l 1,8,-1
 318 478 l 1,9,-1
 330 478 l 2,10,11
 398 478 398 478 452 447 c 128,-1,12
 506 416 506 416 536.5 362 c 128,-1,13
 567 308 567 308 567 242 c 0,14,15
 567 169 567 169 533 111.5 c 128,-1,16
 499 54 499 54 438.5 21 c 128,-1,17
 378 -12 378 -12 302 -12 c 256,18,0
 226 -12 226 -12 165.5 20 c 128,-1,1
223.5 159.5 m 128,-1,20
 255 128 255 128 302 128 c 256,21,22
 349 128 349 128 380.5 159.5 c 128,-1,23
 412 191 412 191 412 240 c 256,24,25
 412 289 412 289 380.5 320 c 128,-1,26
 349 351 349 351 302 351 c 256,27,28
 255 351 255 351 223.5 320 c 128,-1,29
 192 289 192 289 192 240 c 256,30,19
 192 191 192 191 223.5 159.5 c 128,-1,20
EndSplineSet
Validated: 1
Substitution2: "'frac' Diagonal Fractions in Latin lookup 14 subtable" six.numr
Substitution2: "'dnom' Denominators in Latin lookup 12 subtable" six.dnom
Substitution2: "'numr' Numerators in Latin lookup 11 subtable" six.numr
Substitution2: "'sups' Superscript in Latin lookup 10 subtable" uni2076
Substitution2: "'sinf' Scientific Inferiors in Latin lookup 9 subtable" uni2086
Substitution2: "'subs' Subscript in Latin lookup 8 subtable" uni2086
AlternateSubs2: "'aalt' Access All Alternates in Latin lookup 1 subtable" uni2086 uni2076 six.numr six.dnom
EndChar

StartChar: seven
Encoding: 55 55 841
Width: 564
GlyphClass: 1
Flags: W
LayerCount: 2
Fore
SplineSet
371 616 m 1,0,-1
 27 616 l 1,1,-1
 27 746 l 1,2,-1
 534 746 l 1,3,-1
 534 616 l 1,4,-1
 242 0 l 1,5,-1
 70 0 l 1,6,-1
 371 616 l 1,0,-1
EndSplineSet
Validated: 1
Substitution2: "'frac' Diagonal Fractions in Latin lookup 14 subtable" seven.numr
Substitution2: "'dnom' Denominators in Latin lookup 12 subtable" seven.dnom
Substitution2: "'numr' Numerators in Latin lookup 11 subtable" seven.numr
Substitution2: "'sups' Superscript in Latin lookup 10 subtable" uni2077
Substitution2: "'sinf' Scientific Inferiors in Latin lookup 9 subtable" uni2087
Substitution2: "'subs' Subscript in Latin lookup 8 subtable" uni2087
AlternateSubs2: "'aalt' Access All Alternates in Latin lookup 1 subtable" uni2087 uni2077 seven.numr seven.dnom
EndChar

StartChar: eight
Encoding: 56 56 842
Width: 633
GlyphClass: 1
Flags: W
LayerCount: 2
Fore
SplineSet
173.5 18.5 m 128,-1,1
 112 49 112 49 79.5 101 c 128,-1,2
 47 153 47 153 47 215 c 0,3,4
 47 333 47 333 151 391 c 1,5,6
 114 415 114 415 93.5 457.5 c 128,-1,7
 73 500 73 500 73 550 c 0,8,9
 73 609 73 609 104 656.5 c 128,-1,10
 135 704 135 704 190.5 730.5 c 128,-1,11
 246 757 246 757 316 757 c 256,12,13
 386 757 386 757 441 730.5 c 128,-1,14
 496 704 496 704 527.5 656.5 c 128,-1,15
 559 609 559 609 559 550 c 0,16,17
 559 501 559 501 538.5 458.5 c 128,-1,18
 518 416 518 416 481 391 c 1,19,20
 587 332 587 332 587 214 c 0,21,22
 587 153 587 153 554 101 c 128,-1,23
 521 49 521 49 459 18.5 c 128,-1,24
 397 -12 397 -12 316 -12 c 256,25,0
 235 -12 235 -12 173.5 18.5 c 128,-1,1
233.5 146 m 128,-1,27
 265 118 265 118 316 118 c 0,28,29
 368 118 368 118 400 146 c 128,-1,30
 432 174 432 174 432 220 c 256,31,32
 432 266 432 266 400 293.5 c 128,-1,33
 368 321 368 321 316 321 c 0,34,35
 265 321 265 321 233.5 293.5 c 128,-1,36
 202 266 202 266 202 220 c 256,37,26
 202 174 202 174 233.5 146 c 128,-1,27
252.5 476.5 m 128,-1,39
 277 451 277 451 316 451 c 256,40,41
 355 451 355 451 379.5 476.5 c 128,-1,42
 404 502 404 502 404 539 c 0,43,44
 404 577 404 577 379.5 602 c 128,-1,45
 355 627 355 627 316 627 c 256,46,47
 277 627 277 627 252.5 602 c 128,-1,48
 228 577 228 577 228 539 c 0,49,38
 228 502 228 502 252.5 476.5 c 128,-1,39
EndSplineSet
Validated: 1
Substitution2: "'frac' Diagonal Fractions in Latin lookup 14 subtable" eight.numr
Substitution2: "'dnom' Denominators in Latin lookup 12 subtable" eight.dnom
Substitution2: "'numr' Numerators in Latin lookup 11 subtable" eight.numr
Substitution2: "'sups' Superscript in Latin lookup 10 subtable" uni2078
Substitution2: "'sinf' Scientific Inferiors in Latin lookup 9 subtable" uni2088
Substitution2: "'subs' Subscript in Latin lookup 8 subtable" uni2088
AlternateSubs2: "'aalt' Access All Alternates in Latin lookup 1 subtable" uni2088 uni2078 eight.numr eight.dnom
EndChar

StartChar: nine
Encoding: 57 57 843
Width: 604
GlyphClass: 1
Flags: W
LayerCount: 2
Fore
SplineSet
286 267 m 1,0,-1
 274 267 l 2,1,2
 206 267 206 267 152 298 c 128,-1,3
 98 329 98 329 67.5 383 c 128,-1,4
 37 437 37 437 37 503 c 0,5,6
 37 576 37 576 71 633.5 c 128,-1,7
 105 691 105 691 165.5 724 c 128,-1,8
 226 757 226 757 302 757 c 256,9,10
 378 757 378 757 438.5 725 c 128,-1,11
 499 693 499 693 533 636.5 c 128,-1,12
 567 580 567 580 567 510 c 0,13,14
 567 451 567 451 547.5 397 c 128,-1,15
 528 343 528 343 469 267 c 2,16,-1
 262 0 l 1,17,-1
 77 0 l 1,18,-1
 286 267 l 1,0,-1
223.5 425 m 128,-1,20
 255 394 255 394 302 394 c 256,21,22
 349 394 349 394 380.5 425 c 128,-1,23
 412 456 412 456 412 505 c 256,24,25
 412 554 412 554 380.5 585.5 c 128,-1,26
 349 617 349 617 302 617 c 256,27,28
 255 617 255 617 223.5 585.5 c 128,-1,29
 192 554 192 554 192 505 c 256,30,19
 192 456 192 456 223.5 425 c 128,-1,20
EndSplineSet
Validated: 1
Substitution2: "'frac' Diagonal Fractions in Latin lookup 14 subtable" nine.numr
Substitution2: "'dnom' Denominators in Latin lookup 12 subtable" nine.dnom
Substitution2: "'numr' Numerators in Latin lookup 11 subtable" nine.numr
Substitution2: "'sups' Superscript in Latin lookup 10 subtable" uni2079
Substitution2: "'sinf' Scientific Inferiors in Latin lookup 9 subtable" uni2089
Substitution2: "'subs' Subscript in Latin lookup 8 subtable" uni2089
AlternateSubs2: "'aalt' Access All Alternates in Latin lookup 1 subtable" uni2089 uni2079 nine.numr nine.dnom
EndChar

StartChar: zero.dnom
Encoding: 65897 -1 844
Width: 382
GlyphClass: 1
Flags: W
LayerCount: 2
Fore
SplineSet
102.5 20 m 128,-1,1
 64 47 64 47 43 96 c 128,-1,2
 22 145 22 145 22 209 c 0,3,4
 22 272 22 272 43 321 c 128,-1,5
 64 370 64 370 102.5 397 c 128,-1,6
 141 424 141 424 190 424 c 0,7,8
 241 424 241 424 279.5 397 c 128,-1,9
 318 370 318 370 339 321.5 c 128,-1,10
 360 273 360 273 360 209 c 0,11,12
 360 146 360 146 339 97 c 128,-1,13
 318 48 318 48 279.5 20.5 c 128,-1,14
 241 -7 241 -7 190 -7 c 0,15,0
 141 -7 141 -7 102.5 20 c 128,-1,1
140 116 m 128,-1,17
 157 83 157 83 190 83 c 0,18,19
 224 83 224 83 242.5 116 c 128,-1,20
 261 149 261 149 261 209 c 0,21,22
 261 268 261 268 242.5 301 c 128,-1,23
 224 334 224 334 190 334 c 0,24,25
 157 334 157 334 140 301.5 c 128,-1,26
 123 269 123 269 123 209 c 256,27,16
 123 149 123 149 140 116 c 128,-1,17
EndSplineSet
Validated: 1
EndChar

StartChar: one.dnom
Encoding: 65898 -1 845
Width: 280
GlyphClass: 1
Flags: W
LayerCount: 2
Fore
SplineSet
96 333 m 1,0,-1
 14 333 l 1,1,-1
 14 417 l 1,2,-1
 196 417 l 1,3,-1
 196 0 l 1,4,-1
 96 0 l 1,5,-1
 96 333 l 1,0,-1
EndSplineSet
Validated: 1
EndChar

StartChar: two.dnom
Encoding: 65899 -1 846
Width: 334
GlyphClass: 1
Flags: W
LayerCount: 2
Fore
SplineSet
17 78 m 1,0,-1
 129 192 l 2,1,2
 172 236 172 236 187 256.5 c 128,-1,3
 202 277 202 277 202 293 c 0,4,5
 202 310 202 310 189.5 321.5 c 128,-1,6
 177 333 177 333 159 333 c 0,7,8
 140 333 140 333 124.5 322 c 128,-1,9
 109 311 109 311 101 289 c 1,10,-1
 14 318 l 1,11,12
 24 365 24 365 66 394.5 c 128,-1,13
 108 424 108 424 159 424 c 0,14,15
 223 424 223 424 262.5 391.5 c 128,-1,16
 302 359 302 359 302 306 c 0,17,18
 302 271 302 271 285 241.5 c 128,-1,19
 268 212 268 212 234 177 c 2,20,-1
 143 84 l 1,21,-1
 305 84 l 1,22,-1
 305 0 l 1,23,-1
 17 0 l 1,24,-1
 17 78 l 1,0,-1
EndSplineSet
Validated: 1
EndChar

StartChar: three.dnom
Encoding: 65900 -1 847
Width: 346
GlyphClass: 1
Flags: W
LayerCount: 2
Fore
SplineSet
63.5 23.5 m 128,-1,1
 20 54 20 54 10 102 c 1,2,-1
 99 131 l 1,3,4
 117 85 117 85 161 85 c 0,5,6
 187 85 187 85 203 99.5 c 128,-1,7
 219 114 219 114 219 138 c 0,8,9
 219 161 219 161 204 175 c 128,-1,10
 189 189 189 189 161 189 c 0,11,12
 132 189 132 189 109 177 c 1,13,-1
 86 225 l 1,14,-1
 190 334 l 1,15,-1
 38 334 l 1,16,-1
 38 417 l 1,17,-1
 303 417 l 1,18,-1
 303 339 l 1,19,-1
 229 260 l 1,20,21
 271 250 271 250 294.5 218.5 c 128,-1,22
 318 187 318 187 318 141 c 0,23,24
 318 100 318 100 297.5 66 c 128,-1,25
 277 32 277 32 241 12.5 c 128,-1,26
 205 -7 205 -7 161 -7 c 0,27,0
 107 -7 107 -7 63.5 23.5 c 128,-1,1
EndSplineSet
Validated: 1
EndChar

StartChar: four.dnom
Encoding: 65901 -1 848
Width: 395
GlyphClass: 1
Flags: W
LayerCount: 2
Fore
SplineSet
205 87 m 1,0,-1
 28 87 l 1,1,-1
 28 172 l 1,2,-1
 197 417 l 1,3,-1
 306 417 l 1,4,-1
 306 171 l 1,5,-1
 375 171 l 1,6,-1
 375 87 l 1,7,-1
 306 87 l 1,8,-1
 306 0 l 1,9,-1
 205 0 l 1,10,-1
 205 87 l 1,0,-1
205 171 m 1,11,-1
 205 295 l 1,12,-1
 123 171 l 1,13,-1
 205 171 l 1,11,-1
EndSplineSet
Validated: 1
EndChar

StartChar: five.dnom
Encoding: 65902 -1 849
Width: 346
GlyphClass: 1
Flags: W
LayerCount: 2
Fore
SplineSet
75.5 22 m 128,-1,1
 32 51 32 51 23 99 c 1,2,-1
 113 128 l 1,3,4
 120 106 120 106 135.5 95.5 c 128,-1,5
 151 85 151 85 170 85 c 0,6,7
 194 85 194 85 209.5 99.5 c 128,-1,8
 225 114 225 114 225 139 c 0,9,10
 225 163 225 163 210 178.5 c 128,-1,11
 195 194 195 194 169 194 c 0,12,13
 130 194 130 194 120 161 c 1,14,-1
 38 181 l 1,15,-1
 72 417 l 1,16,-1
 311 417 l 1,17,-1
 311 334 l 1,18,-1
 144 334 l 1,19,-1
 135 266 l 1,20,21
 156 277 156 277 190 277 c 0,22,23
 253 277 253 277 289 239 c 128,-1,24
 325 201 325 201 325 139 c 0,25,26
 325 98 325 98 305 64.5 c 128,-1,27
 285 31 285 31 249.5 12 c 128,-1,28
 214 -7 214 -7 170 -7 c 0,29,0
 119 -7 119 -7 75.5 22 c 128,-1,1
EndSplineSet
Validated: 1
EndChar

StartChar: six.dnom
Encoding: 65903 -1 850
Width: 347
GlyphClass: 1
Flags: W
LayerCount: 2
Fore
SplineSet
96 11.5 m 128,-1,1
 61 30 61 30 41.5 61.5 c 128,-1,2
 22 93 22 93 22 132 c 0,3,4
 22 168 22 168 34 198 c 128,-1,5
 46 228 46 228 77 268 c 2,6,-1
 193 417 l 1,7,-1
 312 417 l 1,8,-1
 196 271 l 1,9,10
 253 270 253 270 289.5 231.5 c 128,-1,11
 326 193 326 193 326 139 c 0,12,13
 326 75 326 75 284 34 c 128,-1,14
 242 -7 242 -7 175 -7 c 0,15,0
 131 -7 131 -7 96 11.5 c 128,-1,1
137.5 99.5 m 128,-1,17
 153 85 153 85 175 85 c 0,18,19
 195 85 195 85 210.5 99.5 c 128,-1,20
 226 114 226 114 226 137 c 256,21,22
 226 160 226 160 211 174 c 128,-1,23
 196 188 196 188 175 188 c 0,24,25
 152 188 152 188 137 174 c 128,-1,26
 122 160 122 160 122 137 c 256,27,16
 122 114 122 114 137.5 99.5 c 128,-1,17
EndSplineSet
Validated: 1
EndChar

StartChar: seven.dnom
Encoding: 65904 -1 851
Width: 317
GlyphClass: 1
Flags: W
LayerCount: 2
Fore
SplineSet
198 334 m 1,0,-1
 11 334 l 1,1,-1
 11 418 l 1,2,-1
 303 418 l 1,3,-1
 303 334 l 1,4,-1
 148 0 l 1,5,-1
 36 0 l 1,6,-1
 198 334 l 1,0,-1
EndSplineSet
Validated: 1
EndChar

StartChar: eight.dnom
Encoding: 65905 -1 852
Width: 373
GlyphClass: 1
Flags: W
LayerCount: 2
Fore
SplineSet
103 10.5 m 128,-1,1
 68 28 68 28 49.5 57 c 128,-1,2
 31 86 31 86 31 120 c 0,3,4
 31 184 31 184 85 215 c 1,5,6
 66 229 66 229 54.5 252.5 c 128,-1,7
 43 276 43 276 43 305 c 0,8,9
 43 357 43 357 83 390.5 c 128,-1,10
 123 424 123 424 185 424 c 0,11,12
 246 424 246 424 286.5 390 c 128,-1,13
 327 356 327 356 327 305 c 0,14,15
 327 278 327 278 316 253.5 c 128,-1,16
 305 229 305 229 285 215 c 1,17,18
 314 198 314 198 327.5 175 c 128,-1,19
 341 152 341 152 341 120 c 0,20,21
 341 86 341 86 322 57 c 128,-1,22
 303 28 303 28 267.5 10.5 c 128,-1,23
 232 -7 232 -7 185 -7 c 256,24,0
 138 -7 138 -7 103 10.5 c 128,-1,1
147 90.5 m 128,-1,26
 162 77 162 77 185 77 c 0,27,28
 209 77 209 77 225 90.5 c 128,-1,29
 241 104 241 104 241 124 c 0,30,31
 241 145 241 145 225.5 158 c 128,-1,32
 210 171 210 171 185 171 c 0,33,34
 161 171 161 171 146.5 158 c 128,-1,35
 132 145 132 145 132 124 c 0,36,25
 132 104 132 104 147 90.5 c 128,-1,26
154.5 267 m 128,-1,38
 166 255 166 255 185 255 c 256,39,40
 204 255 204 255 215 267 c 128,-1,41
 226 279 226 279 226 296 c 0,42,43
 226 315 226 315 215 327.5 c 128,-1,44
 204 340 204 340 185 340 c 256,45,46
 166 340 166 340 154.5 327.5 c 128,-1,47
 143 315 143 315 143 296 c 0,48,37
 143 279 143 279 154.5 267 c 128,-1,38
EndSplineSet
Validated: 1
EndChar

StartChar: nine.dnom
Encoding: 65906 -1 853
Width: 347
GlyphClass: 1
Flags: W
LayerCount: 2
Fore
SplineSet
152 147 m 1,0,1
 96 148 96 148 59 186 c 128,-1,2
 22 224 22 224 22 279 c 0,3,4
 22 342 22 342 65 383 c 128,-1,5
 108 424 108 424 175 424 c 0,6,7
 218 424 218 424 252.5 406 c 128,-1,8
 287 388 287 388 306.5 356.5 c 128,-1,9
 326 325 326 325 326 286 c 0,10,11
 326 252 326 252 315.5 222.5 c 128,-1,12
 305 193 305 193 272 150 c 2,13,-1
 155 0 l 1,14,-1
 35 0 l 1,15,-1
 152 147 l 1,0,1
137.5 243 m 128,-1,17
 153 229 153 229 175 229 c 0,18,19
 196 229 196 229 211 243 c 128,-1,20
 226 257 226 257 226 280 c 256,21,22
 226 303 226 303 211 318 c 128,-1,23
 196 333 196 333 175 333 c 0,24,25
 153 333 153 333 137.5 318 c 128,-1,26
 122 303 122 303 122 280 c 256,27,16
 122 257 122 257 137.5 243 c 128,-1,17
EndSplineSet
Validated: 1
EndChar

StartChar: uni2080
Encoding: 8320 8320 854
Width: 466
GlyphClass: 1
Flags: W
LayerCount: 2
Fore
SplineSet
123 25 m 128,-1,1
 75 59 75 59 48.5 120 c 128,-1,2
 22 181 22 181 22 261 c 256,3,4
 22 341 22 341 48.5 402 c 128,-1,5
 75 463 75 463 123 496.5 c 128,-1,6
 171 530 171 530 233 530 c 0,7,8
 296 530 296 530 343.5 496.5 c 128,-1,9
 391 463 391 463 417.5 402 c 128,-1,10
 444 341 444 341 444 261 c 0,11,12
 444 182 444 182 417.5 120.5 c 128,-1,13
 391 59 391 59 343.5 25 c 128,-1,14
 296 -9 296 -9 233 -9 c 0,15,0
 171 -9 171 -9 123 25 c 128,-1,1
165.5 142 m 128,-1,17
 189 99 189 99 233 99 c 0,18,19
 278 99 278 99 302 141.5 c 128,-1,20
 326 184 326 184 326 261 c 0,21,22
 326 337 326 337 302 379.5 c 128,-1,23
 278 422 278 422 233 422 c 0,24,25
 189 422 189 422 165.5 380.5 c 128,-1,26
 142 339 142 339 142 261 c 0,27,16
 142 185 142 185 165.5 142 c 128,-1,17
EndSplineSet
Validated: 1
EndChar

StartChar: uni2081
Encoding: 8321 8321 855
Width: 319
GlyphClass: 1
Flags: W
LayerCount: 2
Fore
SplineSet
116 421 m 1,0,-1
 14 421 l 1,1,-1
 14 521 l 1,2,-1
 235 521 l 1,3,-1
 235 0 l 1,4,-1
 116 0 l 1,5,-1
 116 421 l 1,0,-1
EndSplineSet
Validated: 1
EndChar

StartChar: uni2082
Encoding: 8322 8322 856
Width: 404
GlyphClass: 1
Flags: W
LayerCount: 2
Fore
SplineSet
17 93 m 1,0,-1
 157 236 l 2,1,2
 212 292 212 292 232 318.5 c 128,-1,3
 252 345 252 345 252 367 c 0,4,5
 252 391 252 391 235.5 406.5 c 128,-1,6
 219 422 219 422 194 422 c 0,7,8
 168 422 168 422 147.5 407 c 128,-1,9
 127 392 127 392 118 363 c 1,10,-1
 14 397 l 1,11,12
 26 457 26 457 78.5 493.5 c 128,-1,13
 131 530 131 530 194 530 c 0,14,15
 273 530 273 530 322 489 c 128,-1,16
 371 448 371 448 371 383 c 0,17,18
 371 340 371 340 349.5 302 c 128,-1,19
 328 264 328 264 284 219 c 2,20,-1
 168 100 l 1,21,-1
 375 100 l 1,22,-1
 375 0 l 1,23,-1
 17 0 l 1,24,-1
 17 93 l 1,0,-1
EndSplineSet
Validated: 1
EndChar

StartChar: uni2083
Encoding: 8323 8323 857
Width: 421
GlyphClass: 1
Flags: W
LayerCount: 2
Fore
SplineSet
77 28.5 m 128,-1,1
 23 66 23 66 10 126 c 1,2,-1
 115 161 l 1,3,4
 138 100 138 100 198 100 c 0,5,6
 233 100 233 100 253.5 119 c 128,-1,7
 274 138 274 138 274 171 c 0,8,9
 274 202 274 202 254 221 c 128,-1,10
 234 240 234 240 198 240 c 256,11,12
 162 240 162 240 135 225 c 1,13,-1
 107 283 l 1,14,-1
 239 422 l 1,15,-1
 44 422 l 1,16,-1
 44 521 l 1,17,-1
 372 521 l 1,18,-1
 372 429 l 1,19,-1
 276 324 l 1,20,21
 331 314 331 314 362 274 c 128,-1,22
 393 234 393 234 393 175 c 0,23,24
 393 123 393 123 367.5 81 c 128,-1,25
 342 39 342 39 297.5 15 c 128,-1,26
 253 -9 253 -9 198 -9 c 0,27,0
 131 -9 131 -9 77 28.5 c 128,-1,1
EndSplineSet
Validated: 1
EndChar

StartChar: uni2084
Encoding: 8324 8324 858
Width: 476
GlyphClass: 1
Flags: W
LayerCount: 2
Fore
SplineSet
253 110 m 1,0,-1
 28 110 l 1,1,-1
 28 211 l 1,2,-1
 244 521 l 1,3,-1
 373 521 l 1,4,-1
 373 210 l 1,5,-1
 456 210 l 1,6,-1
 456 110 l 1,7,-1
 373 110 l 1,8,-1
 373 0 l 1,9,-1
 253 0 l 1,10,-1
 253 110 l 1,0,-1
253 210 m 1,11,-1
 253 377 l 1,12,-1
 142 210 l 1,13,-1
 253 210 l 1,11,-1
EndSplineSet
Validated: 1
EndChar

StartChar: uni2085
Encoding: 8325 8325 859
Width: 419
GlyphClass: 1
Flags: W
LayerCount: 2
Fore
SplineSet
87.5 27 m 128,-1,1
 35 63 35 63 23 122 c 1,2,-1
 129 157 l 1,3,4
 138 128 138 128 158.5 114 c 128,-1,5
 179 100 179 100 205 100 c 0,6,7
 238 100 238 100 258.5 120 c 128,-1,8
 279 140 279 140 279 173 c 256,9,10
 279 206 279 206 259 226 c 128,-1,11
 239 246 239 246 205 246 c 0,12,13
 182 246 182 246 164.5 236 c 128,-1,14
 147 226 147 226 139 204 c 1,15,-1
 41 228 l 1,16,-1
 84 521 l 1,17,-1
 380 521 l 1,18,-1
 380 422 l 1,19,-1
 170 422 l 1,20,-1
 157 331 l 1,21,22
 184 345 184 345 229 345 c 0,23,24
 307 345 307 345 352.5 297.5 c 128,-1,25
 398 250 398 250 398 173 c 0,26,27
 398 122 398 122 373 80.5 c 128,-1,28
 348 39 348 39 304 15 c 128,-1,29
 260 -9 260 -9 205 -9 c 0,30,0
 140 -9 140 -9 87.5 27 c 128,-1,1
EndSplineSet
Validated: 1
EndChar

StartChar: uni2086
Encoding: 8326 8326 860
Width: 420
GlyphClass: 1
Flags: W
LayerCount: 2
Fore
SplineSet
113.5 14 m 128,-1,1
 70 37 70 37 46 76.5 c 128,-1,2
 22 116 22 116 22 165 c 0,3,4
 22 208 22 208 37.5 246 c 128,-1,5
 53 284 53 284 91 334 c 2,6,-1
 236 521 l 1,7,-1
 378 521 l 1,8,-1
 233 337 l 1,9,10
 281 337 281 337 318.5 315 c 128,-1,11
 356 293 356 293 377.5 255.5 c 128,-1,12
 399 218 399 218 399 172 c 0,13,14
 399 120 399 120 375 79 c 128,-1,15
 351 38 351 38 308.5 14.5 c 128,-1,16
 266 -9 266 -9 211 -9 c 0,17,0
 157 -9 157 -9 113.5 14 c 128,-1,1
161.5 119.5 m 128,-1,19
 182 100 182 100 211 100 c 256,20,21
 240 100 240 100 260 119.5 c 128,-1,22
 280 139 280 139 280 170 c 256,23,24
 280 201 280 201 260 220 c 128,-1,25
 240 239 240 239 211 239 c 256,26,27
 182 239 182 239 161.5 220 c 128,-1,28
 141 201 141 201 141 170 c 256,29,18
 141 139 141 139 161.5 119.5 c 128,-1,19
EndSplineSet
Validated: 1
EndChar

StartChar: uni2087
Encoding: 8327 8327 861
Width: 387
GlyphClass: 1
Flags: W
LayerCount: 2
Fore
SplineSet
248 422 m 1,0,-1
 11 422 l 1,1,-1
 11 522 l 1,2,-1
 373 522 l 1,3,-1
 373 422 l 1,4,-1
 175 0 l 1,5,-1
 42 0 l 1,6,-1
 248 422 l 1,0,-1
EndSplineSet
Validated: 1
EndChar

StartChar: uni2088
Encoding: 8328 8328 862
Width: 447
GlyphClass: 1
Flags: W
LayerCount: 2
Fore
SplineSet
120.5 13 m 128,-1,1
 77 35 77 35 54 71 c 128,-1,2
 31 107 31 107 31 150 c 0,3,4
 31 192 31 192 48.5 221 c 128,-1,5
 66 250 66 250 101 270 c 1,6,7
 76 287 76 287 62 317.5 c 128,-1,8
 48 348 48 348 48 383 c 0,9,10
 48 425 48 425 70 458.5 c 128,-1,11
 92 492 92 492 132 511 c 128,-1,12
 172 530 172 530 222 530 c 256,13,14
 272 530 272 530 312 511 c 128,-1,15
 352 492 352 492 374.5 458.5 c 128,-1,16
 397 425 397 425 397 383 c 0,17,18
 397 348 397 348 383 318 c 128,-1,19
 369 288 369 288 344 271 c 1,20,21
 415 230 415 230 415 150 c 0,22,23
 415 107 415 107 391.5 70.5 c 128,-1,24
 368 34 368 34 324.5 12.5 c 128,-1,25
 281 -9 281 -9 222 -9 c 0,26,0
 164 -9 164 -9 120.5 13 c 128,-1,1
170.5 109 m 128,-1,28
 190 91 190 91 222 91 c 256,29,30
 254 91 254 91 275 109 c 128,-1,31
 296 127 296 127 296 155 c 256,32,33
 296 183 296 183 275.5 200 c 128,-1,34
 255 217 255 217 222 217 c 0,35,36
 190 217 190 217 170.5 200 c 128,-1,37
 151 183 151 183 151 155 c 256,38,27
 151 127 151 127 170.5 109 c 128,-1,28
181.5 333.5 m 128,-1,40
 197 317 197 317 222 317 c 256,41,42
 247 317 247 317 262.5 333.5 c 128,-1,43
 278 350 278 350 278 373 c 0,44,45
 278 397 278 397 262.5 413.5 c 128,-1,46
 247 430 247 430 222 430 c 256,47,48
 197 430 197 430 181.5 413.5 c 128,-1,49
 166 397 166 397 166 373 c 0,50,39
 166 350 166 350 181.5 333.5 c 128,-1,40
EndSplineSet
Validated: 1
EndChar

StartChar: uni2089
Encoding: 8329 8329 863
Width: 420
GlyphClass: 1
Flags: W
LayerCount: 2
Fore
SplineSet
188 185 m 1,0,1
 141 185 141 185 103 207 c 128,-1,2
 65 229 65 229 43.5 266.5 c 128,-1,3
 22 304 22 304 22 350 c 0,4,5
 22 401 22 401 46 442.5 c 128,-1,6
 70 484 70 484 113 507 c 128,-1,7
 156 530 156 530 211 530 c 0,8,9
 265 530 265 530 308 507.5 c 128,-1,10
 351 485 351 485 375 445.5 c 128,-1,11
 399 406 399 406 399 357 c 0,12,13
 399 315 399 315 385.5 277 c 128,-1,14
 372 239 372 239 331 187 c 2,15,-1
 185 0 l 1,16,-1
 43 0 l 1,17,-1
 188 185 l 1,0,1
161.5 301 m 128,-1,19
 182 282 182 282 211 282 c 256,20,21
 240 282 240 282 260 301.5 c 128,-1,22
 280 321 280 321 280 351 c 0,23,24
 280 383 280 383 260 402.5 c 128,-1,25
 240 422 240 422 211 422 c 256,26,27
 182 422 182 422 161.5 402 c 128,-1,28
 141 382 141 382 141 351 c 256,29,18
 141 320 141 320 161.5 301 c 128,-1,19
EndSplineSet
Validated: 1
EndChar

StartChar: zero.numr
Encoding: 65907 -1 864
Width: 382
GlyphClass: 1
Flags: W
LayerCount: 2
Fore
SplineSet
102.5 348 m 128,-1,1
 64 375 64 375 43 424 c 128,-1,2
 22 473 22 473 22 537 c 0,3,4
 22 600 22 600 43 649 c 128,-1,5
 64 698 64 698 102.5 725 c 128,-1,6
 141 752 141 752 190 752 c 0,7,8
 241 752 241 752 279.5 725 c 128,-1,9
 318 698 318 698 339 649.5 c 128,-1,10
 360 601 360 601 360 537 c 0,11,12
 360 474 360 474 339 425 c 128,-1,13
 318 376 318 376 279.5 348.5 c 128,-1,14
 241 321 241 321 190 321 c 0,15,0
 141 321 141 321 102.5 348 c 128,-1,1
140 444 m 128,-1,17
 157 411 157 411 190 411 c 0,18,19
 224 411 224 411 242.5 444 c 128,-1,20
 261 477 261 477 261 537 c 0,21,22
 261 596 261 596 242.5 629 c 128,-1,23
 224 662 224 662 190 662 c 0,24,25
 157 662 157 662 140 629.5 c 128,-1,26
 123 597 123 597 123 537 c 256,27,16
 123 477 123 477 140 444 c 128,-1,17
EndSplineSet
Validated: 1
Substitution2: "Single Substitution lookup 27 subtable" zero.dnom
Substitution2: "'aalt' Access All Alternates in Latin lookup 0 subtable" zero.dnom
EndChar

